SplineFontDB: 3.0
FontName: Didont-Regular
FullName: Didont Regular
FamilyName: Didont
Weight: Regular
Copyright: Copyright (c) 2013, Thatcher Ulrich (tu@tulrich.com).\nCopyright (c) 2007-2008, Alexey Kryukov (alexios@thessalonica.org.ru),\nwith Reserved Font Name "Theano".\n\nThis Font Software is licensed under the SIL Open Font License, Version 1.1.\nThis license is copied below, and is also available with a FAQ at:\nhttp://scripts.sil.org/OFL\n\n
FontLog: "A Didot-style font with the serifs removed. Created by Thatcher Ulrich by modifying the Theano Didot font by Alexey Kryukov. Released under the Open Font License.+AAoA" 
Version: 1.00
ItalicAngle: 0
UnderlinePosition: -352
UnderlineWidth: 96
Ascent: 1580
Descent: 468
sfntRevision: 0x00010000
LayerCount: 2
Layer: 0 0 "Back"  1
Layer: 1 0 "Fore"  0
XUID: [1021 387 1576619739 13738548]
FSType: 0
OS2Version: 2
OS2_WeightWidthSlopeOnly: 0
OS2_UseTypoMetrics: 1
CreationTime: 1225895254
ModificationTime: 1388335024
PfmFamily: 17
TTFWeight: 400
TTFWidth: 5
LineGap: 560
VLineGap: 0
Panose: 2 6 6 3 6 7 2 2 2 3
OS2TypoAscent: 0
OS2TypoAOffset: 1
OS2TypoDescent: 0
OS2TypoDOffset: 1
OS2TypoLinegap: 560
OS2WinAscent: 0
OS2WinAOffset: 1
OS2WinDescent: 0
OS2WinDOffset: 1
HheadAscent: 0
HheadAOffset: 1
HheadDescent: 0
HheadDOffset: 1
OS2SubXSize: 1400
OS2SubYSize: 1300
OS2SubXOff: 0
OS2SubYOff: 280
OS2SupXSize: 1400
OS2SupYSize: 1300
OS2SupXOff: 0
OS2SupYOff: 954
OS2StrikeYSize: 100
OS2StrikeYPos: 500
OS2FamilyClass: 768
OS2Vendor: '    '
OS2CodePages: 2000009b.00000000
OS2UnicodeRanges: c00000ef.500020cb.00000000.00000000
Lookup: 4 0 0 "'ccmp' Simple Glyph Composition"  {"'ccmp' Simple Glyph Composition-1"  } ['ccmp' ('grek' <'dflt' > 'latn' <'AZE ' 'CRT ' 'DEU ' 'MOL ' 'ROM ' 'TRK ' 'dflt' > ) ]
Lookup: 5 0 0 "'ccmp' Dotless Variants"  {"'ccmp' Dotless Variants-1"  } ['ccmp' ('grek' <'dflt' > 'latn' <'AZE ' 'CRT ' 'DEU ' 'MOL ' 'ROM ' 'TRK ' 'dflt' > ) ]

StartChar: .notdef
Encoding: 256 -1 0
Width: 1024
Flags: W
HStem: 0 88<197.503 826.497> 184 174<435.799 555.246> 1162 88<414.996 608.285> 1372 88<197.503 826.497>
VStem: 96 96<93.0469 1366.95> 276 96<980 1108.35> 410 170<210.846 333.247> 442 96<436 715.81> 640 112<905.722 1131.31> 832 96<93.0469 1366.95>
LayerCount: 2
Back
SplineSet
96 0 m 5
 96 1460 l 5
 928 1460 l 5
 928 0 l 5
 96 0 l 5
192 168 m 6
 192 114.666666667 218 88 270 88 c 6
 754 88 l 6
 806 88 832 114.666666667 832 168 c 6
 832 1292 l 6
 832 1345.33333333 806 1372 754 1372 c 6
 270 1372 l 6
 218 1372 192 1345.33333333 192 1292 c 6
 192 168 l 6
276 980 m 5
 276 1058.66666667 298.833333333 1123.33333333 344.5 1174 c 132
 390.166666667 1224.66666667 450 1250 524 1250 c 4
 594 1250 649.5 1231.5 690.5 1194.5 c 132
 731.5 1157.5 752 1107.33333333 752 1044 c 4
 752 974.666666667 701.333333333 874.333333333 600 743 c 4
 574.666666667 710.333333333 558 668.833333333 550 618.5 c 132
 542 568.166666667 538 507.333333333 538 436 c 5
 442 436 l 5
 442 522.666666667 447.5 593.166666667 458.5 647.5 c 132
 469.5 701.833333333 495 755 535 807 c 4
 605 898.333333333 640 976.666666667 640 1042 c 4
 640 1076.66666667 628.333333333 1105.33333333 605 1128 c 132
 581.666666667 1150.66666667 552.666666667 1162 518 1162 c 4
 468 1162 431.5 1144.66666667 408.5 1110 c 132
 385.5 1075.33333333 373.333333333 1032 372 980 c 5
 276 980 l 5
410 274 m 132
 410 298 418.333333333 318 435 334 c 132
 451.666666667 350 472 358 496 358 c 4
 519.333333333 358 539.166666667 349.5 555.5 332.5 c 132
 571.833333333 315.5 580 296 580 274 c 4
 580 249.333333333 571.833333333 228.166666667 555.5 210.5 c 132
 539.166666667 192.833333333 519.333333333 184 496 184 c 4
 472 184 451.666666667 193 435 211 c 132
 418.333333333 229 410 250 410 274 c 132
EndSplineSet
Fore
SplineSet
96 0 m 5xfcc0
 96 1460 l 5
 928 1460 l 5
 928 0 l 5
 96 0 l 5xfcc0
192 168 m 6
 192 115 218 88 270 88 c 6
 754 88 l 6
 806 88 832 115 832 168 c 6
 832 1292 l 6
 832 1345 806 1372 754 1372 c 6
 270 1372 l 6
 218 1372 192 1345 192 1292 c 6
 192 168 l 6
276 980 m 5
 276 1059 298 1123 344 1174 c 4
 390 1225 450 1250 524 1250 c 4
 594 1250 649 1231 690 1194 c 4
 731 1157 752 1107 752 1044 c 4
 752 975 701 874 600 743 c 4
 575 710 558 668 550 618 c 4
 542 568 538 507 538 436 c 5
 442 436 l 5xfdc0
 442 523 447 594 458 648 c 4
 469 702 495 755 535 807 c 4
 605 898 640 977 640 1042 c 4
 640 1077 628 1105 605 1128 c 4
 582 1151 553 1162 518 1162 c 4
 468 1162 431 1145 408 1110 c 4
 385 1075 373 1032 372 980 c 5
 276 980 l 5
410 274 m 4xfec0
 410 298 418 318 435 334 c 4
 452 350 472 358 496 358 c 4
 519 358 540 349 556 332 c 4
 572 315 580 296 580 274 c 4
 580 249 572 228 556 210 c 4
 540 192 519 184 496 184 c 4
 472 184 452 193 435 211 c 4
 418 229 410 250 410 274 c 4xfec0
EndSplineSet
Validated: 1
EndChar

StartChar: exclam
Encoding: 260 33 4
Width: 528
GlyphClass: 2
Flags: W
HStem: -24 256<174.176 353.824>
VStem: 136 256<14.1755 193.824 900.521 1462.49>
LayerCount: 2
Back
SplineSet
126 1343 m 4
 126 1391 137.666666667 1431.16666667 161 1463.5 c 132
 184.333333333 1495.83333333 218.666666667 1512 264 1512 c 132
 309.333333333 1512 343.666666667 1495.83333333 367 1463.5 c 132
 390.333333333 1431.16666667 402 1391 402 1343 c 4
 402 1273 394 1190.66666667 378 1096 c 4
 358.666666667 985.333333333 344.333333333 885 335 795 c 6
 292 390 l 5
 236 390 l 5
 193 795 l 6
 183.666666667 885 169.333333333 985.333333333 150 1096 c 4
 134 1190.66666667 126 1273 126 1343 c 4
136 104 m 132
 136 140 148.333333333 170.333333333 173 195 c 132
 197.666666667 219.666666667 228 232 264 232 c 132
 300 232 330.333333333 219.666666667 355 195 c 132
 379.666666667 170.333333333 392 140 392 104 c 132
 392 68 379.666666667 37.6666666667 355 13 c 132
 330.333333333 -11.6666666667 300 -24 264 -24 c 132
 228 -24 197.666666667 -11.6666666667 173 13 c 132
 148.333333333 37.6666666667 136 68 136 104 c 132
EndSplineSet
Fore
SplineSet
126 1343 m 4
 126 1391 138 1432 161 1464 c 4
 184 1496 219 1512 264 1512 c 4
 309 1512 344 1496 367 1464 c 4
 390 1432 402 1391 402 1343 c 4
 402 1273 394 1191 378 1096 c 4
 359 985 344 885 335 795 c 6
 292 390 l 5
 236 390 l 5
 193 795 l 6
 184 885 169 985 150 1096 c 4
 134 1191 126 1273 126 1343 c 4
136 104 m 4
 136 140 148 170 173 195 c 4
 198 220 228 232 264 232 c 4
 300 232 330 220 355 195 c 4
 380 170 392 140 392 104 c 4
 392 68 380 38 355 13 c 4
 330 -12 300 -24 264 -24 c 4
 228 -24 198 -12 173 13 c 4
 148 38 136 68 136 104 c 4
EndSplineSet
Validated: 1
EndChar

StartChar: numbersign
Encoding: 262 35 6
Width: 1152
GlyphClass: 2
Flags: W
HStem: 0 21G<170 262.047 592 684.047> 430 96<62 257 365 679 787 1090> 934 96<62 360 467 782 889 1090> 1440 20G<461.953 554 883.953 976>
LayerCount: 2
Back
SplineSet
62 430 m 5
 62 526 l 5
 277 526 l 5
 360 934 l 5
 62 934 l 5
 62 1030 l 5
 379 1030 l 5
 466 1460 l 5
 554 1460 l 5
 467 1030 l 5
 801 1030 l 5
 888 1460 l 5
 976 1460 l 5
 889 1030 l 5
 1090 1030 l 5
 1090 934 l 5
 870 934 l 5
 787 526 l 5
 1090 526 l 5
 1090 430 l 5
 767 430 l 5
 680 0 l 5
 592 0 l 5
 679 430 l 5
 345 430 l 5
 258 0 l 5
 170 0 l 5
 257 430 l 5
 62 430 l 5
365 526 m 5
 699 526 l 5
 782 934 l 5
 448 934 l 5
 365 526 l 5
EndSplineSet
Fore
SplineSet
62 430 m 5
 62 526 l 5
 277 526 l 5
 360 934 l 5
 62 934 l 5
 62 1030 l 5
 379 1030 l 5
 466 1460 l 5
 554 1460 l 5
 467 1030 l 5
 801 1030 l 5
 888 1460 l 5
 976 1460 l 5
 889 1030 l 5
 1090 1030 l 5
 1090 934 l 5
 870 934 l 5
 787 526 l 5
 1090 526 l 5
 1090 430 l 5
 767 430 l 5
 680 0 l 5
 592 0 l 5
 679 430 l 5
 345 430 l 5
 258 0 l 5
 170 0 l 5
 257 430 l 5
 62 430 l 5
365 526 m 5
 699 526 l 5
 782 934 l 5
 448 934 l 5
 365 526 l 5
EndSplineSet
Validated: 1
EndChar

StartChar: dollar
Encoding: 263 36 7
Width: 1152
GlyphClass: 2
Flags: W
HStem: -20 48<473.428 677.217> -6 51<328.009 412 472 555.826 559.967 679> 1388 54<739 827.466> 1405 49<472 679>
VStem: 74 112<145.584 306.5> 106 114<997.978 1221.77> 412 60<-136 -15 45 671 905 1373 1443 1544> 679 60<-136 -10 58 593 826 1388 1450 1544> 926 116<1159.5 1309.71> 982 94<229.171 479.868>
LayerCount: 2
Back
SplineSet
74 280 m 4
 74 332.666666667 88 375.5 116 408.5 c 132
 144 441.5 181.666666667 458 229 458 c 4
 255 458 277.166666667 450.833333333 295.5 436.5 c 132
 313.833333333 422.166666667 323 402.666666667 323 378 c 4
 323 330.666666667 295.333333333 295.666666667 240 273 c 4
 219.333333333 264.333333333 205.166666667 254.833333333 197.5 244.5 c 132
 189.833333333 234.166666667 186 219.333333333 186 200 c 4
 186 167.333333333 207.5 137 250.5 109 c 132
 293.5 81 347.333333333 59.6666666667 412 45 c 5
 412 691 l 5
 363.333333333 707.666666667 321.5 725.5 286.5 744.5 c 132
 251.5 763.5 219.833333333 786.666666667 191.5 814 c 132
 163.166666667 841.333333333 141.833333333 873.666666667 127.5 911 c 132
 113.166666667 948.333333333 106 991.333333333 106 1040 c 4
 106 1130 133.666666667 1209.66666667 189 1279 c 132
 244.333333333 1348.33333333 318.666666667 1397.66666667 412 1427 c 5
 412 1544 l 5
 472 1544 l 5
 472 1443 l 5
 512 1450.33333333 552.333333333 1454 593 1454 c 4
 625.666666667 1454 654.333333333 1452.66666667 679 1450 c 5
 679 1544 l 5
 739 1544 l 5
 739 1442 l 5
 832.333333333 1425.33333333 906.166666667 1394 960.5 1348 c 132
 1014.83333333 1302 1042 1246.66666667 1042 1182 c 4
 1042 1136.66666667 1030.5 1097.33333333 1007.5 1064 c 132
 984.5 1030.66666667 952.666666667 1014 912 1014 c 4
 884 1014 861.333333333 1021.66666667 844 1037 c 132
 826.666666667 1052.33333333 818 1070.33333333 818 1091 c 4
 818 1129.66666667 838.666666667 1162.66666667 880 1190 c 4
 891.333333333 1197.33333333 899.5 1203.33333333 904.5 1208 c 132
 909.5 1212.66666667 914.333333333 1219.83333333 919 1229.5 c 132
 923.666666667 1239.16666667 926 1250.33333333 926 1263 c 4
 926 1291.66666667 908.333333333 1316.83333333 873 1338.5 c 132
 837.666666667 1360.16666667 793 1376.66666667 739 1388 c 5
 739 808 l 5
 862.333333333 769.333333333 949.333333333 722.166666667 1000 666.5 c 132
 1050.66666667 610.833333333 1076 533.333333333 1076 434 c 4
 1076 322 1045.33333333 229.333333333 984 156 c 132
 922.666666667 82.6666666667 841 32 739 4 c 5
 739 -136 l 5
 679 -136 l 5
 679 -10 l 5
 641.666666667 -16.6666666667 601 -20 557 -20 c 4
 532.333333333 -20 504 -18.3333333333 472 -15 c 5
 472 -136 l 5
 412 -136 l 5
 412 -6 l 5
 367.333333333 2.66666666667 325.666666667 14.5 287 29.5 c 132
 248.333333333 44.5 212.666666667 63.5 180 86.5 c 132
 147.333333333 109.5 121.5 137.666666667 102.5 171 c 132
 83.5 204.333333333 74 240.666666667 74 280 c 4
220 1132 m 132
 220 1078 235 1033.5 265 998.5 c 132
 295 963.5 344 932.333333333 412 905 c 5
 412 1373 l 5
 353.333333333 1350.33333333 306.666666667 1318 272 1276 c 132
 237.333333333 1234 220 1186 220 1132 c 132
472 34 m 5
 501.333333333 30 530 28 558 28 c 4
 600 28 640.333333333 32.3333333333 679 41 c 5
 679 612 l 5
 472 671 l 5
 472 34 l 5
472 883 m 5
 679 826 l 5
 679 1399 l 5
 648.333333333 1403 618.666666667 1405 590 1405 c 4
 550 1405 510.666666667 1400.33333333 472 1391 c 5
 472 883 l 5
739 58 m 5
 811 82.6666666667 869.5 120.166666667 914.5 170.5 c 132
 959.5 220.833333333 982 281 982 351 c 4
 982 411 963 459 925 495 c 132
 887 531 825 563.666666667 739 593 c 5
 739 58 l 5
EndSplineSet
Fore
SplineSet
74 280 m 4x4b40
 74 333 88 375 116 408 c 4
 144 441 182 458 229 458 c 4
 255 458 278 450 296 436 c 4
 314 422 323 403 323 378 c 4
 323 331 295 296 240 273 c 4
 219 264 206 254 198 244 c 4
 190 234 186 219 186 200 c 4x4b40
 186 167 207 137 250 109 c 4
 293 81 347 60 412 45 c 5
 412 691 l 5
 363 708 321 725 286 744 c 4
 251 763 220 787 192 814 c 4
 164 841 142 874 128 911 c 4
 114 948 106 991 106 1040 c 4
 106 1130 134 1210 189 1279 c 4
 244 1348 319 1398 412 1427 c 5
 412 1544 l 5
 472 1544 l 5
 472 1443 l 5
 512 1450 552 1454 593 1454 c 4x57
 626 1454 654 1453 679 1450 c 5
 679 1544 l 5
 739 1544 l 5
 739 1442 l 5
 832 1425 906 1394 960 1348 c 4
 1014 1302 1042 1247 1042 1182 c 4
 1042 1137 1031 1097 1008 1064 c 4
 985 1031 953 1014 912 1014 c 4
 884 1014 861 1022 844 1037 c 4
 827 1052 818 1070 818 1091 c 4
 818 1130 839 1163 880 1190 c 4
 891 1197 899 1203 904 1208 c 4
 909 1213 914 1220 919 1230 c 4
 924 1240 926 1250 926 1263 c 4x2780
 926 1292 908 1316 873 1338 c 4
 838 1360 793 1377 739 1388 c 5
 739 808 l 5
 862 769 949 722 1000 666 c 4
 1051 610 1076 533 1076 434 c 4
 1076 322 1045 229 984 156 c 4
 923 83 841 32 739 4 c 5
 739 -136 l 5
 679 -136 l 5
 679 -10 l 5
 642 -17 601 -20 557 -20 c 4xa340
 532 -20 504 -18 472 -15 c 5
 472 -136 l 5
 412 -136 l 5
 412 -6 l 5
 367 3 326 15 287 30 c 4
 248 45 213 63 180 86 c 4
 147 109 121 138 102 171 c 4
 83 204 74 241 74 280 c 4x4b40
220 1132 m 4x07
 220 1078 235 1033 265 998 c 4
 295 963 344 932 412 905 c 5
 412 1373 l 5
 353 1350 307 1318 272 1276 c 4
 237 1234 220 1186 220 1132 c 4x07
472 34 m 5
 501 30 530 28 558 28 c 4x83
 600 28 640 32 679 41 c 5
 679 612 l 5
 472 671 l 5
 472 34 l 5
472 883 m 5
 679 826 l 5
 679 1399 l 5
 648 1403 619 1405 590 1405 c 4x13
 550 1405 511 1400 472 1391 c 5
 472 883 l 5
739 58 m 5
 811 83 869 120 914 170 c 4
 959 220 982 281 982 351 c 4x0340
 982 411 963 459 925 495 c 4
 887 531 825 564 739 593 c 5
 739 58 l 5
EndSplineSet
Validated: 1
EndChar

StartChar: percent
Encoding: 264 37 8
Width: 1540
GlyphClass: 2
Flags: W
HStem: -28 36<1120.23 1235.77> 652 36<1120.23 1235.77> 792 36<304.229 419.771> 1472 36<304.229 419.771>
VStem: 80 134<956.772 1343.23> 510 134<956.772 1343.23> 896 134<136.772 523.228> 1326 134<136.772 523.228>
LayerCount: 2
Back
SplineSet
80 1150 m 132
 80 1210.66666667 91.6666666667 1268.33333333 115 1323 c 132
 138.333333333 1377.66666667 172 1422.16666667 216 1456.5 c 132
 260 1490.83333333 308.666666667 1508 362 1508 c 132
 415.333333333 1508 464 1490.83333333 508 1456.5 c 132
 552 1422.16666667 585.666666667 1377.66666667 609 1323 c 132
 632.333333333 1268.33333333 644 1210.66666667 644 1150 c 132
 644 1089.33333333 632.333333333 1031.66666667 609 977 c 132
 585.666666667 922.333333333 552 877.833333333 508 843.5 c 132
 464 809.166666667 415.333333333 792 362 792 c 132
 308.666666667 792 260 809.166666667 216 843.5 c 132
 172 877.833333333 138.333333333 922.333333333 115 977 c 132
 91.6666666667 1031.66666667 80 1089.33333333 80 1150 c 132
214 1150 m 132
 214 1113.33333333 216.166666667 1078.16666667 220.5 1044.5 c 132
 224.833333333 1010.83333333 232 976.666666667 242 942 c 132
 252 907.333333333 267.333333333 879.666666667 288 859 c 132
 308.666666667 838.333333333 333.333333333 828 362 828 c 132
 390.666666667 828 415.333333333 838.333333333 436 859 c 132
 456.666666667 879.666666667 472 907.333333333 482 942 c 132
 492 976.666666667 499.166666667 1010.83333333 503.5 1044.5 c 132
 507.833333333 1078.16666667 510 1113.33333333 510 1150 c 132
 510 1186.66666667 507.833333333 1221.83333333 503.5 1255.5 c 132
 499.166666667 1289.16666667 492 1323.33333333 482 1358 c 132
 472 1392.66666667 456.666666667 1420.33333333 436 1441 c 132
 415.333333333 1461.66666667 390.666666667 1472 362 1472 c 132
 333.333333333 1472 308.666666667 1461.66666667 288 1441 c 132
 267.333333333 1420.33333333 252 1392.66666667 242 1358 c 132
 232 1323.33333333 224.833333333 1289.16666667 220.5 1255.5 c 132
 216.166666667 1221.83333333 214 1186.66666667 214 1150 c 132
279 -16 m 5
 1163 1496 l 5
 1261 1496 l 5
 375 -16 l 5
 279 -16 l 5
896 330 m 132
 896 390.666666667 907.666666667 448.333333333 931 503 c 132
 954.333333333 557.666666667 988 602.166666667 1032 636.5 c 132
 1076 670.833333333 1124.66666667 688 1178 688 c 132
 1231.33333333 688 1280 670.833333333 1324 636.5 c 132
 1368 602.166666667 1401.66666667 557.666666667 1425 503 c 132
 1448.33333333 448.333333333 1460 390.666666667 1460 330 c 132
 1460 269.333333333 1448.33333333 211.666666667 1425 157 c 132
 1401.66666667 102.333333333 1368 57.8333333333 1324 23.5 c 132
 1280 -10.8333333333 1231.33333333 -28 1178 -28 c 132
 1124.66666667 -28 1076 -10.8333333333 1032 23.5 c 132
 988 57.8333333333 954.333333333 102.333333333 931 157 c 132
 907.666666667 211.666666667 896 269.333333333 896 330 c 132
1030 330 m 132
 1030 293.333333333 1032.16666667 258.166666667 1036.5 224.5 c 132
 1040.83333333 190.833333333 1048 156.666666667 1058 122 c 132
 1068 87.3333333333 1083.33333333 59.6666666667 1104 39 c 132
 1124.66666667 18.3333333333 1149.33333333 8 1178 8 c 132
 1206.66666667 8 1231.33333333 18.3333333333 1252 39 c 132
 1272.66666667 59.6666666667 1288 87.3333333333 1298 122 c 132
 1308 156.666666667 1315.16666667 190.833333333 1319.5 224.5 c 132
 1323.83333333 258.166666667 1326 293.333333333 1326 330 c 132
 1326 366.666666667 1323.83333333 401.833333333 1319.5 435.5 c 132
 1315.16666667 469.166666667 1308 503.333333333 1298 538 c 132
 1288 572.666666667 1272.66666667 600.333333333 1252 621 c 132
 1231.33333333 641.666666667 1206.66666667 652 1178 652 c 132
 1149.33333333 652 1124.66666667 641.666666667 1104 621 c 132
 1083.33333333 600.333333333 1068 572.666666667 1058 538 c 132
 1048 503.333333333 1040.83333333 469.166666667 1036.5 435.5 c 132
 1032.16666667 401.833333333 1030 366.666666667 1030 330 c 132
EndSplineSet
Fore
SplineSet
80 1150 m 4
 80 1211 92 1268 115 1323 c 4
 138 1378 172 1422 216 1456 c 4
 260 1490 309 1508 362 1508 c 4
 415 1508 464 1490 508 1456 c 4
 552 1422 586 1378 609 1323 c 4
 632 1268 644 1211 644 1150 c 4
 644 1089 632 1032 609 977 c 4
 586 922 552 878 508 844 c 4
 464 810 415 792 362 792 c 4
 309 792 260 810 216 844 c 4
 172 878 138 922 115 977 c 4
 92 1032 80 1089 80 1150 c 4
214 1150 m 4
 214 1113 216 1078 220 1044 c 4
 224 1010 232 977 242 942 c 4
 252 907 267 880 288 859 c 4
 309 838 333 828 362 828 c 4
 391 828 415 838 436 859 c 4
 457 880 472 907 482 942 c 4
 492 977 500 1010 504 1044 c 4
 508 1078 510 1113 510 1150 c 4
 510 1187 508 1222 504 1256 c 4
 500 1290 492 1323 482 1358 c 4
 472 1393 457 1420 436 1441 c 4
 415 1462 391 1472 362 1472 c 4
 333 1472 309 1462 288 1441 c 4
 267 1420 252 1393 242 1358 c 4
 232 1323 224 1290 220 1256 c 4
 216 1222 214 1187 214 1150 c 4
279 -16 m 5
 1163 1496 l 5
 1261 1496 l 5
 375 -16 l 5
 279 -16 l 5
896 330 m 4
 896 391 908 448 931 503 c 4
 954 558 988 602 1032 636 c 4
 1076 670 1125 688 1178 688 c 4
 1231 688 1280 670 1324 636 c 4
 1368 602 1402 558 1425 503 c 4
 1448 448 1460 391 1460 330 c 4
 1460 269 1448 212 1425 157 c 4
 1402 102 1368 58 1324 24 c 4
 1280 -10 1231 -28 1178 -28 c 4
 1125 -28 1076 -10 1032 24 c 4
 988 58 954 102 931 157 c 4
 908 212 896 269 896 330 c 4
1030 330 m 4
 1030 293 1032 258 1036 224 c 4
 1040 190 1048 157 1058 122 c 4
 1068 87 1083 60 1104 39 c 4
 1125 18 1149 8 1178 8 c 4
 1207 8 1231 18 1252 39 c 4
 1273 60 1288 87 1298 122 c 4
 1308 157 1316 190 1320 224 c 4
 1324 258 1326 293 1326 330 c 4
 1326 367 1324 402 1320 436 c 4
 1316 470 1308 503 1298 538 c 4
 1288 573 1273 600 1252 621 c 4
 1231 642 1207 652 1178 652 c 4
 1149 652 1125 642 1104 621 c 4
 1083 600 1068 573 1058 538 c 4
 1048 503 1040 470 1036 436 c 4
 1032 402 1030 367 1030 330 c 4
EndSplineSet
Validated: 1
EndChar

StartChar: ampersand
Encoding: 265 38 9
Width: 1614
GlyphClass: 2
Flags: W
HStem: -24 106<524.779 818.055> -24 72<1299.3 1553.43> 1470 48<690.339 844.289>
VStem: 122 198<275.917 563.915> 464 152<1099.5 1363.63> 900 72<1174.69 1427.02> 1269 53<785 837>
LayerCount: 2
Back
SplineSet
122 367 m 4
 122 414.333333333 129 460 143 504 c 132
 157 548 176 588 200 624 c 132
 224 660 254.5 695.5 291.5 730.5 c 132
 328.5 765.5 367.166666667 797.5 407.5 826.5 c 132
 447.833333333 855.5 494 885.333333333 546 916 c 5
 491.333333333 1018.66666667 464 1110 464 1190 c 4
 464 1282 493.166666667 1359.66666667 551.5 1423 c 132
 609.833333333 1486.33333333 677.333333333 1518 754 1518 c 132
 830.666666667 1518 886.166666667 1496.83333333 920.5 1454.5 c 132
 954.833333333 1412.16666667 972 1357.66666667 972 1291 c 4
 972 1231.66666667 951.5 1173.5 910.5 1116.5 c 132
 869.5 1059.5 812.333333333 1007.33333333 739 960 c 5
 1098 335 l 5
 1182.66666667 475.666666667 1238.66666667 625.666666667 1266 785 c 5
 1018 785 l 5
 1018 837 l 5
 1582 837 l 5
 1582 785 l 5
 1321 785 l 5
 1281.66666667 590.333333333 1217 423.333333333 1127 284 c 5
 1174.33333333 204 1221.5 144.666666667 1268.5 106 c 132
 1315.5 67.3333333333 1365.33333333 48 1418 48 c 4
 1463.33333333 48 1506.66666667 55.6666666667 1548 71 c 5
 1568 14 l 5
 1490.66666667 -11.3333333333 1418 -24 1350 -24 c 4
 1191.33333333 -24 1074 28.3333333333 998 133 c 5
 876 28.3333333333 739.666666667 -24 589 -24 c 4
 434.333333333 -24 317 16 237 96 c 4
 201.666666667 131.333333333 173.666666667 173.166666667 153 221.5 c 132
 132.333333333 269.833333333 122 318.333333333 122 367 c 4
320 470 m 4
 320 374.666666667 343.333333333 297 390 237 c 4
 470 133.666666667 582.333333333 82 727 82 c 4
 810.333333333 82 889.666666667 115.666666667 965 183 c 5
 575 865 l 5
 489 811.666666667 425 754.333333333 383 693 c 132
 341 631.666666667 320 557.333333333 320 470 c 4
616 1288 m 4
 616 1242 621.5 1202 632.5 1168 c 132
 643.5 1134 661 1096 685 1054 c 6
 709 1013 l 5
 770.333333333 1055.66666667 817.5 1101.66666667 850.5 1151 c 132
 883.5 1200.33333333 900 1249.33333333 900 1298 c 4
 900 1412.66666667 854 1470 762 1470 c 4
 724 1470 690.166666667 1453.5 660.5 1420.5 c 132
 630.833333333 1387.5 616 1343.33333333 616 1288 c 4
EndSplineSet
Fore
SplineSet
1269 837 m 1xbe
 1322 837 l 1
 1321 785 l 1
 1282 590 1217 423 1127 284 c 1
 1174 204 1221 145 1268 106 c 0
 1315 67 1365 48 1418 48 c 0
 1463 48 1507 56 1548 71 c 1
 1568 14 l 1
 1491 -11 1418 -24 1350 -24 c 0x7e
 1191 -24 1074 28 998 133 c 1
 876 28 740 -24 589 -24 c 0
 434 -24 317 16 237 96 c 0
 202 131 174 174 153 222 c 0
 132 270 122 318 122 367 c 0
 122 414 129 460 143 504 c 0
 157 548 176 588 200 624 c 0
 224 660 255 695 292 730 c 0
 329 765 368 797 408 826 c 0
 448 855 494 885 546 916 c 1
 491 1019 464 1110 464 1190 c 0
 464 1282 494 1360 552 1423 c 0
 610 1486 677 1518 754 1518 c 0
 831 1518 886 1496 920 1454 c 0
 954 1412 972 1358 972 1291 c 0
 972 1232 951 1173 910 1116 c 0
 869 1059 812 1007 739 960 c 1
 1098 335 l 1
 1183 476 1239 626 1266 785 c 1
 1269 837 l 1xbe
320 470 m 0
 320 375 343 297 390 237 c 0
 470 134 582 82 727 82 c 0xbe
 810 82 890 116 965 183 c 1
 575 865 l 1
 489 812 425 754 383 693 c 0
 341 632 320 557 320 470 c 0
616 1288 m 0
 616 1242 621 1202 632 1168 c 0
 643 1134 661 1096 685 1054 c 2
 709 1013 l 1
 770 1056 817 1102 850 1151 c 0
 883 1200 900 1249 900 1298 c 0
 900 1413 854 1470 762 1470 c 0
 724 1470 690 1453 660 1420 c 0
 630 1387 616 1343 616 1288 c 0
EndSplineSet
Validated: 1
EndChar

StartChar: quotesingle
Encoding: 266 39 10
Width: 528
GlyphClass: 2
Flags: W
HStem: 854 664<236 292>
VStem: 170 188<1020.88 1487.06>
LayerCount: 2
Back
SplineSet
170 1412 m 4
 170 1442.66666667 178.333333333 1468 195 1488 c 132
 211.666666667 1508 234.666666667 1518 264 1518 c 132
 293.333333333 1518 316.333333333 1508 333 1488 c 132
 349.666666667 1468 358 1442.66666667 358 1412 c 4
 358 1391.33333333 354.666666667 1353.66666667 348 1299 c 6
 292 854 l 5
 236 854 l 5
 180 1299 l 6
 173.333333333 1354.33333333 170 1392 170 1412 c 4
EndSplineSet
Fore
SplineSet
170 1412 m 4
 170 1443 178 1468 195 1488 c 4
 212 1508 235 1518 264 1518 c 4
 293 1518 316 1508 333 1488 c 4
 350 1468 358 1443 358 1412 c 4
 358 1391 355 1354 348 1299 c 6
 292 854 l 5
 236 854 l 5
 180 1299 l 6
 173 1354 170 1392 170 1412 c 4
EndSplineSet
Validated: 1
EndChar

StartChar: parenleft
Encoding: 267 40 11
Width: 660
GlyphClass: 2
Flags: W
VStem: 144 152<133.547 842.453>
LayerCount: 2
Back
SplineSet
144 488 m 132
 144 651.333333333 174.333333333 822.333333333 235 1001 c 132
 295.666666667 1179.66666667 382 1350 494 1512 c 5
 534 1484 l 5
 448 1322.66666667 386.833333333 1168.16666667 350.5 1020.5 c 132
 314.166666667 872.833333333 296 695.333333333 296 488 c 132
 296 280.666666667 314.166666667 103.166666667 350.5 -44.5 c 132
 386.833333333 -192.166666667 448 -346.666666667 534 -508 c 5
 494 -536 l 5
 382 -374 295.666666667 -203.666666667 235 -25 c 132
 174.333333333 153.666666667 144 324.666666667 144 488 c 132
EndSplineSet
Fore
SplineSet
144 488 m 4
 144 651 174 822 235 1001 c 4
 296 1180 382 1350 494 1512 c 5
 534 1484 l 5
 448 1323 386 1168 350 1020 c 4
 314 872 296 695 296 488 c 4
 296 281 314 104 350 -44 c 4
 386 -192 448 -347 534 -508 c 5
 494 -536 l 5
 382 -374 296 -204 235 -25 c 4
 174 154 144 325 144 488 c 4
EndSplineSet
Validated: 1
EndChar

StartChar: parenright
Encoding: 268 41 12
Width: 660
GlyphClass: 2
Flags: W
VStem: 364 152<133.547 842.453>
LayerCount: 2
Back
SplineSet
126 -508 m 5
 212 -346.666666667 273.166666667 -192.166666667 309.5 -44.5 c 132
 345.833333333 103.166666667 364 280.666666667 364 488 c 132
 364 695.333333333 345.833333333 872.833333333 309.5 1020.5 c 132
 273.166666667 1168.16666667 212 1322.66666667 126 1484 c 5
 166 1512 l 5
 278 1350 364.333333333 1179.66666667 425 1001 c 132
 485.666666667 822.333333333 516 651.333333333 516 488 c 132
 516 324.666666667 485.666666667 153.666666667 425 -25 c 132
 364.333333333 -203.666666667 278 -374 166 -536 c 5
 126 -508 l 5
EndSplineSet
Fore
SplineSet
126 -508 m 5
 212 -347 274 -192 310 -44 c 4
 346 104 364 281 364 488 c 4
 364 695 346 872 310 1020 c 4
 274 1168 212 1323 126 1484 c 5
 166 1512 l 5
 278 1350 364 1180 425 1001 c 4
 486 822 516 651 516 488 c 4
 516 325 486 154 425 -25 c 4
 364 -204 278 -374 166 -536 c 5
 126 -508 l 5
EndSplineSet
Validated: 1
EndChar

StartChar: asterisk
Encoding: 269 42 13
Width: 1104
GlyphClass: 2
Flags: W
HStem: 801 185<174.238 316.582 787.418 929.762> 1008 118<482.36 521.859 582.141 621.64> 1148 185<174.238 316.582 787.418 929.762>
VStem: 468 168<643.847 861.034 1024.38 1109.62 1272.97 1490.15> 526 52<820.011 1001.81 1132.19 1313.99>
CounterMasks: 1 e0
LayerCount: 2
Back
SplineSet
148 882 m 4
 148 938 197.333333333 972.666666667 296 986 c 4
 350.666666667 993.333333333 405.333333333 1012.33333333 460 1043 c 5
 474.666666667 1050.33333333 482 1058.33333333 482 1067 c 4
 482 1071 480.166666667 1075 476.5 1079 c 132
 472.833333333 1083 469.333333333 1086 466 1088 c 6
 460 1091 l 5
 405.333333333 1121.66666667 350.666666667 1140.66666667 296 1148 c 4
 197.333333333 1161.33333333 148 1196 148 1252 c 4
 148 1272.66666667 155.5 1291.33333333 170.5 1308 c 132
 185.5 1324.66666667 205.333333333 1333 230 1333 c 4
 252.666666667 1333 273.333333333 1326 292 1312 c 132
 310.666666667 1298 331 1276.33333333 353 1247 c 5
 383.666666667 1208.33333333 425 1172.66666667 477 1140 c 5
 490.333333333 1130.66666667 500.666666667 1126 508 1126 c 4
 514.666666667 1126 519.333333333 1128.16666667 522 1132.5 c 132
 524.666666667 1136.83333333 526 1145.66666667 526 1159 c 4
 526 1219 515.666666667 1275.66666667 495 1329 c 5
 477 1370.33333333 468 1401.66666667 468 1423 c 4
 468 1450.33333333 475.5 1473 490.5 1491 c 132
 505.5 1509 526 1518 552 1518 c 132
 578 1518 598.5 1509 613.5 1491 c 132
 628.5 1473 636 1450.33333333 636 1423 c 4
 636 1401.66666667 627 1370.33333333 609 1329 c 5
 588.333333333 1275.66666667 578 1219 578 1159 c 4
 578 1145.66666667 579.333333333 1136.83333333 582 1132.5 c 132
 584.666666667 1128.16666667 589.333333333 1126 596 1126 c 4
 603.333333333 1126 613.666666667 1130.66666667 627 1140 c 5
 679 1172.66666667 720.333333333 1208.33333333 751 1247 c 5
 773 1276.33333333 793.333333333 1298 812 1312 c 132
 830.666666667 1326 851.333333333 1333 874 1333 c 4
 898.666666667 1333 918.5 1324.66666667 933.5 1308 c 132
 948.5 1291.33333333 956 1272.66666667 956 1252 c 4
 956 1196 906.666666667 1161.33333333 808 1148 c 4
 753.333333333 1140.66666667 698.666666667 1121.66666667 644 1091 c 5
 629.333333333 1083.66666667 622 1075.66666667 622 1067 c 4
 622 1063 623.833333333 1059 627.5 1055 c 132
 631.166666667 1051 634.666666667 1048 638 1046 c 6
 644 1043 l 5
 698.666666667 1012.33333333 753.333333333 993.333333333 808 986 c 4
 906.666666667 972.666666667 956 938 956 882 c 4
 956 861.333333333 948.5 842.666666667 933.5 826 c 132
 918.5 809.333333333 898.666666667 801 874 801 c 4
 851.333333333 801 830.666666667 808 812 822 c 132
 793.333333333 836 773 857.666666667 751 887 c 5
 720.333333333 925.666666667 679 961.333333333 627 994 c 5
 613.666666667 1003.33333333 603.333333333 1008 596 1008 c 4
 589.333333333 1008 584.666666667 1005.83333333 582 1001.5 c 132
 579.333333333 997.166666667 578 988.333333333 578 975 c 4
 578 915 588.333333333 858.333333333 609 805 c 5
 627 763.666666667 636 732.333333333 636 711 c 4
 636 683.666666667 628.5 661 613.5 643 c 132
 598.5 625 578 616 552 616 c 132
 526 616 505.5 625 490.5 643 c 132
 475.5 661 468 683.666666667 468 711 c 4
 468 732.333333333 477 763.666666667 495 805 c 5
 515.666666667 858.333333333 526 915 526 975 c 4
 526 988.333333333 524.666666667 997.166666667 522 1001.5 c 132
 519.333333333 1005.83333333 514.666666667 1008 508 1008 c 4
 500.666666667 1008 490.333333333 1003.33333333 477 994 c 5
 425 961.333333333 383.666666667 925.666666667 353 887 c 5
 331 857.666666667 310.666666667 836 292 822 c 132
 273.333333333 808 252.666666667 801 230 801 c 4
 205.333333333 801 185.5 809.333333333 170.5 826 c 132
 155.5 842.666666667 148 861.333333333 148 882 c 4
EndSplineSet
Fore
SplineSet
148 882 m 4xe8
 148 938 197 973 296 986 c 4
 351 993 405 1012 460 1043 c 5
 475 1050 482 1058 482 1067 c 4
 482 1071 480 1075 476 1079 c 4
 472 1083 469 1086 466 1088 c 6
 460 1091 l 5
 405 1122 351 1141 296 1148 c 4
 197 1161 148 1196 148 1252 c 4
 148 1273 155 1291 170 1308 c 4
 185 1325 205 1333 230 1333 c 4
 253 1333 273 1326 292 1312 c 4
 311 1298 331 1276 353 1247 c 5
 384 1208 425 1173 477 1140 c 5
 490 1131 501 1126 508 1126 c 4
 515 1126 519 1128 522 1132 c 4
 525 1136 526 1146 526 1159 c 4xe8
 526 1219 516 1276 495 1329 c 5
 477 1370 468 1402 468 1423 c 4
 468 1450 475 1473 490 1491 c 4
 505 1509 526 1518 552 1518 c 4
 578 1518 599 1509 614 1491 c 4
 629 1473 636 1450 636 1423 c 4xf0
 636 1402 627 1370 609 1329 c 5
 588 1276 578 1219 578 1159 c 4
 578 1146 579 1136 582 1132 c 4
 585 1128 589 1126 596 1126 c 4
 603 1126 614 1131 627 1140 c 5
 679 1173 720 1208 751 1247 c 5
 773 1276 793 1298 812 1312 c 4
 831 1326 851 1333 874 1333 c 4
 899 1333 919 1325 934 1308 c 4
 949 1291 956 1273 956 1252 c 4
 956 1196 907 1161 808 1148 c 4
 753 1141 699 1122 644 1091 c 5
 629 1084 622 1076 622 1067 c 4
 622 1063 624 1059 628 1055 c 4
 632 1051 635 1048 638 1046 c 6
 644 1043 l 5
 699 1012 753 993 808 986 c 4
 907 973 956 938 956 882 c 4
 956 861 949 843 934 826 c 4
 919 809 899 801 874 801 c 4
 851 801 831 808 812 822 c 4
 793 836 773 858 751 887 c 5
 720 926 679 961 627 994 c 5
 614 1003 603 1008 596 1008 c 4
 589 1008 585 1006 582 1002 c 4
 579 998 578 988 578 975 c 4xe8
 578 915 588 858 609 805 c 5
 627 764 636 732 636 711 c 4
 636 684 629 661 614 643 c 4
 599 625 578 616 552 616 c 4
 526 616 505 625 490 643 c 4
 475 661 468 684 468 711 c 4xf0
 468 732 477 764 495 805 c 5
 516 858 526 915 526 975 c 4
 526 988 525 998 522 1002 c 4
 519 1006 515 1008 508 1008 c 4
 501 1008 490 1003 477 994 c 5
 425 961 384 926 353 887 c 5
 331 858 311 836 292 822 c 4
 273 808 253 801 230 801 c 4
 205 801 185 809 170 826 c 4
 155 843 148 861 148 882 c 4xe8
EndSplineSet
Validated: 1
EndChar

StartChar: plus
Encoding: 270 43 14
Width: 1152
GlyphClass: 2
Flags: W
HStem: 0 21G<522 630> 466 96<62 522 630 1090>
VStem: 522 108<0 466 562 1028>
LayerCount: 2
Back
SplineSet
62 466 m 5
 62 562 l 5
 522 562 l 5
 522 1028 l 5
 630 1028 l 5
 630 562 l 5
 1090 562 l 5
 1090 466 l 5
 630 466 l 5
 630 0 l 5
 522 0 l 5
 522 466 l 5
 62 466 l 5
EndSplineSet
Fore
SplineSet
62 466 m 5
 62 562 l 5
 522 562 l 5
 522 1028 l 5
 630 1028 l 5
 630 562 l 5
 1090 562 l 5
 1090 466 l 5
 630 466 l 5
 630 0 l 5
 522 0 l 5
 522 466 l 5
 62 466 l 5
EndSplineSet
Validated: 1
EndChar

StartChar: comma
Encoding: 271 44 15
Width: 528
GlyphClass: 2
Flags: W
HStem: 26 220<168.081 327.262>
VStem: 328 80<-106.229 92>
LayerCount: 2
Back
SplineSet
102 -390 m 5
 148 -349.333333333 189.166666667 -305.166666667 225.5 -257.5 c 132
 261.833333333 -209.833333333 289.333333333 -165.333333333 308 -124 c 4
 321.333333333 -94 328 -61.6666666667 328 -27 c 4
 328 8.33333333333 300 26 244 26 c 4
 214 26 188 33.8333333333 166 49.5 c 132
 144 65.1666666667 133 90.6666666667 133 126 c 132
 133 161.333333333 144.333333333 190.166666667 167 212.5 c 132
 189.666666667 234.833333333 216.666666667 246 248 246 c 4
 303.333333333 246 343.833333333 228.666666667 369.5 194 c 132
 395.166666667 159.333333333 408 117 408 67 c 4
 408 -6.33333333333 383.833333333 -86.8333333333 335.5 -174.5 c 132
 287.166666667 -262.166666667 219.666666667 -345.333333333 133 -424 c 5
 102 -390 l 5
EndSplineSet
Fore
SplineSet
102 -390 m 5
 148 -349 190 -306 226 -258 c 4
 262 -210 289 -165 308 -124 c 4
 321 -94 328 -62 328 -27 c 4
 328 8 300 26 244 26 c 4
 214 26 188 34 166 50 c 4
 144 66 133 91 133 126 c 4
 133 161 144 190 167 212 c 4
 190 234 217 246 248 246 c 4
 303 246 344 229 370 194 c 4
 396 159 408 117 408 67 c 4
 408 -6 384 -86 336 -174 c 4
 288 -262 220 -345 133 -424 c 5
 102 -390 l 5
EndSplineSet
Validated: 1
EndChar

StartChar: hyphen
Encoding: 272 45 16
Width: 900
GlyphClass: 2
Flags: W
HStem: 346 132<136 764>
VStem: 136 628<346 478>
LayerCount: 2
Back
SplineSet
136 346 m 5
 136 478 l 5
 764 478 l 5
 764 346 l 5
 136 346 l 5
EndSplineSet
Fore
SplineSet
136 346 m 5
 136 478 l 5
 764 478 l 5
 764 346 l 5
 136 346 l 5
EndSplineSet
Validated: 1
EndChar

StartChar: period
Encoding: 273 46 17
Width: 528
GlyphClass: 2
Flags: W
HStem: -24 256<174.176 353.824>
VStem: 136 256<14.1755 193.824>
LayerCount: 2
Back
SplineSet
136 104 m 132
 136 140 148.333333333 170.333333333 173 195 c 132
 197.666666667 219.666666667 228 232 264 232 c 132
 300 232 330.333333333 219.666666667 355 195 c 132
 379.666666667 170.333333333 392 140 392 104 c 132
 392 68 379.666666667 37.6666666667 355 13 c 132
 330.333333333 -11.6666666667 300 -24 264 -24 c 132
 228 -24 197.666666667 -11.6666666667 173 13 c 132
 148.333333333 37.6666666667 136 68 136 104 c 132
EndSplineSet
Fore
SplineSet
136 104 m 4
 136 140 148 170 173 195 c 4
 198 220 228 232 264 232 c 4
 300 232 330 220 355 195 c 4
 380 170 392 140 392 104 c 4
 392 68 380 38 355 13 c 4
 330 -12 300 -24 264 -24 c 4
 228 -24 198 -12 173 13 c 4
 148 38 136 68 136 104 c 4
EndSplineSet
Validated: 1
EndChar

StartChar: slash
Encoding: 274 47 18
Width: 722
GlyphClass: 2
Flags: W
HStem: 1414 20G<535.292 642>
VStem: 80 562
LayerCount: 2
Back
SplineSet
80 -520 m 5
 540 1434 l 5
 642 1434 l 5
 182 -520 l 5
 80 -520 l 5
EndSplineSet
Fore
SplineSet
80 -520 m 5
 540 1434 l 5
 642 1434 l 5
 182 -520 l 5
 80 -520 l 5
EndSplineSet
Validated: 1
EndChar

StartChar: zero
Encoding: 275 48 19
Width: 1152
GlyphClass: 2
Flags: W
HStem: -16 48<469.636 682.364> 1402 48<477.556 674.822>
VStem: 96 208<418.734 989.633> 848 208<416.831 989.794>
LayerCount: 2
Back
SplineSet
96 700 m 4
 96 764 103 830.5 117 899.5 c 132
 131 968.5 151.833333333 1035.66666667 179.5 1101 c 132
 207.166666667 1166.33333333 239.833333333 1225 277.5 1277 c 132
 315.166666667 1329 360 1370.83333333 412 1402.5 c 132
 464 1434.16666667 518.666666667 1450 576 1450 c 132
 633.333333333 1450 688 1434.16666667 740 1402.5 c 132
 792 1370.83333333 836.833333333 1329 874.5 1277 c 132
 912.166666667 1225 944.833333333 1166.33333333 972.5 1101 c 132
 1000.16666667 1035.66666667 1021 968.5 1035 899.5 c 132
 1049 830.5 1056 764 1056 700 c 4
 1056 619.333333333 1044.83333333 537.333333333 1022.5 454 c 132
 1000.16666667 370.666666667 969 293.833333333 929 223.5 c 132
 889 153.166666667 838 95.6666666667 776 51 c 132
 714 6.33333333333 647.333333333 -16 576 -16 c 132
 504.666666667 -16 438 6.33333333333 376 51 c 132
 314 95.6666666667 263.166666667 153.166666667 223.5 223.5 c 132
 183.833333333 293.833333333 152.666666667 370.666666667 130 454 c 132
 107.333333333 537.333333333 96 619.333333333 96 700 c 4
304 700 m 4
 304 534 313.166666667 402.666666667 331.5 306 c 132
 349.833333333 209.333333333 378.5 139.5 417.5 96.5 c 132
 456.5 53.5 509.333333333 32 576 32 c 132
 642.666666667 32 695.5 53.5 734.5 96.5 c 132
 773.5 139.5 802.166666667 209.333333333 820.5 306 c 132
 838.833333333 402.666666667 848 534 848 700 c 4
 848 949.333333333 827.166666667 1128.66666667 785.5 1238 c 132
 743.833333333 1347.33333333 674 1402 576 1402 c 4
 478.666666667 1402 409 1347.16666667 367 1237.5 c 132
 325 1127.83333333 304 948.666666667 304 700 c 4
EndSplineSet
Fore
SplineSet
96 700 m 0
 96 764 103 831 117 900 c 0
 131 969 152 1036 180 1101 c 0
 208 1166 240 1225 278 1277 c 0
 316 1329 360 1370 412 1402 c 0
 464 1434 519 1450 576 1450 c 0
 633 1450 688 1434 740 1402 c 0
 792 1370 836 1329 874 1277 c 0
 912 1225 944 1166 972 1101 c 0
 1000 1036 1021 969 1035 900 c 0
 1049 831 1056 764 1056 700 c 0
 1056 619 1044 537 1022 454 c 0
 1000 371 969 294 929 224 c 0
 889 154 838 96 776 51 c 0
 714 6 647 -16 576 -16 c 0
 505 -16 438 6 376 51 c 0
 314 96 264 154 224 224 c 0
 184 294 153 371 130 454 c 0
 107 537 96 619 96 700 c 0
304 700 m 0
 304 534 314 403 332 306 c 0
 350 209 379 139 418 96 c 0
 457 53 509 32 576 32 c 0
 643 32 695 53 734 96 c 0
 773 139 802 209 820 306 c 0
 838 403 848 534 848 700 c 0
 848 949 828 1129 786 1238 c 0
 744 1347 674 1402 576 1402 c 0
 479 1402 409 1348 367 1238 c 0
 325 1128 304 949 304 700 c 0
EndSplineSet
Validated: 1
AlternateSubs2: "'aalt' Access All Alternates-1" zerooldstyle
Substitution2: "'onum' Oldstyle Figures-1" zerooldstyle
EndChar

StartChar: one
Encoding: 276 49 20
Width: 1152
GlyphClass: 2
Flags: W
HStem: 0 21G<522 706> 1426 20G<636.5 706>
VStem: 522 184<0 1185>
LayerCount: 2
Back
SplineSet
212 1106 m 5
 279.333333333 1130 337.833333333 1155.83333333 387.5 1183.5 c 132
 437.166666667 1211.16666667 485.333333333 1247 532 1291 c 132
 578.666666667 1335 619.333333333 1386.66666667 654 1446 c 5
 706 1446 l 5
 706 48 l 5
 970 48 l 5
 970 0 l 5
 258 0 l 5
 258 48 l 5
 522 48 l 5
 522 1185 l 5
 514 1188 l 5
 438 1135.33333333 344.333333333 1089.66666667 233 1051 c 5
 212 1106 l 5
EndSplineSet
Fore
SplineSet
212 1106 m 1
 279 1130 338 1156 388 1184 c 0
 438 1212 485 1247 532 1291 c 0
 579 1335 619 1387 654 1446 c 1
 706 1446 l 1
 706 964 706 482 706 0 c 1
 522 0 l 1
 522 395 522 790 522 1185 c 1
 514 1188 l 1
 438 1135 344 1090 233 1051 c 1
 212 1106 l 1
EndSplineSet
Validated: 1
AlternateSubs2: "'aalt' Access All Alternates-1" onesuperior oneoldstyle
Substitution2: "'sups' Superscript Forms-1" onesuperior
Substitution2: "'onum' Oldstyle Figures-1" oneoldstyle
EndChar

StartChar: two
Encoding: 277 50 21
Width: 1152
GlyphClass: 2
Flags: W
HStem: 0 176<364 946> 1386 64<354.334 619.708>
VStem: 114 56<1027 1177.33> 775 208<838.03 1224.92>
LayerCount: 2
Back
SplineSet
114 1026 m 4
 114 1146 151.166666667 1246.66666667 225.5 1328 c 132
 299.833333333 1409.33333333 399.333333333 1450 524 1450 c 4
 598.666666667 1450 665.833333333 1438.66666667 725.5 1416 c 132
 785.166666667 1393.33333333 833.333333333 1362.5 870 1323.5 c 132
 906.666666667 1284.5 934.666666667 1240.16666667 954 1190.5 c 132
 973.333333333 1140.83333333 983 1088 983 1032 c 4
 983 973.333333333 970 912.166666667 944 848.5 c 132
 918 784.833333333 885.833333333 726.166666667 847.5 672.5 c 132
 809.166666667 618.833333333 760 561.333333333 700 500 c 132
 640 438.666666667 584.666666667 386 534 342 c 132
 483.333333333 298 424 248.666666667 356 194 c 5
 364 176 l 5
 762 176 l 6
 830 176 879.666666667 196.666666667 911 238 c 4
 940.333333333 276 960.666666667 326 972 388 c 5
 1020 380 l 5
 946 0 l 5
 116 0 l 5
 116 48 l 5
 258.666666667 164.666666667 386 286.666666667 498 414 c 4
 682.666666667 624 775 836 775 1050 c 4
 775 1150.66666667 749 1231.83333333 697 1293.5 c 132
 645 1355.16666667 568.666666667 1386 468 1386 c 4
 408.666666667 1386 356 1368.66666667 310 1334 c 132
 264 1299.33333333 229.166666667 1255 205.5 1201 c 132
 181.833333333 1147 170 1089 170 1027 c 4
 170 990.333333333 178.333333333 964.166666667 195 948.5 c 132
 211.666666667 932.833333333 229.666666667 925 249 925 c 4
 276.333333333 925 300 936.666666667 320 960 c 4
 344.666666667 989.333333333 369.666666667 1004 395 1004 c 4
 423 1004 445.333333333 995.666666667 462 979 c 132
 478.666666667 962.333333333 487 939.666666667 487 911 c 4
 487 870.333333333 472.666666667 835.5 444 806.5 c 132
 415.333333333 777.5 380.666666667 763 340 763 c 4
 276 763 222.333333333 785.833333333 179 831.5 c 132
 135.666666667 877.166666667 114 942 114 1026 c 4
EndSplineSet
Fore
SplineSet
114 1026 m 0
 114 1146 152 1247 226 1328 c 0
 300 1409 399 1450 524 1450 c 0
 599 1450 666 1439 726 1416 c 0
 786 1393 833 1363 870 1324 c 0
 907 1285 935 1240 954 1190 c 0
 973 1140 983 1088 983 1032 c 0
 983 973 970 912 944 848 c 0
 918 784 886 726 848 672 c 0
 810 618 760 561 700 500 c 0
 640 439 585 386 534 342 c 0
 483 298 424 249 356 194 c 1
 364 176 l 1
 981 177 l 1
 946 0 l 1
 116 0 l 1
 116 48 l 1
 259 165 386 287 498 414 c 0
 683 624 775 836 775 1050 c 0
 775 1151 749 1232 697 1294 c 0
 645 1356 569 1386 468 1386 c 0
 409 1386 356 1369 310 1334 c 0
 264 1299 230 1255 206 1201 c 0
 182 1147 170 1089 170 1027 c 0
 114 1026 l 0
EndSplineSet
Validated: 1
AlternateSubs2: "'aalt' Access All Alternates-1" twosuperior twooldstyle
Substitution2: "'sups' Superscript Forms-1" twosuperior
Substitution2: "'onum' Oldstyle Figures-1" twooldstyle
EndChar

StartChar: three
Encoding: 278 51 22
Width: 1152
GlyphClass: 2
Flags: W
HStem: -16 48<362.439 622.97> 705 49<362.489 462.293> 1402 48<411.389 629.288>
VStem: 112 73<170.386 297> 194 60<1167 1254.72> 762 184<954.854 1281.79> 806 204<217.358 589.216>
LayerCount: 2
Back
SplineSet
112 297 m 4
 112 347 128.666666667 389.333333333 162 424 c 132
 195.333333333 458.666666667 232.666666667 476 274 476 c 4
 306.666666667 476 333.166666667 466.333333333 353.5 447 c 132
 373.833333333 427.666666667 384 401.666666667 384 369 c 4
 384 339.666666667 377.833333333 316.166666667 365.5 298.5 c 132
 353.166666667 280.833333333 332.666666667 264 304 248 c 4
 290.666666667 240.666666667 280.333333333 234.333333333 273 229 c 132
 265.666666667 223.666666667 258.333333333 215.666666667 251 205 c 132
 243.666666667 194.333333333 240 182.666666667 240 170 c 4
 240 137.333333333 266 106.166666667 318 76.5 c 132
 370 46.8333333333 433.333333333 32 508 32 c 4
 574 32 630.166666667 50.5 676.5 87.5 c 132
 722.833333333 124.5 756 170.666666667 776 226 c 132
 796 281.333333333 806 342.666666667 806 410 c 4
 806 512.666666667 783.333333333 593.333333333 738 652 c 132
 692.666666667 710.666666667 632.333333333 740 557 740 c 4
 528.333333333 740 464.666666667 728.333333333 366 705 c 5
 354 754 l 5
 437.333333333 770.666666667 503.666666667 786.666666667 553 802 c 4
 620.333333333 823.333333333 672 863 708 921 c 132
 744 979 762 1048.33333333 762 1129 c 4
 762 1215.66666667 739.5 1282.83333333 694.5 1330.5 c 132
 649.5 1378.16666667 593 1402 525 1402 c 4
 469.666666667 1402 422 1389.5 382 1364.5 c 132
 342 1339.5 322 1310 322 1276 c 4
 322 1262.66666667 325.5 1252 332.5 1244 c 132
 339.5 1236 351 1228 367 1220 c 4
 403.666666667 1201.33333333 422 1171.33333333 422 1130 c 4
 422 1101.33333333 412.666666667 1077.5 394 1058.5 c 132
 375.333333333 1039.5 351.333333333 1030 322 1030 c 4
 284.666666667 1030 254 1042.5 230 1067.5 c 132
 206 1092.5 194 1125.66666667 194 1167 c 4
 194 1198.33333333 202.833333333 1230.5 220.5 1263.5 c 132
 238.166666667 1296.5 262 1327 292 1355 c 132
 322 1383 359.666666667 1405.83333333 405 1423.5 c 132
 450.333333333 1441.16666667 498 1450 548 1450 c 4
 611.333333333 1450 668.833333333 1441 720.5 1423 c 132
 772.166666667 1405 814.166666667 1380.66666667 846.5 1350 c 132
 878.833333333 1319.33333333 903.5 1284.66666667 920.5 1246 c 132
 937.5 1207.33333333 946 1166.66666667 946 1124 c 4
 946 1078 938.5 1036.33333333 923.5 999 c 132
 908.5 961.666666667 887.166666667 929.833333333 859.5 903.5 c 132
 831.833333333 877.166666667 802.833333333 855.166666667 772.5 837.5 c 132
 742.166666667 819.833333333 707.333333333 803.333333333 668 788 c 5
 672 772 l 5
 774 755.333333333 855.833333333 715.333333333 917.5 652 c 132
 979.166666667 588.666666667 1010 508.666666667 1010 412 c 4
 1010 322 987.5 244 942.5 178 c 132
 897.5 112 838.666666667 63.1666666667 766 31.5 c 132
 693.333333333 -0.166666666667 612 -16 522 -16 c 4
 445.333333333 -16 376.666666667 -4.66666666667 316 18 c 132
 255.333333333 40.6666666667 206.166666667 76 168.5 124 c 132
 130.833333333 172 112 229.666666667 112 297 c 4
EndSplineSet
Fore
SplineSet
194 1167 m 0xfc
 194 1198 202 1231 220 1264 c 0
 238 1297 262 1327 292 1355 c 0
 322 1383 360 1406 405 1424 c 0
 450 1442 498 1450 548 1450 c 0
 611 1450 668 1441 720 1423 c 0
 772 1405 814 1381 846 1350 c 0
 878 1319 903 1285 920 1246 c 0
 937 1207 946 1167 946 1124 c 0xfc
 946 1078 939 1036 924 999 c 0
 909 962 888 930 860 904 c 0
 832 878 802 856 772 838 c 0
 742 820 707 803 668 788 c 1
 672 772 l 1
 774 755 856 715 918 652 c 0
 980 589 1010 509 1010 412 c 0
 1010 322 987 244 942 178 c 0
 897 112 839 64 766 32 c 0
 693 0 612 -16 522 -16 c 0
 445 -16 377 -5 316 18 c 0
 255 41 206 76 168 124 c 0
 130 172 112 230 112 297 c 0
 185 297 l 0
 185 268 196 230 201 215 c 0
 214 174 246 116 318 76 c 0
 370 47 433 32 508 32 c 0
 574 32 630 51 676 88 c 0
 722 125 756 171 776 226 c 0
 796 281 806 343 806 410 c 0xfa
 806 513 783 593 738 652 c 0
 693 711 632 740 557 740 c 0
 528 740 465 728 366 705 c 1
 354 754 l 1
 437 771 504 787 553 802 c 0
 620 823 672 863 708 921 c 0
 744 979 762 1048 762 1129 c 0
 762 1216 739 1282 694 1330 c 0
 649 1378 593 1402 525 1402 c 0
 470 1402 422 1389 382 1364 c 0
 342 1339 300 1290 290 1268 c 0
 278 1242 254 1206 254 1167 c 0
 194 1167 l 0xfc
EndSplineSet
Validated: 1
AlternateSubs2: "'aalt' Access All Alternates-1" threesuperior threeoldstyle
Substitution2: "'sups' Superscript Forms-1" threesuperior
Substitution2: "'onum' Oldstyle Figures-1" threeoldstyle
EndChar

StartChar: four
Encoding: 279 52 23
Width: 1152
GlyphClass: 2
Flags: W
HStem: 0 21G<627 812> 459 48<168 628 812 1042>
VStem: 94 74<507 541.688> 628 184<0 459 507 821 1268.08 1492.64>
LayerCount: 2
Back
SplineSet
94 459 m 5
 94 515 l 5
 165.333333333 573 221.833333333 624.166666667 263.5 668.5 c 132
 305.166666667 712.833333333 350 771.333333333 398 844 c 4
 494.666666667 989.333333333 560.666666667 1149.66666667 596 1325 c 4
 600.666666667 1349 604.833333333 1368.16666667 608.5 1382.5 c 132
 612.166666667 1396.83333333 617.5 1413 624.5 1431 c 132
 631.5 1449 639.166666667 1462.83333333 647.5 1472.5 c 132
 655.833333333 1482.16666667 666.666666667 1490.33333333 680 1497 c 132
 693.333333333 1503.66666667 708.666666667 1507 726 1507 c 4
 778 1507 804 1478 804 1420 c 4
 804 1366 781.666666667 1291 737 1195 c 132
 692.333333333 1099 638 1010 574 928 c 4
 466.666666667 790 331.333333333 652.666666667 168 516 c 5
 168 507 l 5
 628 507 l 5
 628 821 l 5
 796 985 l 5
 812 985 l 5
 812 507 l 5
 1042 507 l 5
 1042 459 l 5
 812 459 l 5
 812 48 l 5
 1004 48 l 5
 1004 0 l 5
 436 0 l 5
 436 48 l 5
 628 48 l 5
 628 459 l 5
 94 459 l 5
EndSplineSet
Fore
SplineSet
94 459 m 1
 94 515 l 1
 165 573 222 624 264 668 c 0
 306 712 350 771 398 844 c 0
 495 989 561 1150 596 1325 c 0
 601 1349 604 1368 608 1382 c 0
 612 1396 617 1413 624 1431 c 0
 631 1449 640 1462 648 1472 c 0
 656 1482 667 1490 680 1497 c 0
 693 1504 709 1507 726 1507 c 0
 778 1507 804 1478 804 1420 c 0
 804 1366 782 1291 737 1195 c 0
 692 1099 638 1010 574 928 c 0
 467 790 331 653 168 516 c 1
 168 507 l 1
 628 507 l 1
 628 821 l 1
 796 985 l 1
 812 985 l 1
 812 507 l 1
 1042 507 l 1
 1042 459 l 1
 812 459 l 1
 812 48 l 1
 812 0 l 1
 627 0 l 5
 627 48 l 5
 628 48 l 1
 628 459 l 1
 94 459 l 1
EndSplineSet
Validated: 1
AlternateSubs2: "'aalt' Access All Alternates-1" foursuperior fouroldstyle
Substitution2: "'sups' Superscript Forms-1" foursuperior
Substitution2: "'onum' Oldstyle Figures-1" fouroldstyle
EndChar

StartChar: five
Encoding: 280 53 24
Width: 1152
GlyphClass: 2
Flags: W
HStem: -16 48<347.334 606.756> 918 48<420.369 626.458> 1168 140<417.856 605.539> 1430 20G<270 346>
VStem: 122 75<153.737 272> 804 206<295.006 729.962>
LayerCount: 2
Back
SplineSet
122 272 m 4
 122 320 135.5 358.5 162.5 387.5 c 132
 189.5 416.5 222 431 260 431 c 4
 300 431 328.833333333 419.833333333 346.5 397.5 c 132
 364.166666667 375.166666667 373 350.666666667 373 324 c 4
 373 301.333333333 369.333333333 282.5 362 267.5 c 132
 354.666666667 252.5 342 236 324 218 c 5
 300 192.666666667 288 170.333333333 288 151 c 4
 288 111 303.333333333 81.1666666667 334 61.5 c 132
 364.666666667 41.8333333333 412.666666667 32 478 32 c 4
 583.333333333 32 664 67.8333333333 720 139.5 c 132
 776 211.166666667 804 306 804 424 c 4
 804 472.666666667 801.666666667 518.666666667 797 562 c 132
 792.333333333 605.333333333 783.666666667 649.333333333 771 694 c 132
 758.333333333 738.666666667 741.666666667 777 721 809 c 132
 700.333333333 841 672.833333333 867.166666667 638.5 887.5 c 132
 604.166666667 907.833333333 564.666666667 918 520 918 c 4
 458.666666667 918 404.666666667 896.333333333 358 853 c 132
 311.333333333 809.666666667 269.666666667 746 233 662 c 5
 198 667 l 5
 270 1438 l 5
 300 1450 l 5
 392 1355.33333333 479.333333333 1308 562 1308 c 4
 586 1308 609.5 1313.5 632.5 1324.5 c 132
 655.5 1335.5 675.166666667 1348.5 691.5 1363.5 c 132
 707.833333333 1378.5 725.5 1399.33333333 744.5 1426 c 132
 763.5 1452.66666667 778.5 1475.33333333 789.5 1494 c 132
 800.5 1512.66666667 814.333333333 1537.33333333 831 1568 c 5
 867 1552 l 5
 843.666666667 1502 817.833333333 1455 789.5 1411 c 132
 761.166666667 1367 729.833333333 1326.33333333 695.5 1289 c 132
 661.166666667 1251.66666667 624.333333333 1222.16666667 585 1200.5 c 132
 545.666666667 1178.83333333 506.666666667 1168 468 1168 c 4
 430.666666667 1168 400.5 1170.33333333 377.5 1175 c 132
 354.5 1179.66666667 327.666666667 1188.33333333 297 1201 c 5
 260 821 l 5
 268 819 l 5
 337.333333333 917 431.333333333 966 550 966 c 4
 691.333333333 966 803.333333333 925.666666667 886 845 c 132
 968.666666667 764.333333333 1010 659 1010 529 c 4
 1010 369.666666667 959.833333333 239 859.5 137 c 132
 759.166666667 35 629 -16 469 -16 c 4
 373.666666667 -16 292 12.5 224 69.5 c 132
 156 126.5 122 194 122 272 c 4
EndSplineSet
Fore
SplineSet
197 272 m 0
 197 185 249 110 334 62 c 0
 366 44 413 32 478 32 c 0
 583 32 664 68 720 140 c 0
 776 212 804 306 804 424 c 0
 804 473 802 519 797 562 c 0
 792 605 784 649 771 694 c 0
 758 739 742 777 721 809 c 0
 700 841 672 868 638 888 c 0
 604 908 565 918 520 918 c 0
 459 918 405 896 358 853 c 0
 311 810 270 746 233 662 c 1
 198 667 l 1
 270 1438 l 1
 300 1450 l 1
 392 1355 479 1308 562 1308 c 0
 586 1308 609 1313 632 1324 c 0
 655 1335 676 1349 692 1364 c 0
 708 1379 725 1399 744 1426 c 0
 763 1453 779 1475 790 1494 c 0
 801 1513 814 1537 831 1568 c 1
 867 1552 l 1
 844 1502 818 1455 790 1411 c 0
 762 1367 730 1326 696 1289 c 0
 662 1252 624 1222 585 1200 c 0
 546 1178 507 1168 468 1168 c 0
 431 1168 401 1170 378 1175 c 0
 355 1180 328 1188 297 1201 c 1
 260 821 l 1
 268 819 l 1
 337 917 431 966 550 966 c 0
 691 966 803 926 886 845 c 0
 969 764 1010 659 1010 529 c 0
 1010 370 960 239 860 137 c 0
 760 35 629 -16 469 -16 c 0
 374 -16 292 13 224 70 c 0
 156 127 122 194 122 272 c 0
 197 272 l 0
EndSplineSet
Validated: 1
AlternateSubs2: "'aalt' Access All Alternates-1" fiveoldstyle
Substitution2: "'onum' Oldstyle Figures-1" fiveoldstyle
EndChar

StartChar: six
Encoding: 281 54 25
Width: 1152
GlyphClass: 2
Flags: W
HStem: -16 48<501.788 708.236> 851 48<515.948 716.439> 1402 48<553.145 792.894>
VStem: 122 208<351.551 978.812> 854 208<262.125 688.371> 915 58<1216 1303.53>
LayerCount: 2
Back
SplineSet
122 672 m 4
 122 814 146.5 945 195.5 1065 c 132
 244.5 1185 310.166666667 1279.16666667 392.5 1347.5 c 132
 474.833333333 1415.83333333 563.666666667 1450 659 1450 c 4
 748.333333333 1450 822.166666667 1427.16666667 880.5 1381.5 c 132
 938.833333333 1335.83333333 968 1280.66666667 968 1216 c 4
 968 1174 957 1140.33333333 935 1115 c 132
 913 1089.66666667 885 1077 851 1077 c 4
 825.666666667 1077 803.666666667 1084.66666667 785 1100 c 132
 766.333333333 1115.33333333 757 1135 757 1159 c 4
 757 1187 767 1217.66666667 787 1251 c 5
 803.666666667 1276.33333333 812 1301 812 1325 c 4
 812 1345.66666667 798.5 1363.66666667 771.5 1379 c 132
 744.5 1394.33333333 706.666666667 1402 658 1402 c 4
 599.333333333 1402 548.166666667 1383.16666667 504.5 1345.5 c 132
 460.833333333 1307.83333333 426.666666667 1256.83333333 402 1192.5 c 132
 377.333333333 1128.16666667 359.166666667 1058.66666667 347.5 984 c 132
 335.833333333 909.333333333 330 830 330 746 c 5
 336 743 l 5
 420 847 527 899 657 899 c 4
 713.666666667 899 765.166666667 890.833333333 811.5 874.5 c 132
 857.833333333 858.166666667 896.333333333 836.333333333 927 809 c 132
 957.666666667 781.666666667 983.333333333 749.833333333 1004 713.5 c 132
 1024.66666667 677.166666667 1039.5 639.666666667 1048.5 601 c 132
 1057.5 562.333333333 1062 522.666666667 1062 482 c 4
 1062 393.333333333 1043.66666667 311.333333333 1007 236 c 132
 970.333333333 160.666666667 917 99.8333333333 847 53.5 c 132
 777 7.16666666667 697.666666667 -16 609 -16 c 4
 541 -16 477.833333333 -1.33333333333 419.5 28 c 132
 361.166666667 57.3333333333 309.666666667 100 265 156 c 132
 220.333333333 212 185.333333333 284.333333333 160 373 c 132
 134.666666667 461.666666667 122 561.333333333 122 672 c 4
330 558 m 4
 330 475.333333333 334.666666667 403.333333333 344 342 c 132
 353.333333333 280.666666667 368.666666667 226 390 178 c 132
 411.333333333 130 440.666666667 93.6666666667 478 69 c 132
 515.333333333 44.3333333333 561 32 615 32 c 4
 693.666666667 32 753.166666667 71.3333333333 793.5 150 c 132
 833.833333333 228.666666667 854 339.666666667 854 483 c 4
 854 536.333333333 849.666666667 584.666666667 841 628 c 132
 832.333333333 671.333333333 818.666666667 710 800 744 c 132
 781.333333333 778 756 804.333333333 724 823 c 132
 692 841.666666667 654.666666667 851 612 851 c 4
 560 851 507.666666667 832.666666667 455 796 c 132
 402.333333333 759.333333333 365.333333333 709.666666667 344 647 c 4
 334.666666667 621 330 591.333333333 330 558 c 4
EndSplineSet
Fore
SplineSet
915 1216 m 1xf4
 915 1240 910 1278 879 1315 c 0
 843 1358 813 1370 790 1380 c 0
 762 1392 707 1402 658 1402 c 0
 599 1402 548 1384 504 1346 c 0
 460 1308 427 1256 402 1192 c 0
 377 1128 360 1059 348 984 c 0
 336 909 330 830 330 746 c 1
 336 743 l 1
 420 847 527 899 657 899 c 0
 714 899 766 890 812 874 c 0
 858 858 896 836 927 809 c 0
 958 782 983 750 1004 714 c 0
 1025 678 1039 640 1048 601 c 0
 1057 562 1062 523 1062 482 c 0xf8
 1062 393 1044 311 1007 236 c 0
 970 161 917 100 847 54 c 0
 777 8 698 -16 609 -16 c 0
 541 -16 478 -1 420 28 c 0
 362 57 310 100 265 156 c 0
 220 212 185 284 160 373 c 0
 135 462 122 561 122 672 c 0
 122 814 147 945 196 1065 c 0
 245 1185 310 1280 392 1348 c 0
 474 1416 564 1450 659 1450 c 0
 748 1450 822 1428 880 1382 c 0
 938 1336 973 1281 973 1216 c 0
 915 1216 l 1xf4
330 558 m 0
 330 475 335 403 344 342 c 0
 353 281 369 226 390 178 c 0
 411 130 441 94 478 69 c 0
 515 44 561 32 615 32 c 0
 694 32 754 71 794 150 c 0
 834 229 854 340 854 483 c 0
 854 536 850 585 841 628 c 0
 832 671 819 710 800 744 c 0
 781 778 756 804 724 823 c 0
 692 842 655 851 612 851 c 0
 560 851 508 833 455 796 c 0
 402 759 365 710 344 647 c 0
 335 621 330 591 330 558 c 0
EndSplineSet
Validated: 1
AlternateSubs2: "'aalt' Access All Alternates-1" sixoldstyle
Substitution2: "'onum' Oldstyle Figures-1" sixoldstyle
EndChar

StartChar: seven
Encoding: 282 55 26
Width: 1152
GlyphClass: 2
Flags: W
HStem: -16 21G<437 461.5> 1258 86<603.826 915.962> 1270 170<230 569.518>
VStem: 979 85<1380.33 1438.67>
LayerCount: 2
Back
SplineSet
164 997 m 5
 205 1454 l 5
 244 1454 l 5
 233 1329 l 5
 243 1327 l 5
 299.666666667 1402.33333333 365.666666667 1440 441 1440 c 4
 480.333333333 1440 516.166666667 1433.83333333 548.5 1421.5 c 132
 580.833333333 1409.16666667 605.833333333 1396 623.5 1382 c 132
 641.166666667 1368 662.333333333 1348.33333333 687 1323 c 4
 713 1297 743 1274.16666667 777 1254.5 c 132
 811 1234.83333333 841 1225 867 1225 c 4
 911.666666667 1225 943.333333333 1249.33333333 962 1298 c 4
 969.333333333 1317.33333333 974 1345 976 1381 c 4
 978.666666667 1427 994.333333333 1450 1023 1450 c 4
 1036.33333333 1450 1046.5 1446.33333333 1053.5 1439 c 132
 1060.5 1431.66666667 1064 1423 1064 1413 c 4
 1064 1380.33333333 1042.33333333 1324.33333333 999 1245 c 4
 975.666666667 1203.66666667 931.333333333 1110 866 964 c 5
 837.333333333 902 813.166666667 848.166666667 793.5 802.5 c 132
 773.833333333 756.833333333 748.666666667 695.333333333 718 618 c 132
 687.333333333 540.666666667 660.333333333 462.666666667 637 384 c 132
 613.666666667 305.333333333 595 229.333333333 581 156 c 4
 575.666666667 126.666666667 571.333333333 105.166666667 568 91.5 c 132
 564.666666667 77.8333333333 559.833333333 62.3333333333 553.5 45 c 132
 547.166666667 27.6666666667 540 15.6666666667 532 9 c 132
 524 2.33333333333 513.5 -3.5 500.5 -8.5 c 132
 487.5 -13.5 471.333333333 -16 452 -16 c 4
 422 -16 398.5 -9.5 381.5 3.5 c 132
 364.5 16.5 356 35 356 59 c 4
 356 111.666666667 381.166666667 187.833333333 431.5 287.5 c 132
 481.833333333 387.166666667 548 504.333333333 630 639 c 4
 742.666666667 824.333333333 832 1002.66666667 898 1174 c 5
 891 1179 l 5
 837.666666667 1160.33333333 780.666666667 1151 720 1151 c 4
 689.333333333 1151 650.5 1156 603.5 1166 c 132
 556.5 1176 517.666666667 1186.33333333 487 1197 c 4
 427 1217.66666667 381.333333333 1228 350 1228 c 4
 302 1228 265 1200.66666667 239 1146 c 4
 221.666666667 1110.66666667 209.666666667 1061 203 997 c 5
 164 997 l 5
EndSplineSet
Fore
SplineSet
203 1270 m 1xb0
 230 1440 l 1
 324 1440 l 0xb0
 467 1440 685 1358 719 1351 c 0
 743 1346 769 1344 794 1344 c 0
 883 1344 968 1369 976 1380 c 1
 977 1387 977 1395 979 1404 c 0
 987 1433 994 1450 1023 1450 c 0
 1036 1450 1047 1446 1054 1439 c 0
 1061 1432 1064 1423 1064 1413 c 0
 1064 1380 1042 1324 999 1245 c 0
 976 1204 931 1110 866 964 c 1
 837 902 814 848 794 802 c 0
 774 756 749 695 718 618 c 0
 687 541 660 463 637 384 c 0
 614 305 595 229 581 156 c 0
 576 127 571 106 568 92 c 0
 565 78 560 62 554 45 c 0
 548 28 540 16 532 9 c 0
 524 2 513 -3 500 -8 c 0
 487 -13 471 -16 452 -16 c 0
 422 -16 399 -9 382 4 c 0
 365 17 356 35 356 59 c 0
 356 112 382 188 432 288 c 0
 482 388 548 504 630 639 c 0
 743 824 845 1029 903 1174 c 1
 916 1200 930 1237 945 1269 c 0
 958 1297 959 1301 967 1328 c 1
 950 1304 800 1258 762 1258 c 1xd0
 654 1258 574 1267 466 1270 c 1
 203 1270 l 1xb0
EndSplineSet
Validated: 1
AlternateSubs2: "'aalt' Access All Alternates-1" sevenoldstyle
Substitution2: "'onum' Oldstyle Figures-1" sevenoldstyle
EndChar

StartChar: eight
Encoding: 283 56 27
Width: 1152
GlyphClass: 2
Flags: W
HStem: -16 48<431.049 714.848> 1402 48<431.234 679.092>
VStem: 116 132<173.237 487.998> 146 108<1000.77 1241.81> 870 116<976.543 1255.04> 914 140<237.972 449.167>
LayerCount: 2
Back
SplineSet
116 329 m 4
 116 408.333333333 142.5 477.333333333 195.5 536 c 132
 248.5 594.666666667 321 648 413 696 c 5
 413 702 l 5
 327.666666667 744 261.833333333 792.833333333 215.5 848.5 c 132
 169.166666667 904.166666667 146 976 146 1064 c 4
 146 1140 166 1207.83333333 206 1267.5 c 132
 246 1327.16666667 298.333333333 1372.5 363 1403.5 c 132
 427.666666667 1434.5 498.333333333 1450 575 1450 c 4
 689.666666667 1450 786.833333333 1421.33333333 866.5 1364 c 132
 946.166666667 1306.66666667 986 1235.33333333 986 1150 c 4
 986 1070 963.333333333 1000.66666667 918 942 c 132
 872.666666667 883.333333333 810.333333333 829.666666667 731 781 c 5
 731 777 l 5
 769 759 802 742.166666667 830 726.5 c 132
 858 710.833333333 886.833333333 691.833333333 916.5 669.5 c 132
 946.166666667 647.166666667 970.5 624.5 989.5 601.5 c 132
 1008.5 578.5 1024 551.5 1036 520.5 c 132
 1048 489.5 1054 456.666666667 1054 422 c 4
 1054 340.666666667 1031.33333333 266.166666667 986 198.5 c 132
 940.666666667 130.833333333 881 78.1666666667 807 40.5 c 132
 733 2.83333333333 653.666666667 -16 569 -16 c 4
 489.666666667 -16 416 -2.5 348 24.5 c 132
 280 51.5 224.333333333 91.6666666667 181 145 c 132
 137.666666667 198.333333333 116 259.666666667 116 329 c 4
248 334 m 4
 248 248 276.5 176.166666667 333.5 118.5 c 132
 390.5 60.8333333333 469 32 569 32 c 4
 667 32 749 58.1666666667 815 110.5 c 132
 881 162.833333333 914 229.666666667 914 311 c 4
 914 342.333333333 908.5 371.166666667 897.5 397.5 c 132
 886.5 423.833333333 872.666666667 446.666666667 856 466 c 132
 839.333333333 485.333333333 815.5 505 784.5 525 c 132
 753.5 545 723.333333333 562.166666667 694 576.5 c 132
 664.666666667 590.833333333 626.333333333 608.333333333 579 629 c 6
 464 680 l 5
 392.666666667 636 338.833333333 586 302.5 530 c 132
 266.166666667 474 248 408.666666667 248 334 c 4
254 1138 m 4
 254 1112.66666667 256.5 1089.83333333 261.5 1069.5 c 132
 266.5 1049.16666667 275.333333333 1030.66666667 288 1014 c 132
 300.666666667 997.333333333 313.166666667 983.166666667 325.5 971.5 c 132
 337.833333333 959.833333333 355.833333333 947.5 379.5 934.5 c 132
 403.166666667 921.5 423.5 911 440.5 903 c 132
 457.5 895 482 884.333333333 514 871 c 6
 683 798 l 5
 743.666666667 836 790 879.5 822 928.5 c 132
 854 977.5 870 1036 870 1104 c 4
 870 1183.33333333 840 1252.83333333 780 1312.5 c 132
 720 1372.16666667 643 1402 549 1402 c 4
 471.666666667 1402 403.166666667 1376 343.5 1324 c 132
 283.833333333 1272 254 1210 254 1138 c 4
EndSplineSet
Fore
SplineSet
116 329 m 4xe8
 116 408 143 477 196 536 c 4
 249 595 321 648 413 696 c 5
 413 702 l 5
 328 744 262 792 216 848 c 4
 170 904 146 976 146 1064 c 4
 146 1140 166 1208 206 1268 c 4
 246 1328 298 1373 363 1404 c 4
 428 1435 498 1450 575 1450 c 4
 690 1450 786 1421 866 1364 c 4
 946 1307 986 1235 986 1150 c 4xd8
 986 1070 963 1001 918 942 c 4
 873 883 810 830 731 781 c 5
 731 777 l 5
 769 759 802 742 830 726 c 4
 858 710 886 692 916 670 c 4
 946 648 971 625 990 602 c 4
 1009 579 1024 551 1036 520 c 4
 1048 489 1054 457 1054 422 c 4xc4
 1054 341 1031 266 986 198 c 4
 941 130 881 78 807 40 c 4
 733 2 654 -16 569 -16 c 4
 490 -16 416 -3 348 24 c 4
 280 51 224 92 181 145 c 4
 138 198 116 260 116 329 c 4xe8
248 334 m 4xe4
 248 248 277 176 334 118 c 4
 391 60 469 32 569 32 c 4
 667 32 749 58 815 110 c 4
 881 162 914 230 914 311 c 4
 914 342 909 372 898 398 c 4
 887 424 873 447 856 466 c 4
 839 485 815 505 784 525 c 4
 753 545 723 562 694 576 c 4
 665 590 626 608 579 629 c 6
 464 680 l 5
 393 636 338 586 302 530 c 4
 266 474 248 409 248 334 c 4xe4
254 1138 m 4xd8
 254 1113 257 1090 262 1070 c 4
 267 1050 275 1031 288 1014 c 4
 301 997 314 984 326 972 c 4
 338 960 356 947 380 934 c 4
 404 921 423 911 440 903 c 4
 457 895 482 884 514 871 c 6
 683 798 l 5
 744 836 790 879 822 928 c 4
 854 977 870 1036 870 1104 c 4
 870 1183 840 1252 780 1312 c 4
 720 1372 643 1402 549 1402 c 4
 472 1402 404 1376 344 1324 c 4
 284 1272 254 1210 254 1138 c 4xd8
EndSplineSet
Validated: 1
AlternateSubs2: "'aalt' Access All Alternates-1" eightoldstyle
Substitution2: "'onum' Oldstyle Figures-1" eightoldstyle
EndChar

StartChar: nine
Encoding: 284 57 28
Width: 1152
GlyphClass: 2
Flags: W
HStem: -16 48<380.678 598.855> 535 48<435.561 636.052> 1402 48<443.764 650.212>
VStem: 90 208<745.629 1171.88> 173 72<130.472 218> 822 208<455.188 1082.45>
LayerCount: 2
Back
SplineSet
90 952 m 4
 90 1040.66666667 108.333333333 1122.66666667 145 1198 c 132
 181.666666667 1273.33333333 235 1334.16666667 305 1380.5 c 132
 375 1426.83333333 454.333333333 1450 543 1450 c 4
 611 1450 674.166666667 1435.33333333 732.5 1406 c 132
 790.833333333 1376.66666667 842.333333333 1334 887 1278 c 132
 931.666666667 1222 966.666666667 1149.66666667 992 1061 c 132
 1017.33333333 972.333333333 1030 872.666666667 1030 762 c 4
 1030 620 1005.5 489 956.5 369 c 132
 907.5 249 841.833333333 154.833333333 759.5 86.5 c 132
 677.166666667 18.1666666667 588.333333333 -16 493 -16 c 4
 403.666666667 -16 329.833333333 6.83333333333 271.5 52.5 c 132
 213.166666667 98.1666666667 184 153.333333333 184 218 c 4
 184 260 195 293.666666667 217 319 c 132
 239 344.333333333 267 357 301 357 c 4
 326.333333333 357 348.333333333 349.333333333 367 334 c 132
 385.666666667 318.666666667 395 299 395 275 c 4
 395 247 385 216.333333333 365 183 c 5
 348.333333333 157.666666667 340 133 340 109 c 4
 340 88.3333333333 353.5 70.3333333333 380.5 55 c 132
 407.5 39.6666666667 445.333333333 32 494 32 c 4
 552.666666667 32 603.833333333 50.8333333333 647.5 88.5 c 132
 691.166666667 126.166666667 725.333333333 177.166666667 750 241.5 c 132
 774.666666667 305.833333333 792.833333333 375.333333333 804.5 450 c 132
 816.166666667 524.666666667 822 604 822 688 c 5
 816 691 l 5
 732 587 625 535 495 535 c 4
 438.333333333 535 386.833333333 543.166666667 340.5 559.5 c 132
 294.166666667 575.833333333 255.666666667 597.666666667 225 625 c 132
 194.333333333 652.333333333 168.666666667 684.166666667 148 720.5 c 132
 127.333333333 756.833333333 112.5 794.333333333 103.5 833 c 132
 94.5 871.666666667 90 911.333333333 90 952 c 4
298 951 m 4
 298 897.666666667 302.333333333 849.333333333 311 806 c 132
 319.666666667 762.666666667 333.333333333 724 352 690 c 132
 370.666666667 656 396 629.666666667 428 611 c 132
 460 592.333333333 497.333333333 583 540 583 c 4
 592 583 644.333333333 601.333333333 697 638 c 132
 749.666666667 674.666666667 786.666666667 724.333333333 808 787 c 4
 817.333333333 813 822 842.666666667 822 876 c 4
 822 958.666666667 817.333333333 1030.66666667 808 1092 c 132
 798.666666667 1153.33333333 783.333333333 1208 762 1256 c 132
 740.666666667 1304 711.333333333 1340.33333333 674 1365 c 132
 636.666666667 1389.66666667 591 1402 537 1402 c 4
 458.333333333 1402 398.833333333 1362.66666667 358.5 1284 c 132
 318.166666667 1205.33333333 298 1094.33333333 298 951 c 4
EndSplineSet
Fore
SplineSet
245 218 m 1xec
 245 134 319 94 380 55 c 1
 407 39 445 32 494 32 c 0
 553 32 604 50 648 88 c 0
 692 126 725 178 750 242 c 0
 775 306 792 375 804 450 c 0
 816 525 822 604 822 688 c 1
 816 691 l 1
 732 587 625 535 495 535 c 0
 438 535 386 544 340 560 c 0
 294 576 256 598 225 625 c 0
 194 652 169 684 148 720 c 0
 127 756 113 794 104 833 c 0
 95 872 90 911 90 952 c 0xf4
 90 1041 108 1123 145 1198 c 0
 182 1273 235 1334 305 1380 c 0
 375 1426 454 1450 543 1450 c 0
 611 1450 674 1435 732 1406 c 0
 790 1377 842 1334 887 1278 c 0
 932 1222 967 1150 992 1061 c 0
 1017 972 1030 873 1030 762 c 0
 1030 620 1005 489 956 369 c 0
 907 249 842 154 760 86 c 0
 678 18 588 -16 493 -16 c 0
 404 -16 330 6 272 52 c 0
 214 98 173 153 173 218 c 0
 245 218 l 1xec
298 951 m 0
 298 898 302 849 311 806 c 0
 320 763 333 724 352 690 c 0
 371 656 396 630 428 611 c 0
 460 592 497 583 540 583 c 0
 592 583 644 601 697 638 c 0
 750 675 787 724 808 787 c 0
 817 813 822 843 822 876 c 0
 822 959 817 1031 808 1092 c 0
 799 1153 783 1208 762 1256 c 0
 741 1304 711 1340 674 1365 c 0
 637 1390 591 1402 537 1402 c 0
 458 1402 398 1363 358 1284 c 0
 318 1205 298 1094 298 951 c 0
EndSplineSet
Validated: 1
AlternateSubs2: "'aalt' Access All Alternates-1" nineoldstyle
Substitution2: "'onum' Oldstyle Figures-1" nineoldstyle
EndChar

StartChar: less
Encoding: 287 60 31
Width: 1152
GlyphClass: 2
Flags: W
HStem: -24 21G<985.633 1034>
LayerCount: 2
Back
SplineSet
84 466 m 5
 84 562 l 5
 1024 1052 l 5
 1068 964 l 5
 199 514 l 5
 1068 64 l 5
 1024 -24 l 5
 84 466 l 5
EndSplineSet
Fore
SplineSet
84 466 m 5
 84 562 l 5
 1024 1052 l 5
 1068 964 l 5
 199 514 l 5
 1068 64 l 5
 1024 -24 l 5
 84 466 l 5
EndSplineSet
Validated: 1
EndChar

StartChar: equal
Encoding: 288 61 32
Width: 1152
GlyphClass: 2
Flags: W
HStem: 310 96<62 1090> 622 96<62 1090>
LayerCount: 2
Back
SplineSet
62 310 m 5
 62 406 l 5
 1090 406 l 5
 1090 310 l 5
 62 310 l 5
62 622 m 5
 62 718 l 5
 1090 718 l 5
 1090 622 l 5
 62 622 l 5
EndSplineSet
Fore
SplineSet
62 310 m 5
 62 406 l 5
 1090 406 l 5
 1090 310 l 5
 62 310 l 5
62 622 m 5
 62 718 l 5
 1090 718 l 5
 1090 622 l 5
 62 622 l 5
EndSplineSet
Validated: 1
EndChar

StartChar: greater
Encoding: 289 62 33
Width: 1152
GlyphClass: 2
Flags: W
HStem: -24 21G<118 166.367>
LayerCount: 2
Back
SplineSet
84 64 m 5
 953 514 l 5
 84 964 l 5
 128 1052 l 5
 1068 562 l 5
 1068 466 l 5
 128 -24 l 5
 84 64 l 5
EndSplineSet
Fore
SplineSet
84 64 m 5
 953 514 l 5
 84 964 l 5
 128 1052 l 5
 1068 562 l 5
 1068 466 l 5
 128 -24 l 5
 84 64 l 5
EndSplineSet
Validated: 1
EndChar

StartChar: question
Encoding: 290 63 34
Width: 852
GlyphClass: 2
Flags: W
HStem: -24 256<212.176 391.824> 688 48<369.464 536.744> 1456 56<326.083 497.099>
VStem: 144 154<1250.66 1401.1> 174 256<14.1755 193.824> 268 72<339 714> 620 148<847.75 1278.71>
LayerCount: 2
Back
SplineSet
144 1309 m 4
 144 1369 168.833333333 1417.83333333 218.5 1455.5 c 132
 268.166666667 1493.16666667 327.666666667 1512 397 1512 c 4
 472.333333333 1512 538.833333333 1489.16666667 596.5 1443.5 c 132
 654.166666667 1397.83333333 697.166666667 1340.83333333 725.5 1272.5 c 132
 753.833333333 1204.16666667 768 1131.66666667 768 1055 c 4
 768 991 758.666666667 934.333333333 740 885 c 132
 721.333333333 835.666666667 696.666666667 797.166666667 666 769.5 c 132
 635.333333333 741.833333333 603.166666667 721.333333333 569.5 708 c 132
 535.833333333 694.666666667 501.333333333 688 466 688 c 4
 416.666666667 688 376 698 344 718 c 5
 340 714 l 5
 340 339 l 5
 268 339 l 5
 268 836 l 5
 302 836 l 5
 314 810.666666667 329.333333333 790 348 774 c 4
 378 748.666666667 418.666666667 736 470 736 c 4
 570 736 620 853.333333333 620 1088 c 4
 620 1125.33333333 617.833333333 1160.66666667 613.5 1194 c 132
 609.166666667 1227.33333333 601.833333333 1260.33333333 591.5 1293 c 132
 581.166666667 1325.66666667 567.833333333 1353.66666667 551.5 1377 c 132
 535.166666667 1400.33333333 514 1419.33333333 488 1434 c 132
 462 1448.66666667 432.333333333 1456 399 1456 c 4
 354.333333333 1456 324.666666667 1438 310 1402 c 4
 302 1382.66666667 298 1349.33333333 298 1302 c 4
 298 1252.66666667 274.666666667 1228 228 1228 c 4
 201.333333333 1228 180.666666667 1235.16666667 166 1249.5 c 132
 151.333333333 1263.83333333 144 1283.66666667 144 1309 c 4
174 104 m 132
 174 140 186.333333333 170.333333333 211 195 c 132
 235.666666667 219.666666667 266 232 302 232 c 132
 338 232 368.333333333 219.666666667 393 195 c 132
 417.666666667 170.333333333 430 140 430 104 c 132
 430 68 417.666666667 37.6666666667 393 13 c 132
 368.333333333 -11.6666666667 338 -24 302 -24 c 132
 266 -24 235.666666667 -11.6666666667 211 13 c 132
 186.333333333 37.6666666667 174 68 174 104 c 132
EndSplineSet
Fore
SplineSet
144 1309 m 4xf2
 144 1369 168 1418 218 1456 c 4
 268 1494 328 1512 397 1512 c 4
 472 1512 538 1490 596 1444 c 4
 654 1398 698 1340 726 1272 c 4
 754 1204 768 1132 768 1055 c 4
 768 991 759 934 740 885 c 4
 721 836 697 798 666 770 c 4
 635 742 604 721 570 708 c 4
 536 695 501 688 466 688 c 4
 417 688 376 698 344 718 c 5
 340 714 l 5
 340 339 l 5
 268 339 l 5
 268 836 l 5xe6
 302 836 l 5
 314 811 329 790 348 774 c 4
 378 749 419 736 470 736 c 4
 570 736 620 853 620 1088 c 4
 620 1125 618 1161 614 1194 c 4
 610 1227 602 1260 592 1293 c 4
 582 1326 568 1354 552 1377 c 4
 536 1400 514 1419 488 1434 c 4
 462 1449 432 1456 399 1456 c 4
 354 1456 325 1438 310 1402 c 4
 302 1383 298 1349 298 1302 c 4
 298 1253 275 1228 228 1228 c 4
 201 1228 181 1236 166 1250 c 4
 151 1264 144 1284 144 1309 c 4xf2
174 104 m 4xea
 174 140 186 170 211 195 c 4
 236 220 266 232 302 232 c 4
 338 232 368 220 393 195 c 4
 418 170 430 140 430 104 c 4
 430 68 418 38 393 13 c 4
 368 -12 338 -24 302 -24 c 4
 266 -24 236 -12 211 13 c 4
 186 38 174 68 174 104 c 4xea
EndSplineSet
Validated: 1
EndChar

StartChar: at
Encoding: 291 64 35
Width: 1716
GlyphClass: 2
Flags: W
HStem: -400 72<671.095 1130.69> -12 64<1143.67 1341.33> -12 49<657.419 806.945> 759 79<789.455 991.376> 1204 64<748.298 1150.38>
VStem: 60 144<122.354 667.221> 456 146<108.042 513.075> 1008 116<80.8972 195> 1037 131<324.992 699.372> 1564 96<326.002 814.318>
LayerCount: 2
Back
SplineSet
60 371 m 4
 60 488.333333333 78.1666666667 596.833333333 114.5 696.5 c 132
 150.833333333 796.166666667 199.333333333 880.5 260 949.5 c 132
 320.666666667 1018.5 390.833333333 1077.33333333 470.5 1126 c 132
 550.166666667 1174.66666667 633.333333333 1210.5 720 1233.5 c 132
 806.666666667 1256.5 894.333333333 1268 983 1268 c 4
 1075 1268 1163 1250.5 1247 1215.5 c 132
 1331 1180.5 1403 1133.5 1463 1074.5 c 132
 1523 1015.5 1570.83333333 946 1606.5 866 c 132
 1642.16666667 786 1660 702.666666667 1660 616 c 4
 1660 434 1617.16666667 283.833333333 1531.5 165.5 c 132
 1445.83333333 47.1666666667 1339.33333333 -12 1212 -12 c 4
 1144 -12 1093.5 8.16666666667 1060.5 48.5 c 132
 1027.5 88.8333333333 1010 137.666666667 1008 195 c 5
 998 198 l 5
 974.666666667 144.666666667 937.333333333 96.3333333333 886 53 c 132
 834.666666667 9.66666666667 779 -12 719 -12 c 4
 641.666666667 -12 578.5 14.8333333333 529.5 68.5 c 132
 480.5 122.166666667 456 195.333333333 456 288 c 4
 456 383.333333333 474.166666667 472.333333333 510.5 555 c 132
 546.833333333 637.666666667 600.666666667 705.5 672 758.5 c 132
 743.333333333 811.5 825 838 917 838 c 4
 961.666666667 838 1000 819.333333333 1032 782 c 132
 1064 744.666666667 1083.33333333 701.333333333 1090 652 c 5
 1109 656 l 5
 1156 826 l 5
 1296 826 l 5
 1153 324 l 5
 1133.66666667 258.666666667 1124 204.666666667 1124 162 c 4
 1124 126.666666667 1130.66666667 99.5 1144 80.5 c 132
 1157.33333333 61.5 1182.33333333 52 1219 52 c 4
 1316.33333333 52 1398.16666667 101.166666667 1464.5 199.5 c 132
 1530.83333333 297.833333333 1564 421.333333333 1564 570 c 4
 1564 659.333333333 1547.83333333 743.666666667 1515.5 823 c 132
 1483.16666667 902.333333333 1439.66666667 969.666666667 1385 1025 c 132
 1330.33333333 1080.33333333 1266 1124 1192 1156 c 132
 1118 1188 1040 1204 958 1204 c 4
 862.666666667 1204 770.166666667 1185.5 680.5 1148.5 c 132
 590.833333333 1111.5 510.5 1059.16666667 439.5 991.5 c 132
 368.5 923.833333333 311.5 837.5 268.5 732.5 c 132
 225.5 627.5 204 512.333333333 204 387 c 4
 204 295 216.833333333 209.833333333 242.5 131.5 c 132
 268.166666667 53.1666666667 303.166666667 -13.8333333333 347.5 -69.5 c 132
 391.833333333 -125.166666667 443.833333333 -172.666666667 503.5 -212 c 132
 563.166666667 -251.333333333 627.166666667 -280.5 695.5 -299.5 c 132
 763.833333333 -318.5 834.666666667 -328 908 -328 c 4
 968.666666667 -328 1028.5 -320.333333333 1087.5 -305 c 132
 1146.5 -289.666666667 1199.5 -269 1246.5 -243 c 132
 1293.5 -217 1335 -190.5 1371 -163.5 c 132
 1407 -136.5 1439 -108 1467 -78 c 5
 1515 -141 l 5
 1485.66666667 -171 1452.16666667 -199.833333333 1414.5 -227.5 c 132
 1376.83333333 -255.166666667 1332.5 -282.666666667 1281.5 -310 c 132
 1230.5 -337.333333333 1172.16666667 -359.166666667 1106.5 -375.5 c 132
 1040.83333333 -391.833333333 973.333333333 -400 904 -400 c 4
 824.666666667 -400 744.833333333 -388.833333333 664.5 -366.5 c 132
 584.166666667 -344.166666667 507.833333333 -310.666666667 435.5 -266 c 132
 363.166666667 -221.333333333 299 -168.666666667 243 -108 c 132
 187 -47.3333333333 142.5 24.5 109.5 107.5 c 132
 76.5 190.5 60 278.333333333 60 371 c 4
602 247 m 4
 602 220.333333333 604 195.166666667 608 171.5 c 132
 612 147.833333333 618.333333333 125.666666667 627 105 c 132
 635.666666667 84.3333333333 648.166666667 67.8333333333 664.5 55.5 c 132
 680.833333333 43.1666666667 700.333333333 37 723 37 c 4
 766.333333333 37 808.166666667 55 848.5 91 c 132
 888.833333333 127 922.333333333 171.333333333 949 224 c 132
 975.666666667 276.666666667 997 331.833333333 1013 389.5 c 132
 1029 447.166666667 1037 499 1037 545 c 4
 1037 687.666666667 991 759 899 759 c 4
 848.333333333 759 801 737.333333333 757 694 c 132
 713 650.666666667 678.333333333 596.333333333 653 531 c 4
 633.666666667 480.333333333 620.333333333 434.666666667 613 394 c 132
 605.666666667 353.333333333 602 304.333333333 602 247 c 4
EndSplineSet
Fore
SplineSet
1147 324 m 1xbec0
 1128 259 1124 205 1124 162 c 0
 1124 127 1131 99 1144 80 c 0
 1157 61 1182 52 1219 52 c 0
 1316 52 1398 102 1464 200 c 0
 1530 298 1564 421 1564 570 c 0
 1564 659 1548 744 1516 823 c 0
 1484 902 1440 970 1385 1025 c 0
 1330 1080 1266 1124 1192 1156 c 0
 1118 1188 1040 1204 958 1204 c 0
 863 1204 770 1185 680 1148 c 0
 590 1111 511 1060 440 992 c 0
 369 924 311 837 268 732 c 0
 225 627 204 512 204 387 c 0
 204 295 216 210 242 132 c 0
 268 54 304 -14 348 -70 c 0
 392 -126 444 -173 504 -212 c 0
 564 -251 628 -281 696 -300 c 0
 764 -319 835 -328 908 -328 c 0
 969 -328 1029 -320 1088 -305 c 0
 1147 -290 1199 -269 1246 -243 c 0
 1293 -217 1335 -191 1371 -164 c 0
 1407 -137 1439 -108 1467 -78 c 1
 1515 -141 l 1
 1486 -171 1452 -200 1414 -228 c 0
 1376 -256 1333 -283 1282 -310 c 0
 1231 -337 1172 -360 1106 -376 c 0
 1040 -392 973 -400 904 -400 c 0
 825 -400 744 -388 664 -366 c 0
 584 -344 508 -311 436 -266 c 0
 364 -221 299 -169 243 -108 c 0
 187 -47 143 25 110 108 c 0
 77 191 60 278 60 371 c 0
 60 488 78 596 114 696 c 0
 150 796 199 881 260 950 c 0
 321 1019 390 1077 470 1126 c 0
 550 1175 633 1211 720 1234 c 0
 807 1257 894 1268 983 1268 c 0
 1075 1268 1163 1251 1247 1216 c 0
 1331 1181 1403 1133 1463 1074 c 0
 1523 1015 1570 946 1606 866 c 0
 1642 786 1660 703 1660 616 c 0
 1660 434 1618 284 1532 166 c 0
 1446 48 1339 -12 1212 -12 c 0
 1144 -12 1093 8 1060 48 c 0
 1027 88 1010 138 1008 195 c 1xdf40
 998 198 l 1
 975 145 937 96 886 53 c 0
 835 10 779 -12 719 -12 c 0
 642 -12 579 14 530 68 c 0
 481 122 456 195 456 288 c 0
 456 383 474 472 510 555 c 0
 546 638 601 705 672 758 c 0
 743 811 825 838 917 838 c 0
 962 838 1024 814 1060 781 c 0
 1100 744 1122 717 1141 655 c 1
 1156 613 1168 566 1168 500 c 0
 1168 453 1162 396 1147 324 c 1xbec0
602 247 m 0
 602 220 604 196 608 172 c 0
 612 148 618 126 627 105 c 0
 636 84 648 68 664 56 c 0
 680 44 700 37 723 37 c 0
 766 37 808 55 848 91 c 0
 888 127 922 171 949 224 c 0
 976 277 997 332 1013 390 c 0
 1029 448 1037 499 1037 545 c 0xbec0
 1037 688 991 759 899 759 c 0
 848 759 801 737 757 694 c 0
 713 651 678 596 653 531 c 0
 634 480 620 435 613 394 c 0
 606 353 602 304 602 247 c 0
EndSplineSet
Validated: 1
EndChar

StartChar: A
Encoding: 292 65 36
Width: 1274
GlyphClass: 2
Flags: W
HStem: 0 21G<96 170.523 930.617 1178> 512 52<347 729> 1442 20G<568.447 642.428>
LayerCount: 2
Back
SplineSet
56 0 m 1
 56 52 l 1
 274 52 l 1
 736 1462 l 1
 796 1462 l 1
 1320 52 l 1
 1502 52 l 1
 1502 0 l 1
 830 0 l 1
 830 52 l 1
 1080 52 l 1
 910 512 l 1
 492 512 l 1
 342 52 l 1
 552 52 l 1
 552 0 l 1
 56 0 l 1
508 564 m 1
 890 564 l 1
 688 1109 l 1
 508 564 l 1
EndSplineSet
Fore
SplineSet
527 1109 m 25
 347 564 l 25
 729 564 l 25
 527 1109 l 25
96 0 m 25
 575 1462 l 25
 635 1462 l 25
 1178 0 l 25
 938 0 l 25
 749 512 l 25
 331 512 l 25
 164 0 l 25
 96 0 l 25
EndSplineSet
Validated: 1
EndChar

StartChar: B
Encoding: 293 66 37
Width: 1136
GlyphClass: 2
Flags: W
HStem: 0 52<318 670.31> 748 52<318 682.031> 1382 52<318 660.695>
VStem: 110 208<52 748 800 1382> 791 208<936.548 1266.99> 828 234<213.619 575.587>
LayerCount: 2
Back
SplineSet
122 0 m 1
 122 52 l 1
 314 52 l 1
 314 1382 l 1
 122 1382 l 1
 122 1434 l 1
 750 1434 l 2
 903.333333333 1434 1017.16666667 1403.5 1091.5 1342.5 c 128
 1165.83333333 1281.5 1203 1196.66666667 1203 1088 c 0
 1203 1008.66666667 1174.66666667 941.666666667 1118 887 c 128
 1061.33333333 832.333333333 989 796.666666667 901 780 c 1
 901 768 l 1
 1013.66666667 754 1102.66666667 713.666666667 1168 647 c 128
 1233.33333333 580.333333333 1266 496 1266 394 c 0
 1266 270.666666667 1220.5 174.166666667 1129.5 104.5 c 128
 1038.5 34.8333333333 914.666666667 0 758 0 c 2
 122 0 l 1
522 52 m 1
 738 52 l 2
 934 52 1032 169.333333333 1032 404 c 0
 1032 511.333333333 1011.66666667 595.5 971 656.5 c 128
 930.333333333 717.5 867.333333333 748 782 748 c 2
 522 748 l 1
 522 52 l 1
522 800 m 1
 782 800 l 2
 852.666666667 800 905.833333333 825.5 941.5 876.5 c 128
 977.166666667 927.5 995 994 995 1076 c 0
 995 1116.66666667 991 1153.83333333 983 1187.5 c 128
 975 1221.16666667 961.833333333 1253.33333333 943.5 1284 c 128
 925.166666667 1314.66666667 898.166666667 1338.66666667 862.5 1356 c 128
 826.833333333 1373.33333333 784 1382 734 1382 c 2
 522 1382 l 1
 522 800 l 1
EndSplineSet
Fore
SplineSet
318 52 m 29xf4
 535 52 l 21
 687 52 828 122 828 405 c 5
 828 645 730 748 580 748 c 13
 318 748 l 29
 318 52 l 29xf4
318 800 m 29
 579 800 l 21
 734 800 791 933 791 1077 c 5xf8
 791 1201 747 1326 647 1362 c 4
 610 1375 577 1382 508 1382 c 13
 318 1382 l 29
 318 800 l 29
110 1434 m 29
 562 1434 l 21
 843 1434 999 1308 999 1093 c 5xf8
 999 879 802 798 697 780 c 13
 697 767 l 21
 757 767 1062 704 1062 398 c 5xf4
 1062 85 777 0 554 0 c 13
 110 0 l 29
 110 1434 l 29
EndSplineSet
Validated: 1
EndChar

StartChar: C
Encoding: 294 67 38
Width: 1486
GlyphClass: 2
Flags: W
HStem: -28 52<689.469 1003.39> 1411 52<693.214 1012.23>
VStem: 146 234<439.561 981.535>
LayerCount: 2
Back
SplineSet
146 712 m 0
 146 802.666666667 158.666666667 888.166666667 184 968.5 c 128
 209.333333333 1048.83333333 244 1118.66666667 288 1178 c 128
 332 1237.33333333 383 1288.66666667 441 1332 c 128
 499 1375.33333333 561.666666667 1407.83333333 629 1429.5 c 128
 696.333333333 1451.16666667 764.666666667 1462 834 1462 c 0
 934.666666667 1462 1028 1446.33333333 1114 1415 c 0
 1153.33333333 1400.33333333 1184.66666667 1393 1208 1393 c 0
 1228 1393 1243.66666667 1398.5 1255 1409.5 c 128
 1266.33333333 1420.5 1278 1438 1290 1462 c 1
 1334 1462 l 1
 1334 991 l 1
 1290 991 l 1
 1266 1089.66666667 1228.33333333 1174.33333333 1177 1245 c 0
 1161.66666667 1266.33333333 1145.66666667 1285.33333333 1129 1302 c 128
 1112.33333333 1318.66666667 1090.5 1335.83333333 1063.5 1353.5 c 128
 1036.5 1371.16666667 1003.5 1385 964.5 1395 c 128
 925.5 1405 882 1410 834 1410 c 0
 689.333333333 1410 577.5 1350.5 498.5 1231.5 c 128
 419.5 1112.5 380 939.333333333 380 712 c 0
 380 485.333333333 419.333333333 314 498 198 c 128
 576.666666667 82 688.666666667 24 834 24 c 0
 882 24 925.5 29 964.5 39 c 128
 1003.5 49 1036.5 62.8333333333 1063.5 80.5 c 128
 1090.5 98.1666666667 1112.33333333 115.333333333 1129 132 c 128
 1145.66666667 148.666666667 1161.66666667 167.666666667 1177 189 c 0
 1228.33333333 259.666666667 1266 344.333333333 1290 443 c 1
 1334 443 l 1
 1334 -28 l 1
 1290 -28 l 1
 1282 -12 1275.16666667 0 1269.5 8 c 128
 1263.83333333 16 1255.66666667 23.5 1245 30.5 c 128
 1234.33333333 37.5 1222 41 1208 41 c 0
 1184.66666667 41 1153.33333333 33.6666666667 1114 19 c 0
 1028 -12.3333333333 934.666666667 -28 834 -28 c 0
 746 -28 661.166666667 -11 579.5 23 c 128
 497.833333333 57 424.666666667 104.833333333 360 166.5 c 128
 295.333333333 228.166666667 243.5 306.333333333 204.5 401 c 128
 165.5 495.666666667 146 599.333333333 146 712 c 0
EndSplineSet
Fore
SplineSet
1334 1321 m 9
 1334 1249 l 17
 1207 1328 1010 1408 840 1411 c 1
 443 1411 380 984 380 723 c 1
 380 554 391 24 839 24 c 1
 1024 24 1171 108 1334 250 c 9
 1334 162 l 17
 1195 27 1018 -28 835 -28 c 1
 483 -28 146 248 146 715 c 1
 146 1191 500 1463 837 1463 c 1
 1047 1456 1210 1401 1334 1321 c 9
EndSplineSet
Validated: 1
EndChar

StartChar: D
Encoding: 295 68 39
Width: 1359
GlyphClass: 2
Flags: W
HStem: 0 52<320 739.898> 1382 52<320 731.389>
VStem: 112 208<52 1382> 1037 233<443.354 982.922>
LayerCount: 2
Back
SplineSet
-80 0 m 5
 -80 52 l 5
 112 52 l 5
 112 1382 l 5
 -80 1382 l 5
 -80 1434 l 5
 639 1434 l 6
 699 1434 758.666992188 1424.5 818 1405.5 c 132
 877.333007812 1386.5 934.333007812 1357.16699219 989 1317.5 c 132
 1043.66699219 1277.83300781 1091.83300781 1230 1133.5 1174 c 132
 1175.16699219 1118 1208.33300781 1050.16699219 1233 970.5 c 132
 1257.66699219 890.833007812 1270 804.666992188 1270 712 c 132
 1270 619.333007812 1257.66699219 533.5 1233 454.5 c 132
 1208.33300781 375.5 1175.16699219 308.5 1133.5 253.5 c 132
 1091.83300781 198.5 1043.66699219 151.666992188 989 113 c 132
 934.333007812 74.3330078125 877.333007812 45.8330078125 818 27.5 c 132
 758.666992188 9.1669921875 699 0 639 0 c 6
 -80 0 l 5
320 52 m 5
 593 52 l 6
 659.666992188 52 719 64 771 88 c 132
 823 112 865.333007812 144 898 184 c 132
 930.666992188 224 957.666992188 272.666992188 979 330 c 132
 1000.33300781 387.333007812 1015.16699219 447 1023.5 509 c 132
 1031.83300781 571 1036 638.666992188 1036 712 c 132
 1036 785.333007812 1031.83300781 853.333007812 1023.5 916 c 132
 1015.16699219 978.666992188 1000.33300781 1039.16699219 979 1097.5 c 132
 957.666992188 1155.83300781 930.666992188 1205.5 898 1246.5 c 132
 865.333007812 1287.5 823 1320.33300781 771 1345 c 132
 719 1369.66699219 659.666992188 1382 593 1382 c 6
 320 1382 l 5
 320 52 l 5
EndSplineSet
Fore
SplineSet
320 52 m 25
 601 52 l 17
 856 52 1037 241 1037 718 c 1
 1037 1066 933 1382 586 1382 c 9
 320 1382 l 25
 320 52 l 25
112 1434 m 25
 649 1434 l 17
 914 1434 1270 1213 1270 711 c 1
 1270 211 908 0 653 0 c 9
 112 0 l 25
 112 1434 l 25
EndSplineSet
Validated: 1
EndChar

StartChar: E
Encoding: 296 69 40
Width: 1223
GlyphClass: 2
Flags: W
HStem: 0 52<320 1126> 724 52<320 778> 1382 52<320 1040>
VStem: 112 208<52 724 776 1382>
LayerCount: 2
Back
SplineSet
122 0 m 1
 122 52 l 1
 314 52 l 1
 314 1382 l 1
 122 1382 l 1
 122 1434 l 1
 1242 1434 l 1
 1252 1058 l 1
 1200 1058 l 1
 1194.66666667 1084.66666667 1189.66666667 1106.33333333 1185 1123 c 128
 1180.33333333 1139.66666667 1171.5 1163 1158.5 1193 c 128
 1145.5 1223 1129.33333333 1251.33333333 1110 1278 c 0
 1060.66666667 1347.33333333 984.666666667 1382 882 1382 c 2
 522 1382 l 1
 522 776 l 1
 708 776 l 2
 774 776 830.666666667 812 878 884 c 0
 892.666666667 906.666666667 905.333333333 938.333333333 916 979 c 128
 926.666666667 1019.66666667 932 1049.33333333 932 1068 c 1
 980 1068 l 1
 980 434 l 1
 932 434 l 1
 932 452.666666667 926.666666667 482.333333333 916 523 c 128
 905.333333333 563.666666667 892.666666667 595.333333333 878 618 c 0
 831.333333333 688.666666667 774.666666667 724 708 724 c 2
 522 724 l 1
 522 52 l 1
 859 52 l 2
 1007.66666667 52 1114.66666667 97 1180 187 c 0
 1212 230.333333333 1234.33333333 270 1247 306 c 128
 1259.66666667 342 1271.33333333 389 1282 447 c 1
 1334 447 l 1
 1328 0 l 1
 122 0 l 1
EndSplineSet
Fore
SplineSet
112 1434 m 25
 1040 1434 l 25
 1041 1382 l 25
 320 1382 l 25
 320 776 l 25
 778 776 l 25
 778 724 l 25
 320 724 l 25
 320 52 l 25
 1127 52 l 25
 1126 0 l 25
 112 0 l 25
 112 1434 l 25
EndSplineSet
Validated: 1
EndChar

StartChar: F
Encoding: 297 70 41
Width: 1116
GlyphClass: 2
Flags: W
HStem: 0 21G<112 320> 724 52<320 764> 1382 52<320 1040>
VStem: 112 208<0 724 776 1382>
LayerCount: 2
Back
SplineSet
122 0 m 1
 122 52 l 1
 314 52 l 1
 314 1382 l 1
 122 1382 l 1
 122 1434 l 1
 1242 1434 l 1
 1264 978 l 1
 1212 978 l 1
 1189.33333333 1106 1153 1202.33333333 1103 1267 c 0
 1043.66666667 1343.66666667 962.666666667 1382 860 1382 c 2
 522 1382 l 1
 522 776 l 1
 694 776 l 2
 764.666666667 776 821.333333333 811.333333333 864 882 c 0
 878.666666667 906.666666667 891.333333333 942.666666667 902 990 c 128
 912.666666667 1037.33333333 918 1071 918 1091 c 1
 966 1091 l 1
 966 409 l 1
 918 409 l 1
 918 429 912.666666667 462.666666667 902 510 c 128
 891.333333333 557.333333333 878.666666667 593.333333333 864 618 c 0
 821.333333333 688.666666667 764.666666667 724 694 724 c 2
 522 724 l 1
 522 52 l 1
 714 52 l 1
 714 0 l 1
 122 0 l 1
EndSplineSet
Fore
SplineSet
112 1434 m 29
 1040 1434 l 29
 1042 1382 l 29
 320 1382 l 29
 320 776 l 29
 764 776 l 29
 764 724 l 29
 320 724 l 29
 320 0 l 29
 112 0 l 29
 112 1434 l 29
EndSplineSet
Validated: 1
EndChar

StartChar: G
Encoding: 298 71 42
Width: 1490
GlyphClass: 2
Flags: W
HStem: -28 52<686.702 963.8> 0 21G<1319 1373.04> 69 495<1158.15 1317> 1410 52<685.65 1018.2>
VStem: 146 234<444.387 983.1> 1154 220<183.961 564>
LayerCount: 2
Back
SplineSet
146 712 m 0
 146 802.666666667 158.666666667 888.166666667 184 968.5 c 128
 209.333333333 1048.83333333 244 1118.66666667 288 1178 c 128
 332 1237.33333333 383 1288.66666667 441 1332 c 128
 499 1375.33333333 561.666666667 1407.83333333 629 1429.5 c 128
 696.333333333 1451.16666667 764.666666667 1462 834 1462 c 0
 934.666666667 1462 1028 1446.33333333 1114 1415 c 0
 1153.33333333 1400.33333333 1184.66666667 1393 1208 1393 c 0
 1228 1393 1243.66666667 1398.5 1255 1409.5 c 128
 1266.33333333 1420.5 1278 1438 1290 1462 c 1
 1334 1462 l 1
 1334 991 l 1
 1290 991 l 1
 1266 1089.66666667 1228.33333333 1174.33333333 1177 1245 c 0
 1161.66666667 1266.33333333 1145.66666667 1285.33333333 1129 1302 c 128
 1112.33333333 1318.66666667 1090.5 1335.83333333 1063.5 1353.5 c 128
 1036.5 1371.16666667 1003.5 1385 964.5 1395 c 128
 925.5 1405 882 1410 834 1410 c 0
 689.333333333 1410 577.5 1350.5 498.5 1231.5 c 128
 419.5 1112.5 380 939.333333333 380 712 c 0
 380 485.333333333 419.333333333 314 498 198 c 128
 576.666666667 82 688.666666667 24 834 24 c 0
 934.666666667 24 1013.16666667 56.8333333333 1069.5 122.5 c 128
 1125.83333333 188.166666667 1154 269.333333333 1154 366 c 2
 1154 512 l 1
 872 512 l 1
 872 564 l 1
 1588 564 l 1
 1588 512 l 1
 1374 512 l 1
 1373 0 l 1
 1329 0 l 1
 1319.66666667 22.6666666667 1308.83333333 39.8333333333 1296.5 51.5 c 128
 1284.16666667 63.1666666667 1267.66666667 69 1247 69 c 0
 1219.66666667 69 1180.66666667 58.6666666667 1130 38 c 0
 1024 -6 925.333333333 -28 834 -28 c 0
 746 -28 661.166666667 -11 579.5 23 c 128
 497.833333333 57 424.666666667 104.833333333 360 166.5 c 128
 295.333333333 228.166666667 243.5 306.333333333 204.5 401 c 128
 165.5 495.666666667 146 599.333333333 146 712 c 0
EndSplineSet
Fore
SplineSet
839 1462 m 1xbc
 977 1462 1189 1419 1334 1283 c 9
 1334 1199 l 17
 1212 1293 1081 1408 837 1410 c 1
 545 1410 380 1170 380 712 c 1
 380 342 494 24 834 24 c 1xbc
 1058 24 1154 198 1154 366 c 9
 1154 564 l 25
 1374 564 l 25
 1373 0 l 25
 1328 0 l 17x7c
 1310 50 1284 69 1246 69 c 1
 1158 69 1040 -28 833 -28 c 1
 469 -28 146 258 146 714 c 1
 146 1162 464 1462 839 1462 c 1xbc
EndSplineSet
Validated: 1
EndChar

StartChar: H
Encoding: 299 72 43
Width: 1236
GlyphClass: 2
Flags: W
HStem: 0 21G<142 350 926 1134> 726 52<350 926> 1414 20G<142 350 926 1134>
VStem: 142 208<0 726 778 1434> 926 208<0 726 778 1434>
LayerCount: 2
Back
SplineSet
122 0 m 1
 122 52 l 1
 314 52 l 1
 314 1382 l 1
 122 1382 l 1
 122 1434 l 1
 714 1434 l 1
 714 1382 l 1
 522 1382 l 1
 522 778 l 1
 1098 778 l 1
 1098 1382 l 1
 906 1382 l 1
 906 1434 l 1
 1498 1434 l 1
 1498 1382 l 1
 1306 1382 l 1
 1306 52 l 1
 1498 52 l 1
 1498 0 l 1
 906 0 l 1
 906 52 l 1
 1098 52 l 1
 1098 726 l 1
 522 726 l 1
 522 52 l 1
 714 52 l 1
 714 0 l 1
 122 0 l 1
EndSplineSet
Fore
SplineSet
142 1434 m 25
 350 1434 l 25
 350 778 l 25
 926 778 l 25
 926 1434 l 25
 1134 1434 l 25
 1134 0 l 25
 926 0 l 25
 926 726 l 25
 350 726 l 25
 350 0 l 25
 142 0 l 25
 142 1434 l 25
EndSplineSet
Validated: 1
EndChar

StartChar: I
Encoding: 300 73 44
Width: 459
GlyphClass: 2
Flags: W
HStem: 0 21G<142 350> 1414 20G<142 350>
VStem: 142 208<0 1434>
LayerCount: 2
Back
SplineSet
122 0 m 1
 122 52 l 1
 314 52 l 1
 314 1382 l 1
 122 1382 l 1
 122 1434 l 1
 714 1434 l 1
 714 1382 l 1
 522 1382 l 1
 522 52 l 1
 714 52 l 1
 714 0 l 1
 122 0 l 1
EndSplineSet
Fore
SplineSet
142 1434 m 25
 350 1434 l 25
 350 0 l 25
 142 0 l 25
 142 1434 l 25
EndSplineSet
Validated: 1
EndChar

StartChar: J
Encoding: 301 74 45
Width: 772
GlyphClass: 2
Flags: W
HStem: -18 52<279.856 406.929> 1414 20G<458 666>
VStem: 96 176<57.1773 242.708> 458 208<166.247 1434>
LayerCount: 2
Back
SplineSet
96 192 m 0
 96 228 108.5 260 133.5 288 c 128
 158.5 316 189.333333333 330 226 330 c 0
 258 330 283 321 301 303 c 128
 319 285 328 261.666666667 328 233 c 0
 328 207.666666667 317.333333333 179 296 147 c 0
 280 123.666666667 272 102.333333333 272 83 c 0
 272 69 277.5 57.3333333333 288.5 48 c 128
 299.5 38.6666666667 314.666666667 34 334 34 c 0
 355.333333333 34 373.666666667 38 389 46 c 128
 404.333333333 54 416.333333333 64 425 76 c 128
 433.666666667 88 440.666666667 103.166666667 446 121.5 c 128
 451.333333333 139.833333333 454.666666667 157 456 173 c 128
 457.333333333 189 458 207.333333333 458 228 c 2
 458 1382 l 1
 266 1382 l 1
 266 1434 l 1
 858 1434 l 1
 858 1382 l 1
 666 1382 l 1
 666 386 l 2
 666 345.333333333 662.5 306.5 655.5 269.5 c 128
 648.5 232.5 636.666666667 196.166666667 620 160.5 c 128
 603.333333333 124.833333333 582.166666667 94 556.5 68 c 128
 530.833333333 42 498 21.1666666667 458 5.5 c 128
 418 -10.1666666667 372.666666667 -18 322 -18 c 0
 257.333333333 -18 203.5 0.5 160.5 37.5 c 128
 117.5 74.5 96 126 96 192 c 0
EndSplineSet
Fore
SplineSet
458 1434 m 25
 666 1434 l 25
 666 377 l 17
 666 200 586 -18 326 -18 c 1
 184 -18 96 65 96 190 c 1
 96 266 152 330 227 330 c 1
 294 330 328 286 328 237 c 1
 328 164 272 140 272 81 c 1
 272 56 294 34 334 34 c 1
 397 34 433 70 447 126 c 0
 458 170 458 191 458 282 c 9
 458 1434 l 25
EndSplineSet
Validated: 1
EndChar

StartChar: K
Encoding: 302 75 46
Width: 1333
GlyphClass: 2
Flags: W
HStem: 0 21G<122 330 964.63 1244> 1414 20G<122 330 928.72 1015>
VStem: 122 208<0 694 757 1434>
LayerCount: 2
Back
SplineSet
122 0 m 1
 122 52 l 1
 314 52 l 1
 314 1382 l 1
 122 1382 l 1
 122 1434 l 1
 714 1434 l 1
 714 1382 l 1
 522 1382 l 1
 522 757 l 1
 624 804 l 1
 1095 1382 l 1
 863 1382 l 1
 863 1434 l 1
 1368 1434 l 1
 1368 1382 l 1
 1165 1382 l 1
 782 912 l 1
 1399 52 l 1
 1574 52 l 1
 1574 0 l 1
 893 0 l 1
 893 52 l 1
 1133 52 l 1
 635 746 l 1
 522 694 l 1
 522 52 l 1
 714 52 l 1
 714 0 l 1
 122 0 l 1
EndSplineSet
Fore
SplineSet
122 1434 m 1
 330 1434 l 25
 330 757 l 25
 433 805 l 25
 945 1434 l 25
 1015 1434 l 25
 590 912 l 25
 1244 0 l 25
 979 0 l 25
 443 746 l 25
 330 694 l 25
 330 0 l 25
 122 0 l 25
 122 1434 l 1
EndSplineSet
Validated: 1
EndChar

StartChar: L
Encoding: 303 76 47
Width: 1194
GlyphClass: 2
Flags: W
HStem: 0 52<340 1100> 1414 20G<132 340>
VStem: 132 208<52 1434>
LayerCount: 2
Back
SplineSet
122 0 m 1
 122 52 l 1
 314 52 l 1
 314 1382 l 1
 122 1382 l 1
 122 1434 l 1
 714 1434 l 1
 714 1382 l 1
 522 1382 l 1
 522 52 l 1
 820 52 l 2
 888 52 946.666666667 62.3333333333 996 83 c 128
 1045.33333333 103.666666667 1088 139.333333333 1124 190 c 0
 1162 244 1189.5 298 1206.5 352 c 128
 1223.5 406 1236 468.666666667 1244 540 c 1
 1304 540 l 1
 1282 0 l 1
 122 0 l 1
EndSplineSet
Fore
SplineSet
1100 0 m 25
 132 0 l 25
 132 1434 l 25
 340 1434 l 25
 340 52 l 25
 1102 52 l 17
 1100 0 l 25
EndSplineSet
Validated: 1
EndChar

StartChar: M
Encoding: 304 77 48
Width: 1475
GlyphClass: 2
Flags: W
HStem: 0 21G<132 196 634.673 707.662 1158 1366> 1381 53<196 204>
VStem: 132 64<0 1381> 1158 208<0 1332>
LayerCount: 2
Back
SplineSet
102 0 m 1
 102 52 l 1
 306 52 l 1
 306 1382 l 1
 102 1382 l 1
 102 1434 l 1
 585 1434 l 1
 933 334 l 1
 1298 1434 l 1
 1732 1434 l 1
 1732 1382 l 1
 1540 1382 l 1
 1540 52 l 1
 1732 52 l 1
 1732 0 l 1
 1140 0 l 1
 1140 52 l 1
 1332 52 l 1
 1332 1332 l 1
 1328 1332 l 1
 875 -28 l 1
 815 -28 l 1
 390 1315 l 2
 382 1339 378 1361.33333333 378 1382 c 1
 370 1382 l 1
 370 52 l 1
 574 52 l 1
 574 0 l 1
 102 0 l 1
EndSplineSet
Fore
SplineSet
132 1434 m 25
 411 1434 l 25
 759 334 l 25
 1124 1434 l 25
 1366 1434 l 25
 1366 0 l 25
 1158 0 l 25
 1158 1332 l 17
 1154 1332 l 0
 701 -28 l 9
 641 -28 l 25
 212 1328 l 17
 206 1347 204 1364 204 1381 c 9
 196 1381 l 25
 196 0 l 25
 132 0 l 25
 132 1434 l 25
EndSplineSet
Validated: 1
EndChar

StartChar: N
Encoding: 305 78 49
Width: 1206
GlyphClass: 2
Flags: W
HStem: -7 7G<132 196 1027.84 1100> 1414 20G<132 438.164 1036 1100>
VStem: 132 64<0 1382> 1036 64<431 1434>
LayerCount: 2
Back
SplineSet
102 0 m 1
 102 52 l 1
 306 52 l 1
 306 1382 l 1
 102 1382 l 1
 102 1434 l 1
 600 1434 l 1
 1210 431 l 1
 1210 1382 l 1
 1006 1382 l 1
 1006 1434 l 1
 1478 1434 l 1
 1478 1382 l 1
 1274 1382 l 1
 1274 -28 l 1
 1214 -28 l 1
 393 1322 l 2
 381.666666667 1340.66666667 376 1360.66666667 376 1382 c 1
 370 1382 l 1
 370 52 l 1
 574 52 l 1
 574 0 l 1
 102 0 l 1
EndSplineSet
Fore
SplineSet
132 1434 m 25
 426 1434 l 25
 1036 431 l 25
 1036 1434 l 25
 1100 1434 l 25
 1100 -28 l 25
 1040 -28 l 17
 214 1331 l 1
 206 1347 202 1364 202 1382 c 9
 196 1382 l 25
 196 0 l 25
 132 0 l 25
 132 1434 l 25
EndSplineSet
Validated: 1
EndChar

StartChar: O
Encoding: 306 79 50
Width: 1618
GlyphClass: 2
Flags: W
HStem: -28 52<689.868 980.417> 1410 52<686.181 980.066>
VStem: 146 234<445.229 985.589> 1288 234<447.998 980.909>
LayerCount: 2
Back
SplineSet
146 712 m 0
 146 802.666666667 158.666666667 888.166666667 184 968.5 c 128
 209.333333333 1048.83333333 244 1118.66666667 288 1178 c 128
 332 1237.33333333 383 1288.66666667 441 1332 c 128
 499 1375.33333333 561.666666667 1407.83333333 629 1429.5 c 128
 696.333333333 1451.16666667 764.666666667 1462 834 1462 c 128
 903.333333333 1462 971.666666667 1451.16666667 1039 1429.5 c 128
 1106.33333333 1407.83333333 1169 1375.33333333 1227 1332 c 128
 1285 1288.66666667 1336 1237.33333333 1380 1178 c 128
 1424 1118.66666667 1458.66666667 1048.83333333 1484 968.5 c 128
 1509.33333333 888.166666667 1522 802.666666667 1522 712 c 0
 1522 599.333333333 1502.5 495.666666667 1463.5 401 c 128
 1424.5 306.333333333 1372.66666667 228.166666667 1308 166.5 c 128
 1243.33333333 104.833333333 1170.16666667 57 1088.5 23 c 128
 1006.83333333 -11 922 -28 834 -28 c 128
 746 -28 661.166666667 -11 579.5 23 c 128
 497.833333333 57 424.666666667 104.833333333 360 166.5 c 128
 295.333333333 228.166666667 243.5 306.333333333 204.5 401 c 128
 165.5 495.666666667 146 599.333333333 146 712 c 0
380 712 m 0
 380 485.333333333 419.333333333 314 498 198 c 128
 576.666666667 82 688.666666667 24 834 24 c 128
 979.333333333 24 1091.33333333 82 1170 198 c 128
 1248.66666667 314 1288 485.333333333 1288 712 c 0
 1288 939.333333333 1248.5 1112.5 1169.5 1231.5 c 128
 1090.5 1350.5 978.666666667 1410 834 1410 c 128
 689.333333333 1410 577.5 1350.5 498.5 1231.5 c 128
 419.5 1112.5 380 939.333333333 380 712 c 0
EndSplineSet
Fore
SplineSet
834 1410 m 1
 554 1410 380 1184 380 712 c 1
 380 468 428 24 835 24 c 1
 1194 24 1288 376 1288 713 c 1
 1288 966 1238 1410 834 1410 c 1
835 1462 m 1
 1122 1462 1522 1234 1522 712 c 1
 1522 234 1170 -28 835 -28 c 1
 454 -28 146 276 146 711 c 1
 146 1164 470 1462 835 1462 c 1
EndSplineSet
Validated: 1
EndChar

StartChar: P
Encoding: 307 80 51
Width: 1180
GlyphClass: 2
Flags: W
HStem: 0 21G<132 340> 588 52<340 764.955> 1382 52<340 680.246>
VStem: 132 208<0 588 640 1382> 876 224<787.037 1154.45>
LayerCount: 2
Back
SplineSet
122 0 m 1
 122 52 l 1
 314 52 l 1
 314 1382 l 1
 122 1382 l 1
 122 1434 l 1
 748 1434 l 2
 810 1434 872.333333333 1424.66666667 935 1406 c 128
 997.666666667 1387.33333333 1050 1362 1092 1330 c 0
 1218.66666667 1232.66666667 1282 1111.33333333 1282 966 c 0
 1282 851.333333333 1242 759.666666667 1162 691 c 128
 1082 622.333333333 980.666666667 588 858 588 c 2
 522 588 l 1
 522 52 l 1
 714 52 l 1
 714 0 l 1
 122 0 l 1
522 640 m 1
 838 640 l 2
 872.666666667 640 902.833333333 645.666666667 928.5 657 c 128
 954.166666667 668.333333333 975.166666667 683.666666667 991.5 703 c 128
 1007.83333333 722.333333333 1021 746.666666667 1031 776 c 128
 1041 805.333333333 1048 836.5 1052 869.5 c 128
 1056 902.5 1058 940 1058 982 c 0
 1058 1017.33333333 1055.33333333 1051.5 1050 1084.5 c 128
 1044.66666667 1117.5 1035.66666667 1151.5 1023 1186.5 c 128
 1010.33333333 1221.5 991.5 1253.66666667 966.5 1283 c 128
 941.5 1312.33333333 911.333333333 1336 876 1354 c 0
 839.333333333 1372.66666667 784 1382 710 1382 c 2
 522 1382 l 1
 522 640 l 1
EndSplineSet
Fore
SplineSet
340 640 m 25
 664 640 l 17
 867 640 876 863 876 979 c 1
 876 1248 744 1382 556 1382 c 9
 340 1382 l 25
 340 640 l 25
132 1434 m 25
 572 1434 l 17
 870 1434 1100 1229 1100 974 c 1
 1100 676 852 588 680 588 c 9
 340 588 l 25
 340 0 l 25
 132 0 l 25
 132 1434 l 25
EndSplineSet
Validated: 1
EndChar

StartChar: Q
Encoding: 308 81 52
Width: 1618
GlyphClass: 2
Flags: W
HStem: -482 54<1342.1 1581.85> -28 52<742.378 980.642> 1410 52<684.106 983.984>
VStem: 146 234<446.326 987.725> 1288 234<447.003 981.391>
LayerCount: 2
Back
SplineSet
146 712 m 0
 146 802.666666667 158.666666667 888.166666667 184 968.5 c 128
 209.333333333 1048.83333333 244 1118.66666667 288 1178 c 128
 332 1237.33333333 383 1288.66666667 441 1332 c 128
 499 1375.33333333 561.666666667 1407.83333333 629 1429.5 c 128
 696.333333333 1451.16666667 764.666666667 1462 834 1462 c 128
 903.333333333 1462 971.666666667 1451.16666667 1039 1429.5 c 128
 1106.33333333 1407.83333333 1169 1375.33333333 1227 1332 c 128
 1285 1288.66666667 1336 1237.33333333 1380 1178 c 128
 1424 1118.66666667 1458.66666667 1048.83333333 1484 968.5 c 128
 1509.33333333 888.166666667 1522 802.666666667 1522 712 c 0
 1522 599.333333333 1502.5 495.666666667 1463.5 401 c 128
 1424.5 306.333333333 1372.66666667 228.166666667 1308 166.5 c 128
 1243.33333333 104.833333333 1170.16666667 57 1088.5 23 c 128
 1006.83333333 -11 922 -28 834 -28 c 0
 817.333333333 -28 802.333333333 -26.6666666667 789 -24 c 1
 787 -29 l 1
 807 -41 827.333333333 -57.3333333333 848 -78 c 0
 878 -108 922.666666667 -126.666666667 982 -134 c 0
 1036 -140.666666667 1082.16666667 -155.166666667 1120.5 -177.5 c 128
 1158.83333333 -199.833333333 1193.33333333 -233.666666667 1224 -279 c 0
 1248.66666667 -315 1267.5 -340.166666667 1280.5 -354.5 c 128
 1293.5 -368.833333333 1311.66666667 -383.333333333 1335 -398 c 0
 1367.66666667 -418 1408.66666667 -428 1458 -428 c 0
 1501.33333333 -428 1543.33333333 -419.333333333 1584 -402 c 1
 1602 -450 l 1
 1548 -471.333333333 1484.66666667 -482 1412 -482 c 0
 1332 -482 1252.16666667 -473.666666667 1172.5 -457 c 128
 1092.83333333 -440.333333333 1032.66666667 -418 992 -390 c 0
 920 -341.333333333 865.666666667 -273.666666667 829 -187 c 0
 819.666666667 -164.333333333 810.666666667 -145.166666667 802 -129.5 c 128
 793.333333333 -113.833333333 782.166666667 -96.8333333333 768.5 -78.5 c 128
 754.833333333 -60.1666666667 738.5 -44.8333333333 719.5 -32.5 c 128
 700.5 -20.1666666667 679.333333333 -10.6666666667 656 -4 c 0
 588 14.6666666667 524 43.8333333333 464 83.5 c 128
 404 123.166666667 350 172.333333333 302 231 c 128
 254 289.666666667 216 360.5 188 443.5 c 128
 160 526.5 146 616 146 712 c 0
380 712 m 0
 380 485.333333333 419.333333333 314 498 198 c 128
 576.666666667 82 688.666666667 24 834 24 c 128
 979.333333333 24 1091.33333333 82 1170 198 c 128
 1248.66666667 314 1288 485.333333333 1288 712 c 0
 1288 939.333333333 1248.5 1112.5 1169.5 1231.5 c 128
 1090.5 1350.5 978.666666667 1410 834 1410 c 128
 689.333333333 1410 577.5 1350.5 498.5 1231.5 c 128
 419.5 1112.5 380 939.333333333 380 712 c 0
EndSplineSet
Fore
SplineSet
380 709 m 1
 380 503 413 24 836 24 c 1
 1221 24 1288 431 1288 710 c 1
 1288 1049 1192 1410 834 1410 c 1
 470 1410 380 1040 380 709 c 1
834 1462 m 1
 1199 1462 1522 1162 1522 714 c 1
 1522 243 1177 -28 839 -28 c 1
 822 -28 806 -27 789 -24 c 1
 787 -29 l 1
 832 -56 851 -90 889 -108 c 1
 950 -144 1070 -126 1153 -200 c 1
 1210 -244 1246 -320 1291 -366 c 1
 1323 -399 1389 -428 1456 -428 c 1
 1496 -428 1538 -422 1584 -402 c 9
 1602 -450 l 17
 1544 -473 1481 -482 1413 -482 c 0
 1409 -482 1406 -482 1402 -482 c 1
 1179 -473 1054 -435 980 -382 c 1
 825 -264 856 -188 761 -70 c 1
 734 -36 696 -15 651 -3 c 1
 252 124 146 462 146 712 c 1
 146 1169 476 1462 834 1462 c 1
EndSplineSet
Validated: 1
EndChar

StartChar: R
Encoding: 309 82 53
Width: 1308
GlyphClass: 2
Flags: W
HStem: -16 60<1062.9 1282.8> 0 21G<132 340> 736 52<340 677.75> 1382 52<340 632.001>
VStem: 132 208<0 736 788 1382> 776 208<917.48 1249.83> 806 208<82.6278 599.479>
LayerCount: 2
Back
SplineSet
122 0 m 1
 122 52 l 1
 314 52 l 1
 314 1382 l 1
 122 1382 l 1
 122 1434 l 1
 726 1434 l 2
 802 1434 869.333333333 1424 928 1404 c 128
 986.666666667 1384 1032.66666667 1356.83333333 1066 1322.5 c 128
 1099.33333333 1288.16666667 1124.33333333 1250.83333333 1141 1210.5 c 128
 1157.66666667 1170.16666667 1166 1127.66666667 1166 1083 c 0
 1166 996.333333333 1140.66666667 926.833333333 1090 874.5 c 128
 1039.33333333 822.166666667 970 786 882 766 c 1
 882 754 l 1
 984 738 1061.83333333 702.333333333 1115.5 647 c 128
 1169.16666667 591.666666667 1196 527.333333333 1196 454 c 2
 1196 236 l 2
 1196 166 1207.5 116.5 1230.5 87.5 c 128
 1253.5 58.5 1292.33333333 44 1347 44 c 0
 1385 44 1424.66666667 51.6666666667 1466 67 c 1
 1478 17 l 1
 1411.33333333 -5 1341.66666667 -16 1269 -16 c 0
 1236.33333333 -16 1205 -12.1666666667 1175 -4.5 c 128
 1145 3.16666666667 1115.16666667 15.6666666667 1085.5 33 c 128
 1055.83333333 50.3333333333 1032.16666667 76.3333333333 1014.5 111 c 128
 996.833333333 145.666666667 988 187 988 235 c 2
 988 469 l 2
 988 544.333333333 967.833333333 607.666666667 927.5 659 c 128
 887.166666667 710.333333333 826.666666667 736 746 736 c 2
 522 736 l 1
 522 52 l 1
 714 52 l 1
 714 0 l 1
 122 0 l 1
522 788 m 1
 778 788 l 2
 814 788 844.166666667 795 868.5 809 c 128
 892.833333333 823 911.333333333 843.166666667 924 869.5 c 128
 936.666666667 895.833333333 945.5 924.5 950.5 955.5 c 128
 955.5 986.5 958 1023 958 1065 c 0
 958 1104.33333333 953.5 1142 944.5 1178 c 128
 935.5 1214 921.833333333 1247.66666667 903.5 1279 c 128
 885.166666667 1310.33333333 859.333333333 1335.33333333 826 1354 c 128
 792.666666667 1372.66666667 754 1382 710 1382 c 2
 522 1382 l 1
 522 788 l 1
EndSplineSet
Fore
SplineSet
340 788 m 25x3c
 601 788 l 17
 753 788 776 932 776 1061 c 1
 776 1200 718 1382 536 1382 c 9
 340 1382 l 25
 340 788 l 25x3c
132 1434 m 25
 557 1434 l 17
 836 1434 984 1277 984 1083 c 1x7c
 984 886 848 801 700 766 c 9
 700 754 l 17
 854 736 1014 632 1014 456 c 9
 1014 237 l 17
 1014 90 1062 44 1165 44 c 1
 1206 44 1245 54 1284 66 c 9
 1296 17 l 17
 1229 -4 1161 -15 1092 -16 c 1xba
 1000 -16 921 13 878 52 c 0
 835 91 806 148 806 231 c 9
 806 471 l 17
 806 600 738 736 570 736 c 9
 340 736 l 25
 340 0 l 25
 132 0 l 25x7a
 132 1434 l 25
EndSplineSet
Validated: 1
EndChar

StartChar: S
Encoding: 310 83 54
Width: 1272
GlyphClass: 2
Flags: W
HStem: -29 53<545.613 842.873> 1410 52<522.735 806.523>
VStem: 232 136<1034.91 1249> 1016 148<222.372 463.861>
LayerCount: 2
Back
SplineSet
188 476 m 1
 232 476 l 1
 251.333333333 374 289 284.666666667 345 208 c 0
 387 150 437.5 104.833333333 496.5 72.5 c 128
 555.5 40.1666666667 620 24 690 24 c 0
 792 24 871.833333333 49.6666666667 929.5 101 c 128
 987.166666667 152.333333333 1016 222.666666667 1016 312 c 0
 1016 395.333333333 986.666666667 464.5 928 519.5 c 128
 869.333333333 574.5 777.333333333 618 652 650 c 0
 604 662 561.333333333 674.833333333 524 688.5 c 128
 486.666666667 702.166666667 449 720 411 742 c 128
 373 764 341.5 788.666666667 316.5 816 c 128
 291.5 843.333333333 271.166666667 876.833333333 255.5 916.5 c 128
 239.833333333 956.166666667 232 1000.33333333 232 1049 c 0
 232 1172.33333333 270.333333333 1272 347 1348 c 128
 423.666666667 1424 529.333333333 1462 664 1462 c 0
 724 1462 778.666666667 1451.66666667 828 1431 c 0
 876.666666667 1411 910.333333333 1401 929 1401 c 0
 957 1401 975.333333333 1421.33333333 984 1462 c 1
 1028 1462 l 1
 1032 1091 l 1
 988 1091 l 1
 965.333333333 1156.33333333 933.666666667 1219 893 1279 c 0
 868.333333333 1316.33333333 833.166666667 1347.5 787.5 1372.5 c 128
 741.833333333 1397.5 696.333333333 1410 651 1410 c 0
 566.333333333 1410 498 1385.66666667 446 1337 c 128
 394 1288.33333333 368 1229.66666667 368 1161 c 0
 368 1127 375.333333333 1096.16666667 390 1068.5 c 128
 404.666666667 1040.83333333 422.333333333 1018 443 1000 c 128
 463.666666667 982 491.666666667 964.833333333 527 948.5 c 128
 562.333333333 932.166666667 593.333333333 919.833333333 620 911.5 c 128
 646.666666667 903.166666667 680.666666667 893.333333333 722 882 c 0
 795.333333333 862 857.833333333 839.833333333 909.5 815.5 c 128
 961.166666667 791.166666667 1006.83333333 761 1046.5 725 c 128
 1086.16666667 689 1115.66666667 645.5 1135 594.5 c 128
 1154.33333333 543.5 1164 484 1164 416 c 0
 1164 283.333333333 1118 176.166666667 1026 94.5 c 128
 934 12.8333333333 821 -28 687 -28 c 0
 606.333333333 -28 522.666666667 -7 436 35 c 0
 398 53 371.666666667 62 357 62 c 0
 327 62 304.333333333 55.3333333333 289 42 c 128
 273.666666667 28.6666666667 258 5.33333333333 242 -28 c 1
 198 -28 l 1
 188 476 l 1
EndSplineSet
Fore
SplineSet
666 1462 m 1
 809 1462 938 1400 1030 1340 c 9
 1030 1275 l 17
 944 1336 796 1409 651 1410 c 1
 476 1410 368 1292 368 1165 c 1
 368 997 531 936 674 895 c 0
 761 870 896 838 997 764 c 0
 1098 690 1164 595 1164 417 c 0
 1164 129 923 -29 690 -29 c 1
 523 -29 292 88 195 146 c 9
 193 217 l 17
 290 152 533 24 695 24 c 1
 930 24 1016 169 1016 311 c 1
 1016 572 731 626 618 659 c 1
 436 713 232 800 232 1045 c 1
 232 1302 395 1462 666 1462 c 1
EndSplineSet
Validated: 1
EndChar

StartChar: T
Encoding: 311 84 55
Width: 1564
GlyphClass: 2
Flags: W
HStem: 0 21G<708 916> 1382 52<158 708 916 1466>
VStem: 708 208<0 1382>
LayerCount: 2
Back
SplineSet
134 846 m 1
 158 1434 l 1
 1466 1434 l 1
 1490 846 l 1
 1438 846 l 1
 1423.33333333 1008.66666667 1386.66666667 1133.33333333 1328 1220 c 0
 1255.33333333 1328 1160.66666667 1382 1044 1382 c 2
 916 1382 l 1
 916 52 l 1
 1108 52 l 1
 1108 0 l 1
 516 0 l 1
 516 52 l 1
 708 52 l 1
 708 1382 l 1
 580 1382 l 2
 463.333333333 1382 368.666666667 1328 296 1220 c 0
 237.333333333 1133.33333333 200.666666667 1008.66666667 186 846 c 1
 134 846 l 1
EndSplineSet
Fore
SplineSet
158 1434 m 25
 1466 1434 l 25
 1468 1382 l 25
 916 1382 l 25
 916 0 l 25
 708 0 l 25
 708 1382 l 25
 156 1382 l 25
 158 1434 l 25
EndSplineSet
Validated: 1
EndChar

StartChar: U
Encoding: 312 85 56
Width: 1272
GlyphClass: 2
Flags: W
HStem: -28 52<508.341 826.935> 1414 20G<132 340 1076 1140>
VStem: 132 208<207.031 1434> 1076 64<243.987 1434>
LayerCount: 2
Back
SplineSet
88 1382 m 1
 88 1434 l 1
 680 1434 l 1
 680 1382 l 1
 488 1382 l 1
 488 324 l 2
 488 266.666666667 496.166666667 217.833333333 512.5 177.5 c 128
 528.833333333 137.166666667 552.166666667 106.166666667 582.5 84.5 c 128
 612.833333333 62.8333333333 646 47.3333333333 682 38 c 128
 718 28.6666666667 759.333333333 24 806 24 c 0
 933.333333333 24 1034.83333333 57.3333333333 1110.5 124 c 128
 1186.16666667 190.666666667 1224 287.333333333 1224 414 c 2
 1224 1382 l 1
 1020 1382 l 1
 1020 1434 l 1
 1492 1434 l 1
 1492 1382 l 1
 1288 1382 l 1
 1288 406 l 2
 1288 265.333333333 1244.83333333 157.833333333 1158.5 83.5 c 128
 1072.16666667 9.16666666667 954.666666667 -28 806 -28 c 0
 455.333333333 -28 280 126.666666667 280 436 c 2
 280 1382 l 1
 88 1382 l 1
EndSplineSet
Fore
SplineSet
132 1434 m 25
 340 1434 l 1
 340 320 l 17
 340 206 371 24 658 24 c 1
 932 24 1076 182 1076 408 c 9
 1076 1434 l 25
 1140 1434 l 25
 1140 400 l 17
 1140 158 986 -28 659 -28 c 1
 164 -28 132 290 132 426 c 9
 132 1434 l 25
EndSplineSet
Validated: 1
EndChar

StartChar: V
Encoding: 313 86 57
Width: 1534
GlyphClass: 2
Flags: W
HStem: -28 21G<766.572 840.553> 1414 20G<231 478.405 1238.46 1313>
LayerCount: 2
Back
SplineSet
68 1382 m 1
 68 1434 l 1
 740 1434 l 1
 740 1382 l 1
 490 1382 l 1
 882 325 l 1
 1228 1382 l 1
 1018 1382 l 1
 1018 1434 l 1
 1514 1434 l 1
 1514 1382 l 1
 1296 1382 l 1
 834 -28 l 1
 774 -28 l 1
 250 1382 l 1
 68 1382 l 1
EndSplineSet
Fore
SplineSet
231 1434 m 25
 471 1434 l 25
 882 324 l 25
 1245 1434 l 29
 1313 1434 l 25
 834 -28 l 25
 774 -28 l 25
 231 1434 l 25
EndSplineSet
Validated: 1
EndChar

StartChar: W
Encoding: 314 87 58
Width: 2047
GlyphClass: 2
Flags: W
HStem: -28 21G<613.187 686.899 1433.32 1505.81> 1414 20G<122 362.804 952 1189.67 1860.19 1925>
LayerCount: 2
Back
SplineSet
68 1382 m 1
 68 1434 l 1
 664 1434 l 1
 664 1382 l 1
 460 1382 l 1
 823 314 l 1
 1122 1182 l 1
 1055 1382 l 1
 886 1382 l 1
 886 1434 l 1
 1482 1434 l 1
 1482 1382 l 1
 1286 1382 l 1
 1634 340 l 1
 1937 1382 l 1
 1718 1382 l 1
 1718 1434 l 1
 2140 1434 l 1
 2140 1382 l 1
 1996 1382 l 1
 1586 -28 l 1
 1526 -28 l 1
 1152 1091 l 1
 766 -28 l 1
 706 -28 l 1
 226 1382 l 1
 68 1382 l 1
EndSplineSet
Fore
SplineSet
122 1434 m 25
 356 1434 l 25
 737 314 l 25
 1036 1182 l 25
 952 1434 l 25
 1183 1434 l 25
 1548 340 l 25
 1866 1434 l 25
 1925 1434 l 25
 1500 -28 l 25
 1440 -28 l 25
 1066 1091 l 1
 680 -28 l 25
 620 -28 l 25
 122 1434 l 25
EndSplineSet
Validated: 1
EndChar

StartChar: X
Encoding: 315 88 59
Width: 1425
GlyphClass: 2
Flags: W
HStem: 0 21G<136 214.727 1027.33 1293> 1414 20G<132 396.682 1034.28 1113>
LayerCount: 2
Back
SplineSet
72 0 m 1
 72 52 l 1
 288 52 l 1
 707 712 l 1
 283 1382 l 1
 72 1382 l 1
 72 1434 l 1
 788 1434 l 1
 788 1382 l 1
 536 1382 l 1
 834 912 l 1
 1133 1382 l 1
 928 1382 l 1
 928 1434 l 1
 1416 1434 l 1
 1416 1382 l 1
 1199 1382 l 1
 867 859 l 1
 1379 52 l 1
 1534 52 l 1
 1534 0 l 1
 814 0 l 1
 814 52 l 1
 1126 52 l 1
 741 660 l 1
 354 52 l 1
 622 52 l 1
 622 0 l 1
 72 0 l 1
EndSplineSet
Fore
SplineSet
132 1434 m 25
 384 1434 l 25
 715 912 l 25
 1047 1434 l 25
 1113 1434 l 25
 748 859 l 25
 1293 0 l 25
 1040 0 l 25
 622 660 l 25
 202 0 l 25
 136 0 l 25
 588 712 l 25
 132 1434 l 25
EndSplineSet
Validated: 1
EndChar

StartChar: Y
Encoding: 316 89 60
Width: 1462
GlyphClass: 2
Flags: W
HStem: 0 21G<688 896> 1414 20G<232 482.879 1210.01 1286>
VStem: 688 208<0 592>
LayerCount: 2
Back
SplineSet
68 1382 m 1
 68 1434 l 1
 740 1434 l 1
 740 1382 l 1
 500 1382 l 1
 862 717 l 1
 1194 1382 l 1
 982 1382 l 1
 982 1434 l 1
 1442 1434 l 1
 1442 1382 l 1
 1260 1382 l 1
 896 648 l 1
 896 52 l 1
 1088 52 l 1
 1088 0 l 1
 496 0 l 1
 496 52 l 1
 688 52 l 1
 688 592 l 1
 259 1382 l 1
 68 1382 l 1
EndSplineSet
Fore
SplineSet
232 1434 m 25
 472 1434 l 25
 862 717 l 25
 1220 1434 l 25
 1286 1434 l 29
 896 648 l 25
 896 0 l 25
 688 0 l 25
 688 592 l 25
 232 1434 l 25
EndSplineSet
Validated: 1
EndChar

StartChar: Z
Encoding: 317 90 61
Width: 1400
GlyphClass: 2
Flags: W
HStem: 0 52<431 1280> 1382 52<202 967>
LayerCount: 2
Back
SplineSet
160 921 m 1
 202 1434 l 1
 1224 1434 l 1
 1224 1390 l 1
 431 52 l 1
 822 52 l 2
 883.333333333 52 942 66.3333333333 998 95 c 128
 1054 123.666666667 1097.33333333 161.333333333 1128 208 c 0
 1164.66666667 262.666666667 1190.16666667 308.666666667 1204.5 346 c 128
 1218.83333333 383.333333333 1234 439 1250 513 c 1
 1302 513 l 1
 1280 0 l 1
 174 0 l 1
 174 48 l 1
 967 1382 l 1
 614 1382 l 2
 552 1382 498.333333333 1371 453 1349 c 128
 407.666666667 1327 368.333333333 1291.33333333 335 1242 c 0
 304.333333333 1196.66666667 280.166666667 1150.66666667 262.5 1104 c 128
 244.833333333 1057.33333333 228 996.333333333 212 921 c 1
 160 921 l 1
EndSplineSet
Fore
SplineSet
202 1434 m 25
 1224 1434 l 25
 1224 1390 l 25
 431 52 l 25
 1282 52 l 25
 1280 0 l 25
 174 0 l 25
 174 48 l 25
 967 1382 l 25
 198 1382 l 25
 202 1434 l 25
EndSplineSet
Validated: 1
EndChar

StartChar: bracketleft
Encoding: 318 91 62
Width: 780
GlyphClass: 2
Flags: W
HStem: -520 52<378 684> 1444 52<378 684>
VStem: 232 146<-468 1444>
LayerCount: 2
Back
SplineSet
232 -520 m 1
 232 1496 l 1
 684 1496 l 1
 684 1444 l 1
 378 1444 l 1
 378 -468 l 1
 684 -468 l 1
 684 -520 l 1
 232 -520 l 1
EndSplineSet
Fore
SplineSet
232 1496 m 25
 684 1496 l 25
 684 1444 l 25
 378 1444 l 25
 378 -468 l 25
 684 -468 l 25
 684 -520 l 25
 232 -520 l 25
 232 1496 l 25
EndSplineSet
Validated: 1
EndChar

StartChar: backslash
Encoding: 319 92 63
Width: 722
GlyphClass: 2
Flags: W
HStem: 1414 20G<80 186.708>
VStem: 80 562
LayerCount: 2
Back
SplineSet
80 1434 m 1
 182 1434 l 1
 642 -520 l 1
 540 -520 l 1
 80 1434 l 1
EndSplineSet
Fore
SplineSet
80 1434 m 25
 182 1434 l 25
 642 -520 l 25
 540 -520 l 29
 80 1434 l 25
EndSplineSet
Validated: 1
EndChar

StartChar: bracketright
Encoding: 320 93 64
Width: 780
GlyphClass: 2
Flags: W
HStem: -520 52<96 402> 1444 52<96 402>
VStem: 402 146<-468 1444>
LayerCount: 2
Back
SplineSet
96 -468 m 1
 402 -468 l 1
 402 1444 l 1
 96 1444 l 1
 96 1496 l 1
 548 1496 l 1
 548 -520 l 1
 96 -520 l 1
 96 -468 l 1
EndSplineSet
Fore
SplineSet
96 1496 m 25
 548 1496 l 25
 548 -520 l 29
 96 -520 l 25
 96 -468 l 25
 402 -468 l 25
 402 1444 l 25
 96 1444 l 25
 96 1496 l 25
EndSplineSet
Validated: 1
EndChar

StartChar: asciicircum
Encoding: 321 94 65
Width: 1152
GlyphClass: 2
Flags: W
HStem: 1442 20G<514.612 637.388>
LayerCount: 2
Back
SplineSet
42 736 m 1
 528 1462 l 1
 624 1462 l 1
 1110 736 l 1
 939 736 l 1
 521 1361 l 1
 102 736 l 1
 42 736 l 1
EndSplineSet
Fore
SplineSet
42 736 m 25
 528 1462 l 25
 624 1462 l 25
 1110 736 l 25
 939 736 l 29
 521 1361 l 25
 102 736 l 25
 42 736 l 25
EndSplineSet
Validated: 1
EndChar

StartChar: underscore
Encoding: 322 95 66
Width: 1024
GlyphClass: 2
Flags: W
HStem: -352 96<0 1024>
LayerCount: 2
Back
SplineSet
0 -256 m 1
 1024 -256 l 1
 1024 -352 l 1
 0 -352 l 1
 0 -256 l 1
EndSplineSet
Fore
SplineSet
0 -256 m 25
 1024 -256 l 25
 1024 -352 l 29
 0 -352 l 25
 0 -256 l 25
EndSplineSet
Validated: 1
EndChar

StartChar: grave
Encoding: 323 96 67
AltUni2: 0002cb.ffffffff.0
Width: 880
GlyphClass: 2
Flags: W
HStem: 1054 408
VStem: 265 273
LayerCount: 2
Back
SplineSet
260 1396 m 0
 260 1414.66666667 266.166666667 1430.33333333 278.5 1443 c 128
 290.833333333 1455.66666667 307.666666667 1462 329 1462 c 0
 373 1462 407.333333333 1428.33333333 432 1361 c 2
 538 1072 l 1
 506 1054 l 1
 311 1288 l 2
 277 1329.33333333 260 1365.33333333 260 1396 c 0
EndSplineSet
Fore
SplineSet
291 1453 m 1
 303 1459 316 1462 329 1462 c 0
 346 1462 364 1457 380 1444 c 0
 398 1430 411 1409 427 1375 c 9
 538 1072 l 25
 506 1054 l 25
 302 1299 l 17
 285 1322 272 1342 265 1368 c 0
 262 1378 261 1389 261 1398 c 0
 261 1421 270 1440 291 1453 c 1
EndSplineSet
Validated: 1
EndChar

StartChar: a
Encoding: 324 97 68
Width: 880
GlyphClass: 2
Flags: W
HStem: -16 72<327.197 489.173> 0 21G<608 770> 852 48<325.433 522.011>
VStem: 112 174<87.2862 348.894 619.434 767.486> 606 164<0 487 508.266 751.545>
LayerCount: 2
Back
SplineSet
112 193 m 0
 112 273 133.833333333 332.666666667 177.5 372 c 128
 221.166666667 411.333333333 283 436 363 446 c 0
 415 452.666666667 459 462.833333333 495 476.5 c 128
 531 490.166666667 568 509.333333333 606 534 c 1
 606 640 l 2
 606 664.666666667 603.333333333 688.333333333 598 711 c 128
 592.666666667 733.666666667 583.833333333 756.166666667 571.5 778.5 c 128
 559.166666667 800.833333333 540.666666667 818.666666667 516 832 c 128
 491.333333333 845.333333333 461.666666667 852 427 852 c 0
 387 852 351.666666667 843.333333333 321 826 c 128
 290.333333333 808.666666667 275 786.333333333 275 759 c 0
 275 745 279.666666667 727.333333333 289 706 c 0
 299 684.666666667 304 664 304 644 c 0
 304 624.666666667 296.833333333 607.833333333 282.5 593.5 c 128
 268.166666667 579.166666667 247 572 219 572 c 0
 187 572 163.166666667 580.5 147.5 597.5 c 128
 131.833333333 614.5 124 637.333333333 124 666 c 0
 124 726.666666667 154.5 780.833333333 215.5 828.5 c 128
 276.5 876.166666667 350 900 436 900 c 0
 552 900 636.666666667 869.166666667 690 807.5 c 128
 743.333333333 745.833333333 770 664 770 562 c 2
 770 159 l 2
 770 118.333333333 779.5 88.6666666667 798.5 70 c 128
 817.5 51.3333333333 841.333333333 42 870 42 c 0
 890 42 911.333333333 44.3333333333 934 49 c 1
 942 -2 l 1
 910 -11.3333333333 881.666666667 -16 857 -16 c 0
 793 -16 741.333333333 -5.16666666667 702 16.5 c 128
 662.666666667 38.1666666667 634 79.6666666667 616 141 c 1
 608 141 l 1
 575.333333333 91.6666666667 539 53.1666666667 499 25.5 c 128
 459 -2.16666666667 408 -16 346 -16 c 0
 276 -16 219.5 2.66666666667 176.5 40 c 128
 133.5 77.3333333333 112 128.333333333 112 193 c 0
286 209 m 0
 286 107 333.333333333 56 428 56 c 0
 462.666666667 56 495.333333333 69.3333333333 526 96 c 128
 556.666666667 122.666666667 583.333333333 156.666666667 606 198 c 1
 606 487 l 1
 574 466.333333333 543.833333333 450.833333333 515.5 440.5 c 128
 487.166666667 430.166666667 445.666666667 418 391 404 c 0
 321 386 286 321 286 209 c 0
EndSplineSet
Fore
SplineSet
428 56 m 1xb8
 506 56 563 124 606 198 c 9
 606 487 l 17
 560 455 505 434 442 418 c 1
 380 402 343 396 314 344 c 0
 297 314 286 271 286 212 c 1
 286 144 303 56 428 56 c 1xb8
770 0 m 25x78
 608 0 l 25x78
 608 141 l 17
 585 106 535 40 468 8 c 0
 435 -8 395 -16 348 -16 c 1xb8
 210 -16 112 57 112 195 c 1
 112 356 206 404 283 430 c 0
 321 443 369 446 409 453 c 1
 489 468 552 498 606 534 c 1
 606 635 l 1
 606 728 575 852 428 852 c 1
 356 852 275 819 275 760 c 1
 275 723 304 690 304 646 c 1
 304 605 276 572 220 572 c 1
 146 572 124 620 124 663 c 1
 124 725 153 776 203 818 c 0
 258 865 328 900 440 900 c 1
 759 900 770 641 770 547 c 0
 770 540 770 534 770 529 c 9
 770 171 l 25
 770 0 l 25x78
EndSplineSet
Validated: 1
EndChar

StartChar: b
Encoding: 325 98 69
Width: 1072
GlyphClass: 2
Flags: W
HStem: -16 60<473.682 656.46> 0 21G<142 306> 840 60<474.513 656.913> 1476 20G<142 306>
VStem: 142 164<0 162 214.826 671.718 722 1496> 792 184<207.204 675.422>
LayerCount: 2
Back
SplineSet
78 0 m 1
 78 48 l 1
 220 48 l 1
 220 1448 l 1
 78 1448 l 1
 78 1496 l 1
 384 1496 l 1
 384 722 l 1
 398 720 l 1
 468.666666667 840 564.333333333 900 685 900 c 0
 751.666666667 900 812 883.333333333 866 850 c 0
 925.333333333 813.333333333 971.5 760 1004.5 690 c 128
 1037.5 620 1054 537.333333333 1054 442 c 128
 1054 346.666666667 1037.5 264 1004.5 194 c 128
 971.5 124 925.333333333 70.6666666667 866 34 c 0
 812 0.666666666667 751.666666667 -16 685 -16 c 0
 564.333333333 -16 468.666666667 44 398 164 c 1
 384 162 l 1
 384 0 l 1
 78 0 l 1
384 442 m 128
 384 325.333333333 409 229.833333333 459 155.5 c 128
 509 81.1666666667 566 44 630 44 c 0
 686 44 732.5 62.5 769.5 99.5 c 128
 806.5 136.5 832.5 183.666666667 847.5 241 c 128
 862.5 298.333333333 870 365.333333333 870 442 c 128
 870 518.666666667 862.5 585.666666667 847.5 643 c 128
 832.5 700.333333333 806.5 747.5 769.5 784.5 c 128
 732.5 821.5 686 840 630 840 c 0
 566 840 509 802.833333333 459 728.5 c 128
 409 654.166666667 384 558.666666667 384 442 c 128
EndSplineSet
Fore
SplineSet
792 443 m 1xbc
 792 710 700 840 551 840 c 1
 450 840 306 715 306 441 c 1
 306 176 448 44 550 44 c 1
 650 44 792 105 792 443 c 1xbc
142 1496 m 25
 306 1496 l 25
 306 722 l 25
 320 720 l 17
 383 825 472 900 608 900 c 1
 821 900 976 723 976 442 c 1
 976 124 789 -16 606 -16 c 1xbc
 446 -16 369 88 319 164 c 1
 306 162 l 9
 306 0 l 25
 142 0 l 25x7c
 142 1496 l 25
EndSplineSet
Validated: 1
EndChar

StartChar: c
Encoding: 326 99 70
Width: 944
GlyphClass: 2
Flags: W
HStem: -16 57<441.491 667.093> 852 48<429.562 618.882>
VStem: 96 184<217.363 633.982> 668 162<588.934 783.336> 796 51<196.625 330>
LayerCount: 2
Back
SplineSet
96 432 m 0
 96 494 107.166666667 553.666666667 129.5 611 c 128
 151.833333333 668.333333333 182.333333333 718.166666667 221 760.5 c 128
 259.666666667 802.833333333 306.166666667 836.666666667 360.5 862 c 128
 414.833333333 887.333333333 472.666666667 900 534 900 c 0
 582 900 625.833333333 892 665.5 876 c 128
 705.166666667 860 736.5 839.666666667 759.5 815 c 128
 782.5 790.333333333 800 764.833333333 812 738.5 c 128
 824 712.166666667 830 687 830 663 c 0
 830 630.333333333 821 602 803 578 c 128
 785 554 758.666666667 542 724 542 c 0
 699.333333333 542 679.5 548.666666667 664.5 562 c 128
 649.5 575.333333333 642 592.666666667 642 614 c 128
 642 635.333333333 646.333333333 658 655 682 c 0
 663.666666667 705.333333333 668 729 668 753 c 0
 668 777.666666667 656.333333333 800.333333333 633 821 c 128
 609.666666667 841.666666667 574.333333333 852 527 852 c 0
 448.333333333 852 387.5 816 344.5 744 c 128
 301.5 672 280 577.333333333 280 460 c 0
 280 332 303.333333333 230.333333333 350 155 c 128
 396.666666667 79.6666666667 465.333333333 42 556 42 c 0
 591.333333333 42 623.166666667 48.3333333333 651.5 61 c 128
 679.833333333 73.6666666667 702.666666667 89.8333333333 720 109.5 c 128
 737.333333333 129.166666667 751.833333333 152 763.5 178 c 128
 775.166666667 204 783.333333333 229.5 788 254.5 c 128
 792.666666667 279.5 795.333333333 304.666666667 796 330 c 1
 848 330 l 1
 847.333333333 298 844.5 267.333333333 839.5 238 c 128
 834.5 208.666666667 824.5 178.166666667 809.5 146.5 c 128
 794.5 114.833333333 775.666666667 87.3333333333 753 64 c 128
 730.333333333 40.6666666667 699.5 21.5 660.5 6.5 c 128
 621.5 -8.5 576.666666667 -16 526 -16 c 0
 397.333333333 -16 293.5 25.3333333333 214.5 108 c 128
 135.5 190.666666667 96 298.666666667 96 432 c 0
EndSplineSet
Fore
SplineSet
96 433 m 1xe8
 96 668 271 900 537 900 c 1
 740 900 830 752 830 663 c 1
 830 620 809 542 724 542 c 1
 670 542 641 579 641 614 c 1
 641 667 668 694 668 748 c 1xf0
 668 821 598 852 528 852 c 1
 340 852 280 644 280 460 c 1
 280 192 383 41 553 41 c 1
 731 41 796 199 796 330 c 9
 847 330 l 17
 847 142 756 -16 532 -16 c 1
 251 -16 96 180 96 433 c 1xe8
EndSplineSet
Validated: 1
EndChar

StartChar: d
Encoding: 327 100 71
Width: 1040
GlyphClass: 2
Flags: W
HStem: -16 60<416.215 596.657> 0 21G<766 930> 840 60<414.36 598.018> 1476 20G<766 930>
VStem: 96 184<206.435 672.537> 766 164<0 162 212.354 671.204 722 1496>
LayerCount: 2
Back
SplineSet
96 442 m 128
 96 537.333333333 112.5 620 145.5 690 c 128
 178.5 760 224.666666667 813.333333333 284 850 c 0
 338 883.333333333 398.333333333 900 465 900 c 0
 585.666666667 900 681.333333333 840 752 720 c 1
 766 722 l 1
 766 1448 l 1
 560 1448 l 1
 560 1496 l 1
 930 1496 l 1
 930 48 l 1
 1072 48 l 1
 1072 0 l 1
 766 0 l 1
 766 162 l 1
 752 164 l 1
 681.333333333 44 585.666666667 -16 465 -16 c 0
 398.333333333 -16 338 0.666666666667 284 34 c 0
 224.666666667 70.6666666667 178.5 124 145.5 194 c 128
 112.5 264 96 346.666666667 96 442 c 128
280 442 m 128
 280 365.333333333 287.5 298.333333333 302.5 241 c 128
 317.5 183.666666667 343.5 136.5 380.5 99.5 c 128
 417.5 62.5 464 44 520 44 c 0
 584 44 641 81.1666666667 691 155.5 c 128
 741 229.833333333 766 325.333333333 766 442 c 128
 766 558.666666667 741 654.166666667 691 728.5 c 128
 641 802.833333333 584 840 520 840 c 0
 464 840 417.5 821.5 380.5 784.5 c 128
 343.5 747.5 317.5 700.333333333 302.5 643 c 128
 287.5 585.666666667 280 518.666666667 280 442 c 128
EndSplineSet
Fore
SplineSet
520 44 m 1xbc
 635 44 766 188 766 442 c 1
 766 695 635 840 521 840 c 1
 382 840 280 722 280 442 c 1
 280 174 374 44 520 44 c 1xbc
930 1496 m 25
 930 0 l 25
 766 0 l 25x7c
 766 162 l 17
 752 164 l 1
 683 48 590 -16 464 -16 c 1
 260 -16 96 150 96 443 c 1
 96 716 245 900 465 900 c 1
 594 900 684 833 752 720 c 9
 766 722 l 25
 766 1496 l 25
 930 1496 l 25
EndSplineSet
Validated: 1
EndChar

StartChar: e
Encoding: 328 101 72
Width: 962
GlyphClass: 2
Flags: W
HStem: -16 64<434.475 679.165> 480 48<281 685.906> 852 48<415.489 601.032>
VStem: 95 185<224.549 480 528 647.031> 698 172<530.045 722.776> 812 52<205.773 298>
LayerCount: 2
Back
SplineSet
96 430 m 0
 96 517.333333333 113.333333333 596.5 148 667.5 c 128
 182.666666667 738.5 233.166666667 795 299.5 837 c 128
 365.833333333 879 442.333333333 900 529 900 c 0
 582.333333333 900 631.333333333 889.333333333 676 868 c 128
 720.666666667 846.666666667 756.666666667 819.333333333 784 786 c 128
 811.333333333 752.666666667 832.5 716.333333333 847.5 677 c 128
 862.5 637.666666667 870 598.666666667 870 560 c 0
 870 531.333333333 865 510.833333333 855 498.5 c 128
 845 486.166666667 825.333333333 480 796 480 c 2
 280 480 l 1
 280 192 372 48 556 48 c 0
 628 48 686.333333333 71.3333333333 731 118 c 128
 775.666666667 164.666666667 802.666666667 224.666666667 812 298 c 1
 864 298 l 1
 861.333333333 260 853 223.166666667 839 187.5 c 128
 825 151.833333333 804.833333333 118.5 778.5 87.5 c 128
 752.166666667 56.5 717.166666667 31.5 673.5 12.5 c 128
 629.833333333 -6.5 580.666666667 -16 526 -16 c 0
 402 -16 299.333333333 25.3333333333 218 108 c 128
 136.666666667 190.666666667 96 298 96 430 c 0
281 528 m 1
 631 528 l 2
 659 528 677.166666667 535.666666667 685.5 551 c 128
 693.833333333 566.333333333 698 591 698 625 c 0
 698 687 682.5 740.333333333 651.5 785 c 128
 620.5 829.666666667 572.666666667 852 508 852 c 0
 476 852 447.166666667 845.5 421.5 832.5 c 128
 395.833333333 819.5 374.666666667 802.5 358 781.5 c 128
 341.333333333 760.5 327.333333333 735.5 316 706.5 c 128
 304.666666667 677.5 296.333333333 648.5 291 619.5 c 128
 285.666666667 590.5 282.333333333 560 281 528 c 1
EndSplineSet
Fore
SplineSet
281 528 m 9xf8
 634 528 l 17
 694 528 698 573 698 621 c 1
 698 741 645 852 509 852 c 1
 379 852 293 746 281 528 c 9xf8
530 900 m 1
 762 900 870 699 870 564 c 1xf8
 870 510 860 480 800 480 c 9
 280 480 l 17
 280 342 295 48 558 48 c 1
 734 48 800 197 812 298 c 9
 864 298 l 17xf4
 852 156 759 -16 529 -16 c 1
 264 -16 95 179 95 429 c 1
 95 704 273 900 530 900 c 1
EndSplineSet
Validated: 1
EndChar

StartChar: f
Encoding: 329 102 73
Width: 698
GlyphClass: 2
Flags: W
HStem: 0 21G<230 394> 836 48<84 230 394 610> 1464 48<523.13 658.158>
VStem: 230 164<0 836 884 1222.84> 676 158<1249.64 1446.68>
LayerCount: 2
Back
SplineSet
84 836 m 1
 84 884 l 1
 230 884 l 1
 230 954 l 2
 230 1100.66666667 259.666666667 1221.33333333 319 1316 c 0
 355 1374 400.166666667 1421.16666667 454.5 1457.5 c 128
 508.833333333 1493.83333333 564 1512 620 1512 c 0
 681.333333333 1512 732.333333333 1496 773 1464 c 128
 813.666666667 1432 834 1388 834 1332 c 0
 834 1291.33333333 824.5 1259.66666667 805.5 1237 c 128
 786.5 1214.33333333 763 1203 735 1203 c 0
 684.333333333 1203 659 1226.66666667 659 1274 c 0
 659 1288.66666667 662 1308.66666667 668 1334 c 0
 673.333333333 1354.66666667 676 1372.33333333 676 1387 c 0
 676 1410.33333333 670.5 1429 659.5 1443 c 128
 648.5 1457 627.333333333 1464 596 1464 c 0
 539.333333333 1464 491.5 1429.16666667 452.5 1359.5 c 128
 413.5 1289.83333333 394 1188.66666667 394 1056 c 2
 394 884 l 1
 610 884 l 1
 610 836 l 1
 394 836 l 1
 394 48 l 1
 536 48 l 1
 536 0 l 1
 88 0 l 1
 88 48 l 1
 230 48 l 1
 230 836 l 1
 84 836 l 1
EndSplineSet
Fore
SplineSet
230 0 m 25
 230 836 l 25
 84 836 l 25
 84 884 l 25
 230 884 l 17
 230 895 230 923 230 934 c 1
 230 1159 278 1260 342 1349 c 0
 430 1471 543 1512 622 1512 c 1
 680 1512 738 1495 779 1458 c 0
 812 1428 834 1394 834 1328 c 1
 834 1254 792 1203 736 1203 c 1
 713 1203 659 1204 659 1276 c 1
 659 1315 676 1346 676 1386 c 1
 676 1409 670 1433 657 1446 c 0
 645 1458 625 1464 596 1464 c 1
 479 1464 394 1309 394 1069 c 9
 394 884 l 25
 610 884 l 25
 610 836 l 25
 394 836 l 25
 394 0 l 25
 230 0 l 25
EndSplineSet
Validated: 1
EndChar

StartChar: g
Encoding: 330 103 74
Width: 1160
GlyphClass: 2
Flags: W
HStem: -630 60<361.338 671.294> -124 164<242.903 342> -94 164<402.481 780.183> 268 44<467.863 636.293> 829 71<895.469 1002.5> 860 40<471.921 629.094>
VStem: 128 126<-498.292 -255.173> 144 80<-2.5 211.44> 194 164<428.355 740.754> 746 164<428.916 740.472> 836 128<-395.469 -149.658> 983 129<719.612 828.175>
LayerCount: 2
Back
SplineSet
128 -376 m 0
 128 -326.666666667 145.666666667 -282.666666667 181 -244 c 128
 216.333333333 -205.333333333 270 -167.666666667 342 -131 c 1
 342 -124 l 1
 330 -124 317.333333333 -123.166666667 304 -121.5 c 128
 290.666666667 -119.833333333 273.833333333 -115.5 253.5 -108.5 c 128
 233.166666667 -101.5 215.5 -92.1666666667 200.5 -80.5 c 128
 185.5 -68.8333333333 172.333333333 -51.3333333333 161 -28 c 128
 149.666666667 -4.66666666667 144 22.6666666667 144 54 c 0
 144 118 159.666666667 175.333333333 191 226 c 128
 222.333333333 276.666666667 265 314.666666667 319 340 c 1
 319 344 l 1
 235.666666667 406.666666667 194 486.666666667 194 584 c 0
 194 674.666666667 229 750 299 810 c 128
 369 870 453.333333333 900 552 900 c 0
 607.333333333 900 659.166666667 890 707.5 870 c 128
 755.833333333 850 796.666666667 822 830 786 c 1
 858.666666667 826.666666667 883.666666667 855.833333333 905 873.5 c 128
 926.333333333 891.166666667 953.333333333 900 986 900 c 0
 1026 900 1057 887.833333333 1079 863.5 c 128
 1101 839.166666667 1112 809.333333333 1112 774 c 0
 1112 752.666666667 1105.83333333 734 1093.5 718 c 128
 1081.16666667 702 1065.33333333 694 1046 694 c 0
 1025.33333333 694 1010.33333333 700.333333333 1001 713 c 128
 991.666666667 725.666666667 985.333333333 744 982 768 c 0
 979.333333333 789.333333333 975.333333333 804.833333333 970 814.5 c 128
 964.666666667 824.166666667 955.666666667 829 943 829 c 0
 910.333333333 829 879.666666667 806.333333333 851 761 c 1
 890.333333333 713 910 654 910 584 c 0
 910 493.333333333 875 418 805 358 c 128
 735 298 650.666666667 268 552 268 c 0
 480.666666667 268 415.333333333 284.666666667 356 318 c 1
 268 281.333333333 224 222 224 140 c 0
 224 108 236.333333333 83.3333333333 261 66 c 128
 285.666666667 48.6666666667 322 40 370 40 c 0
 400 40 453.666666667 45 531 55 c 0
 606.333333333 65 660 70 692 70 c 0
 784.666666667 70 853.166666667 44.6666666667 897.5 -6 c 128
 941.833333333 -56.6666666667 964 -125.666666667 964 -213 c 0
 964 -329 921 -427.5 835 -508.5 c 128
 749 -589.5 639.333333333 -630 506 -630 c 0
 459.333333333 -630 414.166666667 -625 370.5 -615 c 128
 326.833333333 -605 286.5 -590.166666667 249.5 -570.5 c 128
 212.5 -550.833333333 183 -524.166666667 161 -490.5 c 128
 139 -456.833333333 128 -418.666666667 128 -376 c 0
254 -381 m 0
 254 -426.333333333 267.333333333 -463.666666667 294 -493 c 128
 320.666666667 -522.333333333 352.666666667 -542.5 390 -553.5 c 128
 427.333333333 -564.5 469.333333333 -570 516 -570 c 0
 571.333333333 -570 620.333333333 -561.333333333 663 -544 c 128
 705.666666667 -526.666666667 739.166666667 -503.5 763.5 -474.5 c 128
 787.833333333 -445.5 806 -414 818 -380 c 128
 830 -346 836 -310.666666667 836 -274 c 0
 836 -251.333333333 832.833333333 -230 826.5 -210 c 128
 820.166666667 -190 809.833333333 -171 795.5 -153 c 128
 781.166666667 -135 760.833333333 -120.666666667 734.5 -110 c 128
 708.166666667 -99.3333333333 677 -94 641 -94 c 0
 593.666666667 -94 517 -103.333333333 411 -122 c 1
 361 -154.666666667 322.333333333 -191.666666667 295 -233 c 128
 267.666666667 -274.333333333 254 -323.666666667 254 -381 c 0
358 584 m 128
 358 498 376 431.166666667 412 383.5 c 128
 448 335.833333333 494.666666667 312 552 312 c 128
 609.333333333 312 656 335.833333333 692 383.5 c 128
 728 431.166666667 746 498 746 584 c 128
 746 670 728 737.5 692 786.5 c 128
 656 835.5 609.333333333 860 552 860 c 128
 494.666666667 860 448 835.5 412 786.5 c 128
 376 737.5 358 670 358 584 c 128
EndSplineSet
Fore
SplineSet
517 -570 m 1xb230
 762 -570 836 -398 836 -278 c 1
 836 -164 766 -94 648 -94 c 1
 567 -94 492 -110 412 -121 c 1
 318 -185 254 -258 254 -379 c 1
 254 -495 344 -570 517 -570 c 1xb230
552 312 m 1
 627 312 681 355 711 414 c 0
 738 466 746 526 746 585 c 1
 746 763 662 860 552 860 c 1
 489 860 446 832 412 786 c 1
 368 728 358 652 358 583 c 1x94d0
 358 505 372 438 411 386 c 0
 443 343 486 312 552 312 c 1
552 900 m 1
 657 900 757 863 830 786 c 1
 856 822 878 851 904 873 c 0
 923 889 951 900 986 900 c 1
 1019 900 1048 891 1068 874 c 0
 1097 849 1112 814 1112 775 c 1
 1112 732 1086 694 1047 694 c 1
 1018 694 1006 705 997 719 c 0
 989 732 985 748 983 762 c 1
 981 774 980 785 976 799 c 0
 971 818 963 829 943 829 c 1
 902 829 872 794 851 761 c 1
 893 711 910 650 910 584 c 1
 910 484 867 411 801 355 c 0
 736 301 652 268 553 268 c 1
 480 268 412 286 356 318 c 1
 286 288 224 238 224 141 c 1
 224 58 304 40 367 40 c 1xd950
 458 40 600 70 696 70 c 1
 782 70 846 47 891 1 c 0
 937 -46 964 -120 964 -211 c 1
 964 -441 780 -630 507 -630 c 1
 330 -630 128 -556 128 -379 c 1xb230
 128 -311 159 -263 199 -225 c 0
 237 -189 288 -159 342 -131 c 9
 342 -124 l 17
 222 -124 144 -59 144 54 c 1xd110
 144 179 209 289 319 340 c 9
 319 344 l 17
 252 392 194 472 194 584 c 1
 194 682 234 753 297 808 c 0
 363 866 447 900 552 900 c 1
EndSplineSet
Validated: 1
EndChar

StartChar: h
Encoding: 331 104 75
Width: 1166
GlyphClass: 2
Flags: W
HStem: 0 21G<220 384 800 964> 828 72<561.29 747.996> 1476 20G<220 384>
VStem: 220 164<0 648.629 674 1496> 800 164<0 784.543>
LayerCount: 2
Back
SplineSet
78 0 m 1
 78 48 l 1
 220 48 l 1
 220 1448 l 1
 78 1448 l 1
 78 1496 l 1
 384 1496 l 1
 384 674 l 1
 396 671 l 1
 428 745.666666667 470.833333333 802.5 524.5 841.5 c 128
 578.166666667 880.5 639.333333333 900 708 900 c 0
 790.666666667 900 855 871.666666667 901 815 c 0
 943 763 964 694 964 608 c 2
 964 48 l 1
 1106 48 l 1
 1106 0 l 1
 658 0 l 1
 658 48 l 1
 800 48 l 1
 800 644 l 2
 800 766.666666667 745.333333333 828 636 828 c 0
 593.333333333 828 555.333333333 813.666666667 522 785 c 128
 488.666666667 756.333333333 461.333333333 720.333333333 440 677 c 0
 418 633 403.166666667 591.666666667 395.5 553 c 128
 387.833333333 514.333333333 384 467.333333333 384 412 c 2
 384 48 l 1
 526 48 l 1
 526 0 l 1
 78 0 l 1
EndSplineSet
Fore
SplineSet
220 0 m 25
 220 1496 l 25
 384 1496 l 25
 384 674 l 25
 396 671 l 17
 440 773 528 900 712 900 c 1
 879 900 964 775 964 605 c 9
 964 0 l 25
 800 0 l 25
 800 618 l 21
 800 620 800 622 800 625 c 0
 800 695 797 828 639 828 c 5
 460 828 384 578 384 447 c 9
 384 0 l 25
 220 0 l 25
EndSplineSet
Validated: 1
EndChar

StartChar: k
Encoding: 334 107 78
Width: 1156
GlyphClass: 2
Flags: W
HStem: 0 21G<220 384 792.071 1012> 448 48<384 468> 864 20G<766.763 847> 1476 20G<220 384>
VStem: 220 164<0 448 496 1496>
LayerCount: 2
Back
SplineSet
78 0 m 1
 78 48 l 1
 220 48 l 1
 220 1448 l 1
 78 1448 l 1
 78 1496 l 1
 384 1496 l 1
 384 496 l 1
 468 496 l 1
 744 836 l 1
 598 836 l 1
 598 884 l 1
 952 884 l 1
 952 836 l 1
 808 836 l 1
 601 579 l 1
 978 48 l 1
 1104 48 l 1
 1104 0 l 1
 608 0 l 1
 608 48 l 1
 773 48 l 1
 494 448 l 1
 384 448 l 1
 384 48 l 1
 526 48 l 1
 526 0 l 1
 78 0 l 1
EndSplineSet
Fore
SplineSet
220 1496 m 25
 384 1496 l 25
 384 496 l 25
 468 496 l 25
 783 884 l 25
 847 884 l 29
 601 579 l 25
 1012 0 l 25
 806 0 l 25
 494 448 l 25
 384 448 l 25
 384 0 l 25
 220 0 l 25
 220 1496 l 25
EndSplineSet
Validated: 1
EndChar

StartChar: l
Encoding: 335 108 79
Width: 594
GlyphClass: 2
Flags: W
HStem: 0 21G<220 384> 1476 20G<220 384>
VStem: 220 164<0 1496>
LayerCount: 2
Back
SplineSet
78 0 m 1
 78 48 l 1
 220 48 l 1
 220 1448 l 1
 78 1448 l 1
 78 1496 l 1
 384 1496 l 1
 384 48 l 1
 526 48 l 1
 526 0 l 1
 78 0 l 1
EndSplineSet
Fore
SplineSet
220 1496 m 25
 384 1496 l 25
 384 0 l 29
 220 0 l 25
 220 1496 l 25
EndSplineSet
Validated: 1
EndChar

StartChar: m
Encoding: 336 109 80
Width: 1704
GlyphClass: 2
Flags: W
HStem: 0 21G<226 390 782 946 1338 1502> 828 72<550.143 730.968 1092.79 1278.35> 864 20G<226 390>
VStem: 226 164<0 666.808 683 884> 782 164<0 689.182> 1338 164<0 774.762>
CounterMasks: 1 1c
LayerCount: 2
Back
SplineSet
84 0 m 1
 84 48 l 1
 226 48 l 1
 226 836 l 1
 84 836 l 1
 84 884 l 1
 390 884 l 1
 390 683 l 1
 400 680 l 1
 466 826.666666667 562 900 688 900 c 0
 726.666666667 900 761.166666667 892.833333333 791.5 878.5 c 128
 821.833333333 864.166666667 846 845 864 821 c 128
 882 797 896.166666667 773.166666667 906.5 749.5 c 128
 916.833333333 725.833333333 924.666666667 701 930 675 c 1
 943 675 l 1
 1005 825 1101 900 1231 900 c 0
 1277 900 1318 891.333333333 1354 874 c 128
 1390 856.666666667 1418.33333333 833.833333333 1439 805.5 c 128
 1459.66666667 777.166666667 1475.33333333 747 1486 715 c 128
 1496.66666667 683 1502 651 1502 619 c 2
 1502 48 l 1
 1644 48 l 1
 1644 0 l 1
 1196 0 l 1
 1196 48 l 1
 1338 48 l 1
 1338 642 l 2
 1338 697.333333333 1323.66666667 742.166666667 1295 776.5 c 128
 1266.33333333 810.833333333 1225.33333333 828 1172 828 c 0
 1133.33333333 828 1098 815 1066 789 c 128
 1034 763 1008.33333333 729.666666667 989 689 c 0
 975.666666667 661.666666667 965.666666667 631.5 959 598.5 c 128
 952.333333333 565.5 948.5 537 947.5 513 c 128
 946.5 489 946 455.333333333 946 412 c 2
 946 48 l 1
 1088 48 l 1
 1088 0 l 1
 640 0 l 1
 640 48 l 1
 782 48 l 1
 782 626 l 2
 782 760.666666667 732.666666667 828 634 828 c 0
 553.333333333 828 490.666666667 783.333333333 446 694 c 0
 424 650.666666667 409.166666667 607.166666667 401.5 563.5 c 128
 393.833333333 519.833333333 390 469.333333333 390 412 c 2
 390 48 l 1
 532 48 l 1
 532 0 l 1
 84 0 l 1
EndSplineSet
Fore
SplineSet
226 884 m 25xbc
 390 884 l 25xbc
 390 683 l 17
 400 680 l 1
 454 798 538 900 689 900 c 1
 776 900 837 860 868 816 c 0
 908 760 923 710 930 675 c 9
 943 675 l 17
 996 803 1081 900 1232 900 c 1
 1441 900 1502 718 1502 621 c 9
 1502 0 l 25
 1338 0 l 25
 1338 640 l 17
 1338 734 1294 828 1173 828 c 1
 1066 828 946 716 946 461 c 9
 946 0 l 25
 782 0 l 25
 782 627 l 17
 782 717 760 828 634 828 c 1xdc
 468 828 390 626 390 436 c 9
 390 0 l 25
 226 0 l 25
 226 884 l 25xbc
EndSplineSet
Validated: 1
EndChar

StartChar: n
Encoding: 337 110 81
Width: 1172
GlyphClass: 2
Flags: W
HStem: 0 21G<226 390 806 970> 828 72<568.462 751.605> 864 20G<226 390>
VStem: 226 164<0 653.621 674 884> 806 164<0 784.398>
LayerCount: 2
Back
SplineSet
84 0 m 1
 84 48 l 1
 226 48 l 1
 226 836 l 1
 84 836 l 1
 84 884 l 1
 390 884 l 1
 390 674 l 1
 402 671 l 1
 434 745.666666667 476.833333333 802.5 530.5 841.5 c 128
 584.166666667 880.5 645.333333333 900 714 900 c 0
 796.666666667 900 861 871.666666667 907 815 c 0
 949 763 970 694 970 608 c 2
 970 48 l 1
 1112 48 l 1
 1112 0 l 1
 664 0 l 1
 664 48 l 1
 806 48 l 1
 806 644 l 2
 806 766.666666667 751.333333333 828 642 828 c 0
 599.333333333 828 561.333333333 813.666666667 528 785 c 128
 494.666666667 756.333333333 467.333333333 720.333333333 446 677 c 0
 424 633 409.166666667 591.666666667 401.5 553 c 128
 393.833333333 514.333333333 390 467.333333333 390 412 c 2
 390 48 l 1
 532 48 l 1
 532 0 l 1
 84 0 l 1
EndSplineSet
Fore
SplineSet
226 884 m 25xb8
 390 884 l 25xb8
 390 674 l 25
 402 671 l 17
 453 794 555 900 714 900 c 5
 906 900 970 744 970 615 c 13
 970 0 l 25
 806 0 l 25
 806 649 l 17
 806 748 766 828 643 828 c 1xd8
 569 828 521 787 478 730 c 0
 434 671 390 566 390 434 c 9
 390 0 l 25
 226 0 l 25
 226 884 l 25xb8
EndSplineSet
Validated: 1
EndChar

StartChar: o
Encoding: 338 111 82
Width: 1040
GlyphClass: 2
Flags: W
HStem: -16 48<422.108 618.568> 852 48<423.17 617.425>
VStem: 96 184<234.56 651.022> 760 184<234.103 647.443>
LayerCount: 2
Back
SplineSet
96 442 m 128
 96 574 136.833333333 683.333333333 218.5 770 c 128
 300.166666667 856.666666667 400.666666667 900 520 900 c 128
 639.333333333 900 739.833333333 856.666666667 821.5 770 c 128
 903.166666667 683.333333333 944 574 944 442 c 128
 944 310 903.166666667 200.666666667 821.5 114 c 128
 739.833333333 27.3333333333 639.333333333 -16 520 -16 c 128
 400.666666667 -16 300.166666667 27.3333333333 218.5 114 c 128
 136.833333333 200.666666667 96 310 96 442 c 128
280 442 m 128
 280 300.666666667 300.166666667 197 340.5 131 c 128
 380.833333333 65 440.666666667 32 520 32 c 128
 599.333333333 32 659.166666667 65 699.5 131 c 128
 739.833333333 197 760 300.666666667 760 442 c 128
 760 583.333333333 739.833333333 687 699.5 753 c 128
 659.166666667 819 599.333333333 852 520 852 c 128
 440.666666667 852 380.833333333 819 340.5 753 c 128
 300.166666667 687 280 583.333333333 280 442 c 128
EndSplineSet
Fore
SplineSet
521 32 m 5
 652 32 760 120 760 442 c 5
 760 636 724 852 520 852 c 1
 298 852 280 592 280 440 c 1
 280 126 382 32 521 32 c 5
520 900 m 1
 758 900 944 708 944 442 c 1
 944 172 760 -16 521 -16 c 1
 286 -16 96 170 96 442 c 1
 96 712 284 900 520 900 c 1
EndSplineSet
Validated: 1
EndChar

StartChar: p
Encoding: 339 112 83
Width: 1140
GlyphClass: 2
Flags: W
HStem: -612 21G<210 374> -16 60<543.028 724.336> 840 60<543.186 724.46> 864 20G<210 374>
VStem: 210 164<-612 162 213.897 672.129 722 884> 860 184<210.926 677.509>
LayerCount: 2
Back
SplineSet
68 -564 m 1
 210 -564 l 1
 210 836 l 1
 68 836 l 1
 68 884 l 1
 374 884 l 1
 374 722 l 1
 388 720 l 1
 458.666666667 840 554.333333333 900 675 900 c 0
 741.666666667 900 802 883.333333333 856 850 c 0
 915.333333333 813.333333333 961.5 760 994.5 690 c 128
 1027.5 620 1044 537.333333333 1044 442 c 128
 1044 346.666666667 1027.5 264 994.5 194 c 128
 961.5 124 915.333333333 70.6666666667 856 34 c 0
 802 0.666666666667 741.666666667 -16 675 -16 c 0
 554.333333333 -16 458.666666667 44 388 164 c 1
 374 162 l 1
 374 -564 l 1
 580 -564 l 1
 580 -612 l 1
 68 -612 l 1
 68 -564 l 1
374 442 m 128
 374 325.333333333 399 229.833333333 449 155.5 c 128
 499 81.1666666667 556 44 620 44 c 0
 676 44 722.5 62.5 759.5 99.5 c 128
 796.5 136.5 822.5 183.666666667 837.5 241 c 128
 852.5 298.333333333 860 365.333333333 860 442 c 128
 860 518.666666667 852.5 585.666666667 837.5 643 c 128
 822.5 700.333333333 796.5 747.5 759.5 784.5 c 128
 722.5 821.5 676 840 620 840 c 0
 556 840 499 802.833333333 449 728.5 c 128
 399 654.166666667 374 558.666666667 374 442 c 128
EndSplineSet
Fore
SplineSet
860 442 m 1xec
 860 748 740 840 620 840 c 1
 495 840 374 678 374 444 c 1
 374 172 514 44 620 44 c 1
 748 44 860 149 860 442 c 1xec
387 164 m 9
 374 162 l 25
 374 -612 l 25
 210 -612 l 25
 210 884 l 25
 374 884 l 25xdc
 374 722 l 25
 388 720 l 17
 455 833 546 900 678 900 c 1
 883 900 1044 731 1044 443 c 1
 1044 136 868 -16 677 -16 c 1
 552 -16 457 46 387 164 c 9
EndSplineSet
Validated: 1
EndChar

StartChar: q
Encoding: 340 113 84
Width: 1140
GlyphClass: 2
Flags: W
HStem: -612 21G<766 930> -16 60<415.942 600.231> 840 60<416.093 593.384> 864 20G<807.879 930>
VStem: 96 184<208.522 677.285> 766 164<-612 162 216.516 669.613>
LayerCount: 2
Back
SplineSet
96 442 m 128
 96 537.333333333 112.5 620 145.5 690 c 128
 178.5 760 224.666666667 813.333333333 284 850 c 0
 338 883.333333333 398.333333333 900 465 900 c 0
 573 900 661.666666667 850.666666667 731 752 c 1
 740 752 l 1
 820 884 l 1
 1072 884 l 1
 1072 836 l 1
 930 836 l 1
 930 -564 l 1
 1072 -564 l 1
 1072 -612 l 1
 560 -612 l 1
 560 -564 l 1
 766 -564 l 1
 766 162 l 1
 752 164 l 1
 681.333333333 44 585.666666667 -16 465 -16 c 0
 398.333333333 -16 338 0.666666666667 284 34 c 0
 224.666666667 70.6666666667 178.5 124 145.5 194 c 128
 112.5 264 96 346.666666667 96 442 c 128
280 442 m 128
 280 365.333333333 287.5 298.333333333 302.5 241 c 128
 317.5 183.666666667 343.5 136.5 380.5 99.5 c 128
 417.5 62.5 464 44 520 44 c 0
 584 44 641 81.1666666667 691 155.5 c 128
 741 229.833333333 766 325.333333333 766 442 c 128
 766 558.666666667 741 654.166666667 691 728.5 c 128
 641 802.833333333 584 840 520 840 c 0
 464 840 417.5 821.5 380.5 784.5 c 128
 343.5 747.5 317.5 700.333333333 302.5 643 c 128
 287.5 585.666666667 280 518.666666667 280 442 c 128
EndSplineSet
Fore
SplineSet
520 44 m 1xec
 644 44 766 198 766 441 c 1
 766 692 639 840 520 840 c 1
 373 840 280 709 280 442 c 1
 280 159 386 44 520 44 c 1xec
465 900 m 1
 577 900 666 844 731 752 c 9
 740 752 l 25
 820 884 l 25
 930 884 l 25xdc
 930 -612 l 25
 766 -612 l 25
 766 162 l 25
 752 164 l 17
 702 81 620 -16 465 -16 c 1
 254 -16 96 157 96 442 c 1
 96 733 257 900 465 900 c 1
EndSplineSet
Validated: 1
EndChar

StartChar: r
Encoding: 341 114 85
Width: 884
GlyphClass: 2
Flags: W
HStem: 0 21G<226 390> 844 56<547.354 666.322> 864 20G<226 390>
VStem: 226 164<0 668.506 674 884> 672 148<647.918 842.544>
LayerCount: 2
Back
SplineSet
84 0 m 1
 84 48 l 1
 226 48 l 1
 226 836 l 1
 84 836 l 1
 84 884 l 1
 390 884 l 1
 390 674 l 1
 400 671 l 1
 434 753 470.833333333 811.666666667 510.5 847 c 128
 550.166666667 882.333333333 600.666666667 900 662 900 c 0
 710 900 748.333333333 884.833333333 777 854.5 c 128
 805.666666667 824.166666667 820 786 820 740 c 0
 820 704.666666667 811 673.833333333 793 647.5 c 128
 775 621.166666667 750 608 718 608 c 0
 701.333333333 608 686.833333333 613 674.5 623 c 128
 662.166666667 633 656 646.666666667 656 664 c 0
 656 682 659 704.333333333 665 731 c 0
 669.666666667 753 672 772 672 788 c 0
 672 825.333333333 651.666666667 844 611 844 c 0
 575.666666667 844 545.5 831.666666667 520.5 807 c 128
 495.5 782.333333333 472 747.666666667 450 703 c 0
 410 623.666666667 390 526.666666667 390 412 c 2
 390 48 l 1
 532 48 l 1
 532 0 l 1
 84 0 l 1
EndSplineSet
Fore
SplineSet
226 884 m 25xb8
 390 884 l 25xb8
 390 674 l 17
 400 671 l 1
 451 788 509 900 661 900 c 1
 767 900 820 823 820 739 c 1
 820 686 793 608 718 608 c 1
 681 608 656 632 656 664 c 1
 656 713 672 739 672 789 c 1
 672 822 655 844 611 844 c 1xd8
 545 844 505 800 468 737 c 0
 421 658 390 553 390 420 c 9
 390 0 l 25
 226 0 l 25
 226 884 l 25xb8
EndSplineSet
Validated: 1
EndChar

StartChar: s
Encoding: 342 115 86
Width: 840
GlyphClass: 2
Flags: W
HStem: -16 48<326.105 555.58> 852 48<280.998 489.177>
VStem: 128 104<626.004 807.365> 636 120<99.553 286.796>
LayerCount: 2
Back
SplineSet
126 -16 m 1
 126 332 l 1
 162 332 l 1
 176.666666667 286.666666667 191 248.333333333 205 217 c 128
 219 185.666666667 236.333333333 154.666666667 257 124 c 128
 277.666666667 93.3333333333 302 70.3333333333 330 55 c 128
 358 39.6666666667 389.333333333 32 424 32 c 0
 492.666666667 32 545.166666667 44.8333333333 581.5 70.5 c 128
 617.833333333 96.1666666667 636 133.333333333 636 182 c 0
 636 230 618.333333333 268.166666667 583 296.5 c 128
 547.666666667 324.833333333 484 353.666666667 392 383 c 0
 348.666666667 396.333333333 312.666666667 410 284 424 c 128
 255.333333333 438 228.333333333 455.666666667 203 477 c 128
 177.666666667 498.333333333 158.833333333 524.333333333 146.5 555 c 128
 134.166666667 585.666666667 128 622 128 664 c 0
 128 735.333333333 151.333333333 792.5 198 835.5 c 128
 244.666666667 878.5 300 900 364 900 c 0
 412.666666667 900 464.333333333 889.666666667 519 869 c 0
 546.333333333 859 565 854 575 854 c 0
 607.666666667 854 632.666666667 869.333333333 650 900 c 1
 685 900 l 1
 685 619 l 1
 645 619 l 1
 624.333333333 674.333333333 600.333333333 720.666666667 573 758 c 0
 549 790.666666667 520.5 814.5 487.5 829.5 c 128
 454.5 844.5 411.333333333 852 358 852 c 0
 319.333333333 852 288.666666667 839.833333333 266 815.5 c 128
 243.333333333 791.166666667 232 762.666666667 232 730 c 0
 232 708.666666667 235.5 689.833333333 242.5 673.5 c 128
 249.5 657.166666667 258.333333333 643.166666667 269 631.5 c 128
 279.666666667 619.833333333 295.833333333 608.333333333 317.5 597 c 128
 339.166666667 585.666666667 359.833333333 576 379.5 568 c 128
 399.166666667 560 426.666666667 550 462 538 c 0
 569.333333333 501.333333333 645.166666667 462.333333333 689.5 421 c 128
 733.833333333 379.666666667 756 323.333333333 756 252 c 0
 756 172 729.166666667 107.333333333 675.5 58 c 128
 621.833333333 8.66666666667 539.333333333 -16 428 -16 c 0
 383.333333333 -16 336 -8.33333333333 286 7 c 0
 253.333333333 16.3333333333 225.666666667 21 203 21 c 0
 182.333333333 21 167.666666667 8.66666666667 159 -16 c 1
 126 -16 l 1
EndSplineSet
Fore
SplineSet
366 900 m 1
 491 900 619 825 684 799 c 9
 684 733 l 17
 592 779 490 852 362 852 c 1
 310 852 284 835 264 813 c 0
 244 791 232 765 232 729 c 1
 232 680 255 642 279 622 c 0
 300 604 342 583 390 564 c 0
 461 536 496 530 571 495 c 1
 620 472 660 449 689 422 c 0
 734 380 756 323 756 251 c 1
 756 250 756 249 756 248 c 0
 756 231 754 155 709 95 c 0
 663 35 586 -16 431 -16 c 1
 312 -16 219 70 126 147 c 9
 126 203 l 17
 219 129 304 32 426 32 c 1
 534 32 636 67 636 182 c 1
 636 274 575 312 490 348 c 0
 435 371 368 388 323 407 c 0
 186 465 128 530 128 664 c 1
 128 750 161 805 208 844 c 0
 252 880 301 900 366 900 c 1
EndSplineSet
Validated: 1
EndChar

StartChar: t
Encoding: 343 116 87
Width: 770
GlyphClass: 2
Flags: W
HStem: -16 84<419.637 578.093> 836 48<56 230 392 620>
VStem: 230 162<91.8079 836 884 1080> 349 66<1088.96 1152.11> 644 45<175.44 272>
LayerCount: 2
Back
SplineSet
56 836 m 1
 56 884 l 1
 230 884 l 1
 230 1080 l 1
 270.666666667 1080 299 1082.83333333 315 1088.5 c 128
 331 1094.16666667 341.666666667 1105 347 1121 c 0
 353.666666667 1139.66666667 360.666666667 1151.5 368 1156.5 c 128
 375.333333333 1161.5 391 1164 415 1164 c 1
 399.666666667 1067.33333333 392 974 392 884 c 1
 620 884 l 1
 620 836 l 1
 392 836 l 1
 392 190 l 2
 392 144 401.333333333 112.166666667 420 94.5 c 128
 438.666666667 76.8333333333 467.333333333 68 506 68 c 0
 547.333333333 68 579.5 88.6666666667 602.5 130 c 128
 625.5 171.333333333 638.666666667 218.666666667 642 272 c 1
 690 272 l 1
 687.333333333 234.666666667 680.666666667 199.5 670 166.5 c 128
 659.333333333 133.5 644.666666667 103 626 75 c 128
 607.333333333 47 582.666666667 24.8333333333 552 8.5 c 128
 521.333333333 -7.83333333333 486.333333333 -16 447 -16 c 0
 418.333333333 -16 391.5 -12.3333333333 366.5 -5 c 128
 341.5 2.33333333333 318.5 14 297.5 30 c 128
 276.5 46 260 68.1666666667 248 96.5 c 128
 236 124.833333333 230 158 230 196 c 2
 230 836 l 1
 56 836 l 1
EndSplineSet
Fore
SplineSet
230 1080 m 17xe8
 299 1082 338 1081 349 1128 c 1
 357 1146 358 1164 415 1164 c 1xd8
 407 1104 392 1021 392 884 c 9
 620 884 l 25
 620 836 l 25
 392 836 l 25
 392 199 l 17
 392 140 404 108 424 91 c 0
 443 75 470 68 504 68 c 1
 576 68 626 130 644 272 c 9
 689 272 l 17
 686 217 668 127 617 63 c 0
 579 16 524 -16 445 -16 c 1
 310 -16 230 67 230 187 c 9
 230 836 l 25
 56 836 l 25
 56 884 l 25
 230 884 l 25
 230 1080 l 17xe8
EndSplineSet
Validated: 1
EndChar

StartChar: u
Encoding: 344 117 88
Width: 1156
GlyphClass: 2
Flags: W
HStem: -16 72<422.045 603.948> 0 21G<782 946> 864 20G<202 366 782 946>
VStem: 202 164<101.408 884> 782 164<0 210 233.031 884>
LayerCount: 2
Back
SplineSet
60 836 m 1
 60 884 l 1
 366 884 l 1
 366 240 l 2
 366 117.333333333 420.666666667 56 530 56 c 0
 572.666666667 56 610.666666667 70.3333333333 644 99 c 128
 677.333333333 127.666666667 704.666666667 163.666666667 726 207 c 0
 748 251 762.833333333 292.333333333 770.5 331 c 128
 778.166666667 369.666666667 782 416.666666667 782 472 c 2
 782 836 l 1
 640 836 l 1
 640 884 l 1
 946 884 l 1
 946 48 l 1
 1088 48 l 1
 1088 0 l 1
 782 0 l 1
 782 210 l 1
 770 213 l 1
 738 138.333333333 695.166666667 81.5 641.5 42.5 c 128
 587.833333333 3.5 526.666666667 -16 458 -16 c 0
 375.333333333 -16 311 12.3333333333 265 69 c 0
 223 121 202 190 202 276 c 2
 202 836 l 1
 60 836 l 1
EndSplineSet
Fore
SplineSet
202 884 m 25xb8
 366 884 l 25
 366 236 l 17
 366 170 383 56 529 56 c 1xb8
 617 56 675 121 706 172 c 0
 755 252 782 334 782 460 c 9
 782 884 l 25
 946 884 l 25
 946 0 l 25
 782 0 l 25x78
 782 210 l 25
 770 212 l 17
 722 102 628 -16 458 -16 c 1
 272 -16 202 130 202 272 c 9
 202 884 l 25xb8
EndSplineSet
Validated: 1
EndChar

StartChar: v
Encoding: 345 118 89
Width: 980
GlyphClass: 2
Flags: W
HStem: -18 21G<481.217 540.228> 864 20G<138 322.769 800.807 859>
LayerCount: 2
Back
SplineSet
40 836 m 1
 40 884 l 1
 476 884 l 1
 476 836 l 1
 334 836 l 1
 571 226 l 1
 791 836 l 1
 662 836 l 1
 662 884 l 1
 944 884 l 1
 944 836 l 1
 842 836 l 1
 533 -18 l 1
 489 -18 l 1
 157 836 l 1
 40 836 l 1
EndSplineSet
Fore
SplineSet
138 884 m 29
 315 884 l 25
 571 225 l 25
 808 884 l 25
 859 884 l 25
 533 -18 l 25
 489 -18 l 25
 138 884 l 29
EndSplineSet
Validated: 1
EndChar

StartChar: w
Encoding: 346 119 90
Width: 1498
GlyphClass: 2
Flags: W
HStem: -18 21G<455.838 514.853 1013.74 1071.92> 864 20G<140 324.173 694 877.267 1319.11 1377>
LayerCount: 2
Back
SplineSet
40 836 m 1
 40 884 l 1
 476 884 l 1
 476 836 l 1
 334 836 l 1
 553 226 l 1
 750 727 l 1
 711 836 l 1
 594 836 l 1
 594 884 l 1
 1030 884 l 1
 1030 836 l 1
 888 836 l 1
 1104 240 l 1
 1309 836 l 1
 1180 836 l 1
 1180 884 l 1
 1462 884 l 1
 1462 836 l 1
 1360 836 l 1
 1065 -18 l 1
 1021 -18 l 1
 774 662 l 1
 507 -18 l 1
 463 -18 l 1
 157 836 l 1
 40 836 l 1
EndSplineSet
Fore
SplineSet
140 884 m 25
 317 884 l 25
 553 226 l 25
 750 727 l 25
 694 884 l 25
 870 884 l 25
 1104 240 l 25
 1326 884 l 25
 1377 884 l 29
 1065 -18 l 25
 1021 -18 l 25
 774 662 l 25
 507 -18 l 25
 463 -18 l 25
 140 884 l 25
EndSplineSet
Validated: 1
EndChar

StartChar: x
Encoding: 347 120 91
Width: 1100
GlyphClass: 2
Flags: W
HStem: 0 21G<185 260.016 734.008 936> 864 20G<174 380.844 793.933 866>
LayerCount: 2
Back
SplineSet
60 0 m 1
 60 56 l 1
 225 56 l 1
 478 415 l 1
 210 828 l 1
 93 828 l 1
 93 884 l 1
 548 884 l 1
 548 828 l 1
 404 828 l 1
 578 557 l 1
 769 828 l 1
 644 828 l 1
 644 884 l 1
 962 884 l 1
 962 828 l 1
 827 828 l 1
 606 513 l 1
 900 56 l 1
 1064 56 l 1
 1064 0 l 1
 537 0 l 1
 537 56 l 1
 711 56 l 1
 506 371 l 1
 285 56 l 1
 441 56 l 1
 441 0 l 1
 60 0 l 1
EndSplineSet
Fore
SplineSet
174 884 m 25
 368 884 l 25
 578 557 l 25
 808 884 l 25
 866 884 l 25
 606 513 l 25
 936 0 l 25
 747 0 l 25
 506 371 l 25
 246 0 l 25
 185 0 l 25
 478 415 l 25
 174 884 l 25
EndSplineSet
Validated: 1
EndChar

StartChar: y
Encoding: 348 121 92
Width: 1024
GlyphClass: 2
Flags: W
HStem: -631 57<164.374 297.477> 865 20G<138 323.119 812.064 876>
VStem: -6 166<-572.445 -397.202>
LayerCount: 2
Back
SplineSet
-6 -465 m 0
 -6 -432.333333333 3.5 -405.666666667 22.5 -385 c 128
 41.5 -364.333333333 67.3333333333 -354 100 -354 c 0
 123.333333333 -354 141.833333333 -360.833333333 155.5 -374.5 c 128
 169.166666667 -388.166666667 176 -404 176 -422 c 0
 176 -434.666666667 173.333333333 -451.666666667 168 -473 c 0
 162.666666667 -493 160 -510.333333333 160 -525 c 0
 160 -557.666666667 182.666666667 -574 228 -574 c 0
 262 -574 290.333333333 -558.666666667 313 -528 c 128
 335.666666667 -497.333333333 355.666666667 -456.333333333 373 -405 c 2
 506 -19 l 1
 158 836 l 1
 40 836 l 1
 40 884 l 1
 498 884 l 1
 498 836 l 1
 336 836 l 1
 588 216 l 1
 802 836 l 1
 679 836 l 1
 679 884 l 1
 988 884 l 1
 988 836 l 1
 859 836 l 1
 427 -408 l 2
 418.333333333 -433.333333333 410.5 -454.166666667 403.5 -470.5 c 128
 396.5 -486.833333333 386.333333333 -506.166666667 373 -528.5 c 128
 359.666666667 -550.833333333 345.333333333 -568.5 330 -581.5 c 128
 314.666666667 -594.5 294.833333333 -605.833333333 270.5 -615.5 c 128
 246.166666667 -625.166666667 219.333333333 -630 190 -630 c 0
 134 -630 87.3333333333 -615.833333333 50 -587.5 c 128
 12.6666666667 -559.166666667 -6 -518.333333333 -6 -465 c 0
EndSplineSet
Fore
SplineSet
138 885 m 25
 315 885 l 25
 587 215 l 25
 819 884 l 25
 876 884 l 25
 415 -441 l 17
 386 -516 359 -564 308 -598 c 0
 282 -615 230 -631 190 -631 c 1
 117 -631 -6 -598 -6 -464 c 1
 -6 -404 31 -353 101 -353 c 1
 148 -353 176 -387 176 -422 c 1
 176 -456 160 -489 160 -524 c 1
 160 -562 187 -574 227 -574 c 1
 314 -574 335 -486 365 -429 c 9
 506 -19 l 25
 138 885 l 25
EndSplineSet
Validated: 1
EndChar

StartChar: z
Encoding: 349 122 93
Width: 934
GlyphClass: 2
Flags: W
HStem: 0 48<306 840> 836 48<106 579>
LayerCount: 2
Back
SplineSet
84 580 m 1
 106 884 l 1
 766 884 l 1
 766 830 l 1
 306 48 l 1
 531 48 l 2
 623 48 692.666666667 89.3333333333 740 172 c 0
 772.666666667 228 796 296.666666667 810 378 c 1
 854 378 l 1
 840 0 l 1
 120 0 l 1
 120 56 l 1
 579 836 l 1
 368 836 l 2
 330 836 297.833333333 830.666666667 271.5 820 c 128
 245.166666667 809.333333333 221 790 199 762 c 0
 169.666666667 724.666666667 146 664 128 580 c 1
 84 580 l 1
EndSplineSet
Fore
SplineSet
106 884 m 25
 766 884 l 25
 766 830 l 25
 306 48 l 25
 842 48 l 25
 840 0 l 25
 120 0 l 25
 120 56 l 25
 579 836 l 25
 102 836 l 25
 106 884 l 25
EndSplineSet
Validated: 1
EndChar

StartChar: braceleft
Encoding: 350 123 94
Width: 780
GlyphClass: 2
Flags: W
HStem: -536 54<589.07 684.655> 466 44<182 304.723> 1458 54<589.07 684.655>
VStem: 336 132<-388.723 -51.0163 1026.52 1365.16> 415 132<-7.11771 353.081 619.774 984.78>
CounterMasks: 1 e0
LayerCount: 2
Back
SplineSet
182 466 m 5
 182 510 l 5
 337.333333333 510 415 584.333333333 415 733 c 4
 415 783 402.333333333 858 377 958 c 4
 349.666666667 1067.33333333 336 1151 336 1209 c 4
 336 1297.66666667 367.166666667 1367.16666667 429.5 1417.5 c 132
 491.833333333 1467.83333333 576 1499.33333333 682 1512 c 5
 692 1458 l 5
 618.666666667 1445.33333333 563 1426.66666667 525 1402 c 132
 487 1377.33333333 468 1339 468 1287 c 4
 468 1226.33333333 480.666666667 1147.66666667 506 1051 c 4
 533.333333333 947 547 868.666666667 547 816 c 4
 547 720.666666667 526 646.333333333 484 593 c 132
 442 539.666666667 387.333333333 505.333333333 320 490 c 5
 320 486 l 5
 387.333333333 470.666666667 442 436.166666667 484 382.5 c 132
 526 328.833333333 547 254.333333333 547 159 c 4
 547 106.333333333 533.333333333 28 506 -76 c 4
 480.666666667 -172.666666667 468 -251.333333333 468 -312 c 4
 468 -364 486.833333333 -402.166666667 524.5 -426.5 c 132
 562.166666667 -450.833333333 618 -469.333333333 692 -482 c 5
 682 -536 l 5
 576 -523.333333333 491.833333333 -491.833333333 429.5 -441.5 c 132
 367.166666667 -391.166666667 336 -321.666666667 336 -233 c 4
 336 -175 349.666666667 -91.3333333333 377 18 c 4
 402.333333333 118 415 193 415 243 c 4
 415 391.666666667 337.333333333 466 182 466 c 5
EndSplineSet
Fore
SplineSet
182 466 m 5xe8
 182 510 l 5
 337 510 415 584 415 733 c 4xe8
 415 783 402 858 377 958 c 4
 350 1067 336 1151 336 1209 c 4
 336 1298 368 1368 430 1418 c 4
 492 1468 576 1499 682 1512 c 5
 692 1458 l 5
 619 1445 563 1427 525 1402 c 4
 487 1377 468 1339 468 1287 c 4xf0
 468 1226 481 1148 506 1051 c 4
 533 947 547 869 547 816 c 4
 547 721 526 646 484 593 c 4
 442 540 387 505 320 490 c 5
 320 486 l 5
 387 471 442 436 484 382 c 4
 526 328 547 254 547 159 c 4xe8
 547 106 533 28 506 -76 c 4
 481 -173 468 -251 468 -312 c 4
 468 -364 486 -402 524 -426 c 4
 562 -450 618 -469 692 -482 c 5
 682 -536 l 5
 576 -523 492 -492 430 -442 c 4
 368 -392 336 -322 336 -233 c 4xf0
 336 -175 350 -91 377 18 c 4
 402 118 415 193 415 243 c 4
 415 392 337 466 182 466 c 5xe8
EndSplineSet
Validated: 1
EndChar

StartChar: bar
Encoding: 351 124 95
Width: 512
GlyphClass: 2
Flags: W
HStem: 1414 20G<202 310>
VStem: 202 108<-520 1434>
LayerCount: 2
Back
SplineSet
202 -520 m 5
 202 1434 l 5
 310 1434 l 5
 310 -520 l 5
 202 -520 l 5
EndSplineSet
Fore
SplineSet
202 -520 m 5
 202 1434 l 5
 310 1434 l 5
 310 -520 l 5
 202 -520 l 5
EndSplineSet
Validated: 1
EndChar

StartChar: braceright
Encoding: 352 125 96
Width: 780
GlyphClass: 2
Flags: W
HStem: -536 54<95.3452 190.93> 466 44<475.277 598> 1458 54<95.3452 190.93>
VStem: 233 132<-8.78029 356.226 622.919 983.118> 312 132<-389.162 -50.5163 1027.02 1364.72>
CounterMasks: 1 e0
LayerCount: 2
Back
SplineSet
88 -482 m 5
 161.333333333 -469.333333333 217 -450.666666667 255 -426 c 132
 293 -401.333333333 312 -363 312 -311 c 4
 312 -250.333333333 299.333333333 -171.666666667 274 -75 c 4
 246.666666667 29 233 107.333333333 233 160 c 4
 233 255.333333333 254 329.666666667 296 383 c 132
 338 436.333333333 392.666666667 470.666666667 460 486 c 5
 460 490 l 5
 392.666666667 505.333333333 338 539.833333333 296 593.5 c 132
 254 647.166666667 233 721.666666667 233 817 c 4
 233 869.666666667 246.666666667 948 274 1052 c 4
 299.333333333 1148.66666667 312 1227.33333333 312 1288 c 4
 312 1340 293.166666667 1378.16666667 255.5 1402.5 c 132
 217.833333333 1426.83333333 162 1445.33333333 88 1458 c 5
 98 1512 l 5
 204 1499.33333333 288.166666667 1467.83333333 350.5 1417.5 c 132
 412.833333333 1367.16666667 444 1297.66666667 444 1209 c 4
 444 1151 430.333333333 1067.33333333 403 958 c 4
 377.666666667 858 365 783 365 733 c 4
 365 584.333333333 442.666666667 510 598 510 c 5
 598 466 l 5
 442.666666667 466 365 391.666666667 365 243 c 4
 365 193 377.666666667 118 403 18 c 4
 430.333333333 -91.3333333333 444 -175 444 -233 c 4
 444 -321.666666667 412.833333333 -391.166666667 350.5 -441.5 c 132
 288.166666667 -491.833333333 204 -523.333333333 98 -536 c 5
 88 -482 l 5
EndSplineSet
Fore
SplineSet
88 -482 m 5xe8
 161 -469 217 -451 255 -426 c 4
 293 -401 312 -363 312 -311 c 4xe8
 312 -250 299 -172 274 -75 c 4
 247 29 233 107 233 160 c 4
 233 255 254 330 296 383 c 4
 338 436 393 471 460 486 c 5
 460 490 l 5
 393 505 338 540 296 594 c 4
 254 648 233 722 233 817 c 4xf0
 233 870 247 948 274 1052 c 4
 299 1149 312 1227 312 1288 c 4
 312 1340 294 1378 256 1402 c 4
 218 1426 162 1445 88 1458 c 5
 98 1512 l 5
 204 1499 288 1468 350 1418 c 4
 412 1368 444 1298 444 1209 c 4xe8
 444 1151 430 1067 403 958 c 4
 378 858 365 783 365 733 c 4
 365 584 443 510 598 510 c 5
 598 466 l 5
 443 466 365 392 365 243 c 4xf0
 365 193 378 118 403 18 c 4
 430 -91 444 -175 444 -233 c 4
 444 -322 412 -392 350 -442 c 4
 288 -492 204 -523 98 -536 c 5
 88 -482 l 5xe8
EndSplineSet
Validated: 1
EndChar

StartChar: asciitilde
Encoding: 353 126 97
Width: 1152
GlyphClass: 2
Flags: W
HStem: 398 108<652.93 884.755> 522 108<267.245 498.36>
LayerCount: 2
Back
SplineSet
112 422 m 5
 198.666666667 560.666666667 301.333333333 630 420 630 c 4
 446.666666667 630 473.5 626.333333333 500.5 619 c 132
 527.5 611.666666667 549 604.166666667 565 596.5 c 132
 581 588.833333333 602 578 628 564 c 4
 652 551.333333333 671 541.666666667 685 535 c 132
 699 528.333333333 717 521.833333333 739 515.5 c 132
 761 509.166666667 782 506 802 506 c 4
 848 506 885.333333333 516.5 914 537.5 c 132
 942.666666667 558.5 972.666666667 590.666666667 1004 634 c 5
 1040 606 l 5
 953.333333333 467.333333333 850.666666667 398 732 398 c 4
 694.666666667 398 660.333333333 403.666666667 629 415 c 132
 597.666666667 426.333333333 562.666666667 442.666666667 524 464 c 4
 453.333333333 502.666666667 395.333333333 522 350 522 c 4
 304 522 266.666666667 511.5 238 490.5 c 132
 209.333333333 469.5 179.333333333 437.333333333 148 394 c 5
 112 422 l 5
EndSplineSet
Fore
SplineSet
112 422 m 5
 199 561 301 630 420 630 c 4
 447 630 473 626 500 619 c 4
 527 612 549 604 565 596 c 4
 581 588 602 578 628 564 c 4
 652 551 671 542 685 535 c 4
 699 528 717 522 739 516 c 4
 761 510 782 506 802 506 c 4
 848 506 885 517 914 538 c 4
 943 559 973 591 1004 634 c 5
 1040 606 l 5
 953 467 851 398 732 398 c 4
 695 398 660 404 629 415 c 4
 598 426 563 443 524 464 c 4
 453 503 395 522 350 522 c 4
 304 522 267 511 238 490 c 4
 209 469 179 437 148 394 c 5
 112 422 l 5
EndSplineSet
Validated: 1
EndChar

StartChar: dagger
Encoding: 386 8224 130
Width: 1176
GlyphClass: 2
Flags: W
HStem: 756 212<183.035 400.99 775.01 992.965> 830 64<396.265 552 624 779.735> 1424 20G<567.5 608.5>
VStem: 460 256<1083.97 1395.54> 532 112<-520 410.687> 556 64<606.947 830>
LayerCount: 2
Back
SplineSet
148 862 m 132
 148 896 159.166666667 922.166666667 181.5 940.5 c 132
 203.833333333 958.833333333 231 968 263 968 c 4
 284.333333333 968 304.166666667 964.833333333 322.5 958.5 c 132
 340.833333333 952.166666667 367 940.333333333 401 923 c 4
 439 903.666666667 489.333333333 894 552 894 c 5
 544.666666667 954.666666667 529.333333333 1016.66666667 506 1080 c 4
 475.333333333 1165.33333333 460 1233.33333333 460 1284 c 4
 460 1328 471 1365.66666667 493 1397 c 132
 515 1428.33333333 546.666666667 1444 588 1444 c 132
 629.333333333 1444 661 1428.33333333 683 1397 c 132
 705 1365.66666667 716 1328 716 1284 c 4
 716 1232 700.666666667 1164 670 1080 c 4
 646.666666667 1016.66666667 631.333333333 954.666666667 624 894 c 5
 686.666666667 894 737 903.666666667 775 923 c 4
 809 940.333333333 835.166666667 952.166666667 853.5 958.5 c 132
 871.833333333 964.833333333 891.666666667 968 913 968 c 4
 945 968 972.166666667 958.833333333 994.5 940.5 c 132
 1016.83333333 922.166666667 1028 896 1028 862 c 132
 1028 828 1016.83333333 801.833333333 994.5 783.5 c 132
 972.166666667 765.166666667 945 756 913 756 c 4
 891.666666667 756 871.833333333 759.166666667 853.5 765.5 c 132
 835.166666667 771.833333333 809 783.666666667 775 801 c 4
 743 817.666666667 691.333333333 827.333333333 620 830 c 5
 620 818 l 6
 620 746.666666667 630 678.333333333 650 613 c 132
 670 547.666666667 693.333333333 497.333333333 720 462 c 5
 696 430 677.333333333 391.5 664 346.5 c 132
 650.666666667 301.5 644 255.333333333 644 208 c 6
 644 -520 l 5
 532 -520 l 5
 532 208 l 6
 532 255.333333333 525.333333333 301.5 512 346.5 c 132
 498.666666667 391.5 480 430 456 462 c 5
 482.666666667 497.333333333 506 547.666666667 526 613 c 132
 546 678.333333333 556 746.666666667 556 818 c 6
 556 830 l 5
 484.666666667 827.333333333 433 817.666666667 401 801 c 4
 367 783.666666667 340.833333333 771.833333333 322.5 765.5 c 132
 304.166666667 759.166666667 284.333333333 756 263 756 c 4
 231 756 203.833333333 765.166666667 181.5 783.5 c 132
 159.166666667 801.833333333 148 828 148 862 c 132
EndSplineSet
Fore
SplineSet
148 862 m 4xa4
 148 896 160 922 182 940 c 4
 204 958 231 968 263 968 c 4xa4
 284 968 304 964 322 958 c 4
 340 952 367 940 401 923 c 4
 439 904 489 894 552 894 c 5
 545 955 529 1017 506 1080 c 4
 475 1165 460 1233 460 1284 c 4
 460 1328 471 1366 493 1397 c 4
 515 1428 547 1444 588 1444 c 4
 629 1444 661 1428 683 1397 c 4
 705 1366 716 1328 716 1284 c 4
 716 1232 701 1164 670 1080 c 4
 647 1017 631 955 624 894 c 5x70
 687 894 737 904 775 923 c 4
 809 940 836 952 854 958 c 4
 872 964 892 968 913 968 c 4
 945 968 972 958 994 940 c 4
 1016 922 1028 896 1028 862 c 4
 1028 828 1016 802 994 784 c 4
 972 766 945 756 913 756 c 4xb0
 892 756 872 760 854 766 c 4
 836 772 809 784 775 801 c 4
 743 818 691 827 620 830 c 5
 620 818 l 6x64
 620 747 630 678 650 613 c 4
 670 548 693 497 720 462 c 5
 696 430 677 391 664 346 c 4
 651 301 644 255 644 208 c 6
 644 -520 l 5
 532 -520 l 5
 532 208 l 6x68
 532 255 525 301 512 346 c 4
 499 391 480 430 456 462 c 5
 483 497 506 548 526 613 c 4
 546 678 556 747 556 818 c 6
 556 830 l 5x64
 485 827 433 818 401 801 c 4
 367 784 340 772 322 766 c 4
 304 760 284 756 263 756 c 4
 231 756 204 766 182 784 c 4
 160 802 148 828 148 862 c 4xa4
EndSplineSet
Validated: 1
EndChar

StartChar: degree
Encoding: 387 176 131
Width: 1152
GlyphClass: 2
Flags: W
HStem: 744 80<422.854 729.146> 1412 80<422.854 729.146>
VStem: 200 80<966.801 1269.2> 872 80<966.801 1269.2>
LayerCount: 2
Back
SplineSet
200 1118 m 128
 200 1226 235.666666667 1315.33333333 307 1386 c 128
 378.333333333 1456.66666667 468 1492 576 1492 c 128
 684 1492 773.666666667 1456.66666667 845 1386 c 128
 916.333333333 1315.33333333 952 1226 952 1118 c 128
 952 1010 916.333333333 920.666666667 845 850 c 128
 773.666666667 779.333333333 684 744 576 744 c 128
 468 744 378.333333333 779.333333333 307 850 c 128
 235.666666667 920.666666667 200 1010 200 1118 c 128
280 1118 m 128
 280 1034 308.333333333 964 365 908 c 128
 421.666666667 852 492 824 576 824 c 128
 660 824 730.333333333 852 787 908 c 128
 843.666666667 964 872 1034 872 1118 c 128
 872 1202 843.666666667 1272 787 1328 c 128
 730.333333333 1384 660 1412 576 1412 c 128
 492 1412 421.666666667 1384 365 1328 c 128
 308.333333333 1272 280 1202 280 1118 c 128
EndSplineSet
Fore
SplineSet
200 1118 m 4
 200 1226 236 1315 307 1386 c 4
 378 1457 468 1492 576 1492 c 4
 684 1492 774 1457 845 1386 c 4
 916 1315 952 1226 952 1118 c 4
 952 1010 916 921 845 850 c 4
 774 779 684 744 576 744 c 4
 468 744 378 779 307 850 c 4
 236 921 200 1010 200 1118 c 4
280 1118 m 4
 280 1034 308 964 365 908 c 4
 422 852 492 824 576 824 c 4
 660 824 730 852 787 908 c 4
 844 964 872 1034 872 1118 c 4
 872 1202 844 1272 787 1328 c 4
 730 1384 660 1412 576 1412 c 4
 492 1412 422 1384 365 1328 c 4
 308 1272 280 1202 280 1118 c 4
EndSplineSet
Validated: 1
EndChar

StartChar: cent
Encoding: 388 162 132
Width: 1152
GlyphClass: 2
Flags: W
HStem: -16 58<542.069 774.804> 852 48<531.929 684> 1414 20G<882.987 952>
VStem: 200 184<217.424 636.789> 772 162<597.057 784.342> 892 52<174.37 330>
LayerCount: 2
Back
SplineSet
196 -550 m 1
 403 42 l 1
 339 78.6666666667 289.166666667 130.833333333 253.5 198.5 c 128
 217.833333333 266.166666667 200 344 200 432 c 0
 200 494 211.166666667 553.666666667 233.5 611 c 128
 255.833333333 668.333333333 286.333333333 718.166666667 325 760.5 c 128
 363.666666667 802.833333333 410.166666667 836.666666667 464.5 862 c 128
 518.833333333 887.333333333 576.666666667 900 638 900 c 0
 658.666666667 900 679.666666667 898.333333333 701 895 c 1
 890 1434 l 1
 952 1434 l 1
 758 880 l 1
 814 860 857.333333333 828.833333333 888 786.5 c 128
 918.666666667 744.166666667 934 703 934 663 c 0
 934 630.333333333 925 602 907 578 c 128
 889 554 862.666666667 542 828 542 c 0
 803.333333333 542 783.5 548.666666667 768.5 562 c 128
 753.5 575.333333333 746 592.666666667 746 614 c 128
 746 635.333333333 750.333333333 658 759 682 c 0
 767.666666667 705.333333333 772 729 772 753 c 0
 772 779.666666667 760.333333333 802.333333333 737 821 c 1
 489 110 l 1
 534.333333333 64.6666666667 591.333333333 42 660 42 c 0
 695.333333333 42 727.166666667 48.3333333333 755.5 61 c 128
 783.833333333 73.6666666667 806.666666667 89.8333333333 824 109.5 c 128
 841.333333333 129.166666667 855.833333333 152 867.5 178 c 128
 879.166666667 204 887.333333333 229.5 892 254.5 c 128
 896.666666667 279.5 899.333333333 304.666666667 900 330 c 1
 952 330 l 1
 951.333333333 298 948.5 267.333333333 943.5 238 c 128
 938.5 208.666666667 928.5 178.166666667 913.5 146.5 c 128
 898.5 114.833333333 879.666666667 87.3333333333 857 64 c 128
 834.333333333 40.6666666667 803.5 21.5 764.5 6.5 c 128
 725.5 -8.5 680.666666667 -16 630 -16 c 0
 566.666666667 -16 508.666666667 -5.33333333333 456 16 c 1
 258 -550 l 1
 196 -550 l 1
384 460 m 0
 384 336 405 238.333333333 447 167 c 1
 684 846 l 1
 669.333333333 850 651.666666667 852 631 852 c 0
 552.333333333 852 491.5 816 448.5 744 c 128
 405.5 672 384 577.333333333 384 460 c 0
EndSplineSet
Fore
SplineSet
196 -550 m 5xf4
 403 42 l 5
 339 79 290 130 254 198 c 4
 218 266 200 344 200 432 c 4
 200 494 212 554 234 611 c 4
 256 668 286 718 325 760 c 4
 364 802 410 837 464 862 c 4
 518 887 577 900 638 900 c 4
 659 900 680 898 701 895 c 5
 890 1434 l 5
 952 1434 l 5
 758 880 l 5
 814 860 857 828 888 786 c 4
 919 744 934 703 934 663 c 4
 934 630 925 602 907 578 c 4
 889 554 863 542 828 542 c 4
 803 542 783 549 768 562 c 4
 753 575 746 593 746 614 c 4
 746 635 750 658 759 682 c 4
 768 705 772 729 772 753 c 4xf8
 772 780 760 802 737 821 c 5
 489 110 l 5
 534 65 591 42 660 42 c 4
 695 42 728 48 756 61 c 4
 784 74 807 90 824 110 c 4
 841 130 856 152 868 178 c 4
 880 204 887 229 892 254 c 4
 897 279 899 305 900 330 c 5
 952 330 l 5
 951 298 949 267 944 238 c 4
 939 209 929 178 914 146 c 4
 899 114 880 87 857 64 c 4
 834 41 803 21 764 6 c 4
 725 -9 681 -16 630 -16 c 4
 567 -16 509 -5 456 16 c 5
 258 -550 l 5
 196 -550 l 5xf4
384 460 m 4
 384 336 405 238 447 167 c 5
 684 846 l 5
 669 850 652 852 631 852 c 4
 552 852 491 816 448 744 c 4
 405 672 384 577 384 460 c 4
EndSplineSet
Validated: 1
EndChar

StartChar: sterling
Encoding: 389 163 133
Width: 1420
GlyphClass: 2
Flags: W
HStem: -16 180<721.865 1090.35> -16 48<172.618 375.578> 258 48<179.514 370.559> 666 64<212 506 729 1042> 998 156<1140.33 1254.36> 1402 48<926.504 1163.86>
VStem: 68 64<62.26 220.083> 486 243<732.952 1130.7> 1132 68<211.609 387.61> 1260 68<1159.11 1327.45>
LayerCount: 2
Back
SplineSet
68 138 m 4
 68 188.666666667 87 229.333333333 125 260 c 132
 163 290.666666667 209.333333333 306 264 306 c 4
 312 306 356.833333333 301.166666667 398.5 291.5 c 132
 440.166666667 281.833333333 492 266.333333333 554 245 c 5
 567.333333333 277 574 311.333333333 574 348 c 4
 574 458.666666667 556.333333333 564.666666667 521 666 c 5
 212 666 l 5
 212 730 l 5
 506 730 l 5
 492.666666667 792.666666667 486 854 486 914 c 4
 486 1016 510.5 1108 559.5 1190 c 132
 608.5 1272 675.666666667 1335.83333333 761 1381.5 c 132
 846.333333333 1427.16666667 941.333333333 1450 1046 1450 c 4
 1126.66666667 1450 1193.83333333 1427 1247.5 1381 c 132
 1301.16666667 1335 1328 1277 1328 1207 c 4
 1328 1145 1309.5 1094.66666667 1272.5 1056 c 132
 1235.5 1017.33333333 1193.66666667 998 1147 998 c 4
 1109.66666667 998 1076.33333333 1008.16666667 1047 1028.5 c 132
 1017.66666667 1048.83333333 1003 1077.33333333 1003 1114 c 4
 1003 1144 1012.5 1167.5 1031.5 1184.5 c 132
 1050.5 1201.5 1071.66666667 1210 1095 1210 c 4
 1122.33333333 1210 1145.66666667 1199.66666667 1165 1179 c 5
 1179.66666667 1162.33333333 1195 1154 1211 1154 c 4
 1223 1154 1234.16666667 1161.33333333 1244.5 1176 c 132
 1254.83333333 1190.66666667 1260 1212.66666667 1260 1242 c 4
 1260 1282 1241.33333333 1318.66666667 1204 1352 c 132
 1166.66666667 1385.33333333 1112.66666667 1402 1042 1402 c 4
 950.666666667 1402 882.333333333 1367.83333333 837 1299.5 c 132
 791.666666667 1231.16666667 761.333333333 1133.33333333 746 1006 c 4
 738.666666667 944 733 852 729 730 c 5
 1042 730 l 5
 1042 666 l 5
 726 666 l 5
 720 555.333333333 711 469.5 699 408.5 c 132
 687 347.5 665.666666667 284 635 218 c 5
 755 182 867.666666667 164 973 164 c 4
 1019.66666667 164 1057.83333333 176.666666667 1087.5 202 c 132
 1117.16666667 227.333333333 1132 258.333333333 1132 295 c 4
 1132 341 1117.66666667 378 1089 406 c 5
 1129 437 l 5
 1149 417 1165.83333333 392 1179.5 362 c 132
 1193.16666667 332 1200 300.666666667 1200 268 c 4
 1200 184 1177.83333333 115.666666667 1133.5 63 c 132
 1089.16666667 10.3333333333 1023 -16 935 -16 c 4
 895 -16 858.166666667 -12.8333333333 824.5 -6.5 c 132
 790.833333333 -0.166666666667 757.833333333 10.6666666667 725.5 26 c 132
 693.166666667 41.3333333333 667 54.8333333333 647 66.5 c 132
 627 78.1666666667 599.333333333 95.6666666667 564 119 c 5
 479.333333333 29 377.333333333 -16 258 -16 c 4
 205.333333333 -16 160.5 -2.66666666667 123.5 24 c 132
 86.5 50.6666666667 68 88.6666666667 68 138 c 4
132 139 m 4
 132 101.666666667 144.333333333 74.5 169 57.5 c 132
 193.666666667 40.5 222.666666667 32 256 32 c 4
 308.666666667 32 356.333333333 43.3333333333 399 66 c 132
 441.666666667 88.6666666667 477.333333333 119 506 157 c 5
 452.666666667 192.333333333 407.666666667 218 371 234 c 132
 334.333333333 250 296 258 256 258 c 4
 220 258 190.333333333 246.666666667 167 224 c 132
 143.666666667 201.333333333 132 173 132 139 c 4
EndSplineSet
Fore
SplineSet
68 138 m 4x7fc0
 68 189 87 229 125 260 c 4
 163 291 209 306 264 306 c 4
 312 306 356 302 398 292 c 4
 440 282 492 266 554 245 c 5
 567 277 574 311 574 348 c 4
 574 459 556 565 521 666 c 5
 212 666 l 5
 212 730 l 5
 506 730 l 5
 493 793 486 854 486 914 c 4
 486 1016 511 1108 560 1190 c 4
 609 1272 676 1336 761 1382 c 4
 846 1428 941 1450 1046 1450 c 4
 1127 1450 1194 1427 1248 1381 c 4
 1302 1335 1328 1277 1328 1207 c 4
 1328 1145 1309 1095 1272 1056 c 4
 1235 1017 1194 998 1147 998 c 4
 1110 998 1076 1008 1047 1028 c 4
 1018 1048 1003 1077 1003 1114 c 4
 1003 1144 1013 1167 1032 1184 c 4
 1051 1201 1072 1210 1095 1210 c 4
 1122 1210 1146 1200 1165 1179 c 5
 1180 1162 1195 1154 1211 1154 c 4
 1223 1154 1234 1161 1244 1176 c 4
 1254 1191 1260 1213 1260 1242 c 4
 1260 1282 1241 1319 1204 1352 c 4
 1167 1385 1113 1402 1042 1402 c 4
 951 1402 882 1368 837 1300 c 4
 792 1232 761 1133 746 1006 c 4
 739 944 733 852 729 730 c 5
 1042 730 l 5
 1042 666 l 5
 726 666 l 5
 720 555 711 469 699 408 c 4
 687 347 666 284 635 218 c 5
 755 182 868 164 973 164 c 4
 1020 164 1058 177 1088 202 c 4
 1118 227 1132 258 1132 295 c 4
 1132 341 1118 378 1089 406 c 5
 1129 437 l 5
 1149 417 1166 392 1180 362 c 4
 1194 332 1200 301 1200 268 c 4
 1200 184 1178 116 1134 63 c 4
 1090 10 1023 -16 935 -16 c 4xbfc0
 895 -16 858 -12 824 -6 c 4
 790 0 758 11 726 26 c 4
 694 41 667 54 647 66 c 4
 627 78 599 96 564 119 c 5
 479 29 377 -16 258 -16 c 4
 205 -16 161 -3 124 24 c 4
 87 51 68 89 68 138 c 4x7fc0
132 139 m 4
 132 102 144 75 169 58 c 4
 194 41 223 32 256 32 c 4x7fc0
 309 32 356 43 399 66 c 4
 442 89 477 119 506 157 c 5
 453 192 408 218 371 234 c 4
 334 250 296 258 256 258 c 4
 220 258 190 247 167 224 c 4
 144 201 132 173 132 139 c 4
EndSplineSet
Validated: 1
EndChar

StartChar: section
Encoding: 390 167 134
Width: 1042
GlyphClass: 2
Flags: W
HStem: -536 48<369.7 604.444> 1402 48<444.636 669.302>
VStem: 158 138<-402.787 -231.5> 190 56<605.175 779.868> 213 118<1057.11 1290.91> 740 140<1157.5 1324.73> 748 104<-334.189 -65.5781> 800 56<237.721 422.588>
LayerCount: 2
Back
SplineSet
158 -256 m 4
 158 -206.666666667 174.333333333 -165.166666667 207 -131.5 c 132
 239.666666667 -97.8333333333 275.666666667 -81 315 -81 c 4
 346.333333333 -81 371.666666667 -89.5 391 -106.5 c 132
 410.333333333 -123.5 420 -147 420 -177 c 4
 420 -201 414 -220.666666667 402 -236 c 132
 390 -251.333333333 374 -265.333333333 354 -278 c 4
 341.333333333 -286.666666667 331.5 -293.833333333 324.5 -299.5 c 132
 317.5 -305.166666667 311 -313.5 305 -324.5 c 132
 299 -335.5 296 -348.333333333 296 -363 c 4
 296 -401.666666667 314.166666667 -432.166666667 350.5 -454.5 c 132
 386.833333333 -476.833333333 432.666666667 -488 488 -488 c 4
 526 -488 560.333333333 -482.166666667 591 -470.5 c 132
 621.666666667 -458.833333333 646.5 -444 665.5 -426 c 132
 684.5 -408 700.333333333 -387.166666667 713 -363.5 c 132
 725.666666667 -339.833333333 734.666666667 -316.5 740 -293.5 c 132
 745.333333333 -270.5 748 -247.666666667 748 -225 c 4
 748 -194.333333333 743.333333333 -164.666666667 734 -136 c 132
 724.666666667 -107.333333333 713.333333333 -81.6666666667 700 -59 c 132
 686.666666667 -36.3333333333 667.833333333 -12.1666666667 643.5 13.5 c 132
 619.166666667 39.1666666667 596.666666667 61 576 79 c 132
 555.333333333 97 528.333333333 119.333333333 495 146 c 4
 448.333333333 183.333333333 410.333333333 215.833333333 381 243.5 c 132
 351.666666667 271.166666667 320.666666667 305.666666667 288 347 c 132
 255.333333333 388.333333333 230.833333333 433 214.5 481 c 132
 198.166666667 529 190 580.666666667 190 636 c 4
 190 735.333333333 224.666666667 823.666666667 294 901 c 5
 240 975.666666667 213 1052 213 1130 c 4
 213 1192 229.333333333 1247.83333333 262 1297.5 c 132
 294.666666667 1347.16666667 336.5 1385 387.5 1411 c 132
 438.5 1437 492.666666667 1450 550 1450 c 4
 653.333333333 1450 734.166666667 1424.33333333 792.5 1373 c 132
 850.833333333 1321.66666667 880 1257 880 1179 c 4
 880 1136.33333333 865.333333333 1100 836 1070 c 132
 806.666666667 1040 772.333333333 1025 733 1025 c 4
 703.666666667 1025 679 1033.5 659 1050.5 c 132
 639 1067.5 629 1089.66666667 629 1117 c 4
 629 1155.66666667 651.666666667 1188.33333333 697 1215 c 5
 725.666666667 1231 740 1253.33333333 740 1282 c 4
 740 1315.33333333 723.5 1343.66666667 690.5 1367 c 132
 657.5 1390.33333333 611.333333333 1402 552 1402 c 4
 528.666666667 1402 505 1398.5 481 1391.5 c 132
 457 1384.5 433.333333333 1373.66666667 410 1359 c 132
 386.666666667 1344.33333333 367.666666667 1323.5 353 1296.5 c 132
 338.333333333 1269.5 331 1238 331 1202 c 4
 331 1174.66666667 335.666666667 1148 345 1122 c 132
 354.333333333 1096 365.166666667 1073 377.5 1053 c 132
 389.833333333 1033 407.833333333 1011 431.5 987 c 132
 455.166666667 963 476 943.333333333 494 928 c 132
 512 912.666666667 536.333333333 892.666666667 567 868 c 4
 603.666666667 838.666666667 633 814.333333333 655 795 c 132
 677 775.666666667 702.333333333 750 731 718 c 132
 759.666666667 686 782 655.5 798 626.5 c 132
 814 597.5 827.666666667 562.5 839 521.5 c 132
 850.333333333 480.5 856 437.333333333 856 392 c 4
 856 339.333333333 848.5 292.333333333 833.5 251 c 132
 818.5 209.666666667 794.333333333 167 761 123 c 5
 821.666666667 45 852 -40.6666666667 852 -134 c 4
 852 -168.666666667 848.166666667 -203.666666667 840.5 -239 c 132
 832.833333333 -274.333333333 819.833333333 -310 801.5 -346 c 132
 783.166666667 -382 760.666666667 -414 734 -442 c 132
 707.333333333 -470 672.833333333 -492.666666667 630.5 -510 c 132
 588.166666667 -527.333333333 541.333333333 -536 490 -536 c 4
 394 -536 314.666666667 -509.5 252 -456.5 c 132
 189.333333333 -403.5 158 -336.666666667 158 -256 c 4
246 694 m 4
 246 649.333333333 272.833333333 595.666666667 326.5 533 c 132
 380.166666667 470.333333333 446.666666667 407.333333333 526 344 c 4
 622.666666667 266.666666667 691.333333333 204.666666667 732 158 c 5
 777.333333333 214 800 271.666666667 800 331 c 4
 800 376.333333333 775.666666667 428.5 727 487.5 c 132
 678.333333333 546.5 615.666666667 606.666666667 539 668 c 4
 435.666666667 751.333333333 363 817.666666667 321 867 c 5
 271 814.333333333 246 756.666666667 246 694 c 4
EndSplineSet
Fore
SplineSet
158 -256 m 4xe2
 158 -207 174 -166 207 -132 c 4
 240 -98 276 -81 315 -81 c 4
 346 -81 372 -89 391 -106 c 4
 410 -123 420 -147 420 -177 c 4
 420 -201 414 -221 402 -236 c 4
 390 -251 374 -265 354 -278 c 4
 341 -287 331 -294 324 -300 c 4
 317 -306 311 -313 305 -324 c 4
 299 -335 296 -348 296 -363 c 4
 296 -402 314 -432 350 -454 c 4
 386 -476 433 -488 488 -488 c 4
 526 -488 560 -482 591 -470 c 4
 622 -458 647 -444 666 -426 c 4
 685 -408 700 -388 713 -364 c 4
 726 -340 735 -317 740 -294 c 4xe4
 745 -271 748 -248 748 -225 c 4
 748 -194 743 -165 734 -136 c 4
 725 -107 713 -82 700 -59 c 4
 687 -36 668 -12 644 14 c 4
 620 40 597 61 576 79 c 4
 555 97 528 119 495 146 c 4
 448 183 410 216 381 244 c 4
 352 272 321 306 288 347 c 4
 255 388 230 433 214 481 c 4
 198 529 190 581 190 636 c 4xd2
 190 735 225 824 294 901 c 5
 240 976 213 1052 213 1130 c 4
 213 1192 229 1248 262 1298 c 4
 295 1348 337 1385 388 1411 c 4
 439 1437 493 1450 550 1450 c 4
 653 1450 734 1424 792 1373 c 4
 850 1322 880 1257 880 1179 c 4
 880 1136 865 1100 836 1070 c 4
 807 1040 772 1025 733 1025 c 4
 704 1025 679 1033 659 1050 c 4
 639 1067 629 1090 629 1117 c 4
 629 1156 652 1188 697 1215 c 5
 726 1231 740 1253 740 1282 c 4xcc
 740 1315 723 1344 690 1367 c 4
 657 1390 611 1402 552 1402 c 4
 529 1402 505 1399 481 1392 c 4
 457 1385 433 1374 410 1359 c 4
 387 1344 368 1323 353 1296 c 4
 338 1269 331 1238 331 1202 c 4
 331 1175 336 1148 345 1122 c 4
 354 1096 366 1073 378 1053 c 4
 390 1033 408 1011 432 987 c 4
 456 963 476 943 494 928 c 4
 512 913 536 893 567 868 c 4
 604 839 633 814 655 795 c 4
 677 776 702 750 731 718 c 4
 760 686 782 655 798 626 c 4
 814 597 828 563 839 522 c 4
 850 481 856 437 856 392 c 4xc9
 856 339 849 292 834 251 c 4
 819 210 794 167 761 123 c 5
 822 45 852 -41 852 -134 c 4
 852 -169 848 -204 840 -239 c 4
 832 -274 820 -310 802 -346 c 4
 784 -382 761 -414 734 -442 c 4
 707 -470 672 -493 630 -510 c 4
 588 -527 541 -536 490 -536 c 4
 394 -536 315 -509 252 -456 c 4
 189 -403 158 -337 158 -256 c 4xe2
246 694 m 4xd1
 246 649 272 596 326 533 c 4
 380 470 447 407 526 344 c 4
 623 267 691 205 732 158 c 5
 777 214 800 272 800 331 c 4
 800 376 776 429 727 488 c 4
 678 547 616 607 539 668 c 4
 436 751 363 818 321 867 c 5
 271 814 246 757 246 694 c 4xd1
EndSplineSet
Validated: 1
EndChar

StartChar: bullet
Encoding: 391 8226 135
Width: 1104
GlyphClass: 2
Flags: W
HStem: 460 456<411.23 692.77>
VStem: 324 456<547.23 828.77>
LayerCount: 2
Back
SplineSet
324 688 m 132
 324 754 345.5 808.5 388.5 851.5 c 132
 431.5 894.5 486 916 552 916 c 132
 618 916 672.5 894.5 715.5 851.5 c 132
 758.5 808.5 780 754 780 688 c 132
 780 622 758.5 567.5 715.5 524.5 c 132
 672.5 481.5 618 460 552 460 c 132
 486 460 431.5 481.5 388.5 524.5 c 132
 345.5 567.5 324 622 324 688 c 132
EndSplineSet
Fore
SplineSet
324 688 m 4
 324 754 345 809 388 852 c 4
 431 895 486 916 552 916 c 4
 618 916 673 895 716 852 c 4
 759 809 780 754 780 688 c 4
 780 622 759 567 716 524 c 4
 673 481 618 460 552 460 c 4
 486 460 431 481 388 524 c 4
 345 567 324 622 324 688 c 4
EndSplineSet
Validated: 1
EndChar

StartChar: paragraph
Encoding: 392 182 136
Width: 1071
GlyphClass: 2
Flags: W
HStem: 1370 64<546 784 872 873>
VStem: 142 404<867.536 1231.55> 458 88<-520 681.822> 784 88<-520 1370>
LayerCount: 2
Back
SplineSet
142 1054 m 4
 142 1118 158.166666667 1179 190.5 1237 c 132
 222.833333333 1295 267.833333333 1342.33333333 325.5 1379 c 132
 383.166666667 1415.66666667 446 1434 514 1434 c 6
 1100 1434 l 5
 1100 1370 l 5
 872 1370 l 5
 872 -520 l 5
 784 -520 l 5
 784 1370 l 5
 546 1370 l 5
 546 -520 l 5
 458 -520 l 5
 458 674 l 5
 365.333333333 686 289.5 728 230.5 800 c 132
 171.5 872 142 956.666666667 142 1054 c 4
EndSplineSet
Fore
SplineSet
142 1054 m 0xd0
 142 1118 158 1179 190 1237 c 0
 222 1295 268 1342 326 1379 c 0
 384 1416 446 1434 514 1434 c 2
 873 1434 l 1
 873 1370 l 1
 872 1370 l 1
 872 -520 l 1
 784 -520 l 1
 784 1370 l 1
 546 1370 l 1
 546 -520 l 1
 458 -520 l 1
 458 674 l 1xb0
 365 686 289 728 230 800 c 0
 171 872 142 957 142 1054 c 0xd0
EndSplineSet
Validated: 1
EndChar

StartChar: germandbls
Encoding: 393 223 137
Width: 1126
GlyphClass: 2
Flags: W
HStem: -18 48<577.251 743.045> 0 21G<218 384> 845 48<458 615.977> 1464 48<522.195 704.381>
VStem: 220 164<0 1224.73> 444 120<50.3097 182.998> 789 164<1067.56 1381.43> 846 184<181.762 586.561>
LayerCount: 2
Back
SplineSet
78 0 m 5
 78 48 l 5
 220 48 l 5
 220 954 l 6
 220 1100.66666667 249.666666667 1221.33333333 309 1316 c 4
 346.333333333 1375.33333333 393 1422.83333333 449 1458.5 c 132
 505 1494.16666667 566.666666667 1512 634 1512 c 4
 732.666666667 1512 810.5 1484.5 867.5 1429.5 c 132
 924.5 1374.5 953 1308.66666667 953 1232 c 4
 953 1140.66666667 920.833333333 1063.66666667 856.5 1001 c 132
 792.166666667 938.333333333 710.666666667 897.333333333 612 878 c 5
 612 870 l 5
 737.333333333 843.333333333 838.333333333 784.5 915 693.5 c 132
 991.666666667 602.5 1030 501.333333333 1030 390 c 4
 1030 268.666666667 995.5 170.333333333 926.5 95 c 132
 857.5 19.6666666667 768 -18 658 -18 c 4
 598.666666667 -18 548.166666667 -0.833333333333 506.5 33.5 c 132
 464.833333333 67.8333333333 444 113.333333333 444 170 c 4
 444 214 456.5 249.666666667 481.5 277 c 132
 506.5 304.333333333 539.333333333 318 580 318 c 4
 605.333333333 318 625.666666667 311.166666667 641 297.5 c 132
 656.333333333 283.833333333 664 265 664 241 c 4
 664 210.333333333 645.333333333 180.666666667 608 152 c 4
 591.333333333 140 579.833333333 129.166666667 573.5 119.5 c 132
 567.166666667 109.833333333 564 97.3333333333 564 82 c 4
 564 65.3333333333 573.333333333 52.5 592 43.5 c 132
 610.666666667 34.5 632.666666667 30 658 30 c 4
 720.666666667 30 767.666666667 57.6666666667 799 113 c 132
 830.333333333 168.333333333 846 259.666666667 846 387 c 4
 846 429.666666667 842.333333333 471.666666667 835 513 c 132
 827.666666667 554.333333333 815.5 595.333333333 798.5 636 c 132
 781.5 676.666666667 760.5 712.166666667 735.5 742.5 c 132
 710.5 772.833333333 678.333333333 797.5 639 816.5 c 132
 599.666666667 835.5 556 845 508 845 c 6
 458 845 l 5
 458 893 l 5
 508 893 l 6
 544.666666667 893 578.833333333 898.833333333 610.5 910.5 c 132
 642.166666667 922.166666667 671.833333333 940.666666667 699.5 966 c 132
 727.166666667 991.333333333 749 1027.16666667 765 1073.5 c 132
 781 1119.83333333 789 1174 789 1236 c 4
 789 1307.33333333 773.833333333 1363.16666667 743.5 1403.5 c 132
 713.166666667 1443.83333333 670 1464 614 1464 c 4
 542.666666667 1464 486.5 1430 445.5 1362 c 132
 404.5 1294 384 1192 384 1056 c 6
 384 0 l 5
 78 0 l 5
EndSplineSet
Fore
SplineSet
218 0 m 5x7e
 218 48 l 5
 220 48 l 1
 220 954 l 2
 220 1101 250 1221 309 1316 c 0
 346 1375 393 1422 449 1458 c 0
 505 1494 567 1512 634 1512 c 0
 733 1512 811 1485 868 1430 c 0
 925 1375 953 1309 953 1232 c 0x7e
 953 1141 920 1064 856 1001 c 0
 792 938 711 897 612 878 c 1
 612 870 l 1
 737 843 838 785 915 694 c 0
 992 603 1030 501 1030 390 c 0
 1030 269 995 170 926 95 c 0
 857 20 768 -18 658 -18 c 0
 599 -18 548 0 506 34 c 0
 464 68 444 113 444 170 c 0
 444 214 457 250 482 277 c 0
 507 304 539 318 580 318 c 0
 605 318 626 312 641 298 c 0
 656 284 664 265 664 241 c 0
 664 210 645 181 608 152 c 0
 591 140 580 130 574 120 c 0
 568 110 564 97 564 82 c 0
 564 65 573 53 592 44 c 0
 611 35 633 30 658 30 c 0
 721 30 768 58 799 113 c 0
 830 168 846 260 846 387 c 0xbd
 846 430 842 472 835 513 c 0
 828 554 815 595 798 636 c 0
 781 677 761 712 736 742 c 0
 711 772 678 797 639 816 c 0
 600 835 556 845 508 845 c 2
 458 845 l 1
 458 893 l 1
 508 893 l 2
 545 893 578 898 610 910 c 0
 642 922 672 941 700 966 c 0
 728 991 749 1028 765 1074 c 0
 781 1120 789 1174 789 1236 c 0
 789 1307 774 1364 744 1404 c 0
 714 1444 670 1464 614 1464 c 0
 543 1464 487 1430 446 1362 c 0
 405 1294 384 1192 384 1056 c 2
 384 0 l 1
 218 0 l 5x7e
EndSplineSet
Validated: 1
EndChar

StartChar: registered
Encoding: 394 174 138
Width: 1672
GlyphClass: 2
Flags: W
HStem: -28 64<626.85 1045.15> 287 56<1183.22 1327.28> 746 48<720 931.621> 1138 48<720 934.955> 1452 64<626.85 1045.15>
VStem: 64 64<534.85 953.15> 556 164<302 746 794 1138> 1000 164<368.806 685.45 848.306 1087.73> 1544 64<534.85 953.15>
LayerCount: 2
Back
SplineSet
64 744 m 132
 64 848.666666667 84.3333333333 948.666666667 125 1044 c 132
 165.666666667 1139.33333333 220.5 1221.5 289.5 1290.5 c 132
 358.5 1359.5 440.666666667 1414.33333333 536 1455 c 132
 631.333333333 1495.66666667 731.333333333 1516 836 1516 c 132
 940.666666667 1516 1040.66666667 1495.66666667 1136 1455 c 132
 1231.33333333 1414.33333333 1313.5 1359.5 1382.5 1290.5 c 132
 1451.5 1221.5 1506.33333333 1139.33333333 1547 1044 c 132
 1587.66666667 948.666666667 1608 848.666666667 1608 744 c 132
 1608 639.333333333 1587.66666667 539.333333333 1547 444 c 132
 1506.33333333 348.666666667 1451.5 266.5 1382.5 197.5 c 132
 1313.5 128.5 1231.33333333 73.6666666667 1136 33 c 132
 1040.66666667 -7.66666666667 940.666666667 -28 836 -28 c 132
 731.333333333 -28 631.333333333 -7.66666666667 536 33 c 132
 440.666666667 73.6666666667 358.5 128.5 289.5 197.5 c 132
 220.5 266.5 165.666666667 348.666666667 125 444 c 132
 84.3333333333 539.333333333 64 639.333333333 64 744 c 132
128 744 m 132
 128 648 146.666666667 556.333333333 184 469 c 132
 221.333333333 381.666666667 271.666666667 306.333333333 335 243 c 132
 398.333333333 179.666666667 473.666666667 129.333333333 561 92 c 132
 648.333333333 54.6666666667 740 36 836 36 c 132
 932 36 1023.66666667 54.6666666667 1111 92 c 132
 1198.33333333 129.333333333 1273.66666667 179.666666667 1337 243 c 132
 1400.33333333 306.333333333 1450.66666667 381.666666667 1488 469 c 132
 1525.33333333 556.333333333 1544 648 1544 744 c 132
 1544 840 1525.33333333 931.666666667 1488 1019 c 132
 1450.66666667 1106.33333333 1400.33333333 1181.66666667 1337 1245 c 132
 1273.66666667 1308.33333333 1198.33333333 1358.66666667 1111 1396 c 132
 1023.66666667 1433.33333333 932 1452 836 1452 c 132
 740 1452 648.333333333 1433.33333333 561 1396 c 132
 473.666666667 1358.66666667 398.333333333 1308.33333333 335 1245 c 132
 271.666666667 1181.66666667 221.333333333 1106.33333333 184 1019 c 132
 146.666666667 931.666666667 128 840 128 744 c 132
414 302 m 5
 414 350 l 5
 556 350 l 5
 556 1138 l 5
 414 1138 l 5
 414 1186 l 5
 870 1186 l 6
 968.666666667 1186 1042.33333333 1164.83333333 1091 1122.5 c 132
 1139.66666667 1080.16666667 1164 1029.33333333 1164 970 c 132
 1164 910.666666667 1144.16666667 865.5 1104.5 834.5 c 132
 1064.83333333 803.5 1007.33333333 783.333333333 932 774 c 5
 932 763 l 5
 1007.33333333 753.666666667 1064.83333333 732.5 1104.5 699.5 c 132
 1144.16666667 666.5 1164 628.333333333 1164 585 c 6
 1164 456 l 6
 1164 414.666666667 1170.83333333 385.5 1184.5 368.5 c 132
 1198.16666667 351.5 1221.66666667 343 1255 343 c 4
 1278.33333333 343 1301.33333333 348.333333333 1324 359 c 5
 1338 317 l 5
 1293.33333333 297 1244.33333333 287 1191 287 c 4
 1169 287 1147.83333333 289.333333333 1127.5 294 c 132
 1107.16666667 298.666666667 1086.83333333 306.166666667 1066.5 316.5 c 132
 1046.16666667 326.833333333 1030 342.666666667 1018 364 c 132
 1006 385.333333333 1000 410.666666667 1000 440 c 6
 1000 583 l 6
 1000 629 987.833333333 667.666666667 963.5 699 c 132
 939.166666667 730.333333333 903 746 855 746 c 6
 720 746 l 5
 720 350 l 5
 862 350 l 5
 862 302 l 5
 414 302 l 5
720 794 m 5
 869 794 l 6
 910.333333333 794 942.5 809.166666667 965.5 839.5 c 132
 988.5 869.833333333 1000 908.333333333 1000 955 c 4
 1000 1005 988.166666667 1048 964.5 1084 c 132
 940.833333333 1120 904.333333333 1138 855 1138 c 6
 720 1138 l 5
 720 794 l 5
EndSplineSet
Fore
SplineSet
64 744 m 0
 64 849 84 949 125 1044 c 0
 166 1139 221 1221 290 1290 c 0
 359 1359 441 1414 536 1455 c 0
 631 1496 731 1516 836 1516 c 0
 941 1516 1041 1496 1136 1455 c 0
 1231 1414 1313 1359 1382 1290 c 0
 1451 1221 1506 1139 1547 1044 c 0
 1588 949 1608 849 1608 744 c 0
 1608 639 1588 539 1547 444 c 0
 1506 349 1451 267 1382 198 c 0
 1313 129 1231 74 1136 33 c 0
 1041 -8 941 -28 836 -28 c 0
 731 -28 631 -8 536 33 c 0
 441 74 359 129 290 198 c 0
 221 267 166 349 125 444 c 0
 84 539 64 639 64 744 c 0
128 744 m 0
 128 648 147 556 184 469 c 0
 221 382 272 306 335 243 c 0
 398 180 474 129 561 92 c 0
 648 55 740 36 836 36 c 0
 932 36 1024 55 1111 92 c 0
 1198 129 1274 180 1337 243 c 0
 1400 306 1451 382 1488 469 c 0
 1525 556 1544 648 1544 744 c 0
 1544 840 1525 932 1488 1019 c 0
 1451 1106 1400 1182 1337 1245 c 0
 1274 1308 1198 1359 1111 1396 c 0
 1024 1433 932 1452 836 1452 c 0
 740 1452 648 1433 561 1396 c 0
 474 1359 398 1308 335 1245 c 0
 272 1182 221 1106 184 1019 c 0
 147 932 128 840 128 744 c 0
556 302 m 1
 556 350 l 1
 556 1138 l 5
 556 1186 l 5
 870 1186 l 2
 969 1186 1042 1164 1091 1122 c 0
 1140 1080 1164 1029 1164 970 c 0
 1164 911 1144 865 1104 834 c 0
 1064 803 1007 783 932 774 c 1
 932 763 l 1
 1007 754 1064 733 1104 700 c 0
 1144 667 1164 628 1164 585 c 2
 1164 456 l 2
 1164 415 1170 385 1184 368 c 0
 1198 351 1222 343 1255 343 c 0
 1278 343 1301 348 1324 359 c 1
 1338 317 l 1
 1293 297 1244 287 1191 287 c 0
 1169 287 1148 289 1128 294 c 0
 1108 299 1086 306 1066 316 c 0
 1046 326 1030 343 1018 364 c 0
 1006 385 1000 411 1000 440 c 2
 1000 583 l 2
 1000 629 988 668 964 699 c 0
 940 730 903 746 855 746 c 2
 720 746 l 1
 720 350 l 1
 720 302 l 1
 556 302 l 1
720 794 m 1
 869 794 l 2
 910 794 943 810 966 840 c 0
 989 870 1000 908 1000 955 c 0
 1000 1005 988 1048 964 1084 c 0
 940 1120 904 1138 855 1138 c 2
 720 1138 l 1
 720 794 l 1
EndSplineSet
Validated: 1
EndChar

